G04 #@! TF.GenerationSoftware,KiCad,Pcbnew,(5.1.5)-3*
G04 #@! TF.CreationDate,2020-07-10T10:23:00+02:00*
G04 #@! TF.ProjectId,65_keyboard_pcb,36355f6b-6579-4626-9f61-72645f706362,rev?*
G04 #@! TF.SameCoordinates,Original*
G04 #@! TF.FileFunction,Legend,Top*
G04 #@! TF.FilePolarity,Positive*
%FSLAX46Y46*%
G04 Gerber Fmt 4.6, Leading zero omitted, Abs format (unit mm)*
G04 Created by KiCad (PCBNEW (5.1.5)-3) date 2020-07-10 10:23:00*
%MOMM*%
%LPD*%
G04 APERTURE LIST*
%ADD10C,0.500000*%
%ADD11C,0.300000*%
%ADD12C,0.150000*%
%ADD13C,0.010000*%
%ADD14C,0.120000*%
%ADD15C,6.502000*%
%ADD16R,1.902000X1.202000*%
%ADD17R,1.402000X1.802000*%
%ADD18C,0.100000*%
%ADD19C,2.302000*%
%ADD20C,4.102000*%
%ADD21C,1.802000*%
%ADD22C,4.089800*%
%ADD23C,3.150000*%
%ADD24C,3.152000*%
%ADD25C,2.102000*%
%ADD26R,3.302000X2.102000*%
%ADD27R,2.102000X2.102000*%
%ADD28R,1.602000X0.652000*%
%ADD29R,0.652000X1.602000*%
%ADD30R,0.402000X2.802000*%
%ADD31R,1.702000X1.402000*%
G04 APERTURE END LIST*
D10*
X337547500Y-36642500D02*
X342547500Y-36642500D01*
X329047500Y-40142500D02*
X334047500Y-40142500D01*
X334047500Y-40142500D02*
X337547500Y-36642500D01*
X325547500Y-36642500D02*
X329047500Y-40142500D01*
X320547500Y-36642500D02*
X325547500Y-36642500D01*
X312047500Y-40142500D02*
X317047500Y-40142500D01*
X317047500Y-40142500D02*
X320547500Y-36642500D01*
X308547500Y-36642500D02*
X312047500Y-40142500D01*
X303547500Y-36642500D02*
X308547500Y-36642500D01*
X295047500Y-40142500D02*
X300047500Y-40142500D01*
X300047500Y-40142500D02*
X303547500Y-36642500D01*
X291547500Y-36642500D02*
X295047500Y-40142500D01*
X286547500Y-36642500D02*
X291547500Y-36642500D01*
X278047500Y-40142500D02*
X283047500Y-40142500D01*
X283047500Y-40142500D02*
X286547500Y-36642500D01*
X274547500Y-36642500D02*
X278047500Y-40142500D01*
X269547500Y-36642500D02*
X274547500Y-36642500D01*
X261047500Y-40142500D02*
X266047500Y-40142500D01*
X266047500Y-40142500D02*
X269547500Y-36642500D01*
X257547500Y-36642500D02*
X261047500Y-40142500D01*
X252547500Y-36642500D02*
X257547500Y-36642500D01*
X244047500Y-40142500D02*
X249047500Y-40142500D01*
X249047500Y-40142500D02*
X252547500Y-36642500D01*
X240547500Y-36642500D02*
X244047500Y-40142500D01*
X235547500Y-36642500D02*
X240547500Y-36642500D01*
X232047500Y-40142500D02*
X235547500Y-36642500D01*
X227047500Y-40142500D02*
X232047500Y-40142500D01*
D11*
X85928214Y-36607261D02*
X86404404Y-38607261D01*
X86785357Y-37178690D01*
X87166309Y-38607261D01*
X87642500Y-36607261D01*
X89261547Y-38607261D02*
X89261547Y-37559642D01*
X89166309Y-37369166D01*
X88975833Y-37273928D01*
X88594880Y-37273928D01*
X88404404Y-37369166D01*
X89261547Y-38512023D02*
X89071071Y-38607261D01*
X88594880Y-38607261D01*
X88404404Y-38512023D01*
X88309166Y-38321547D01*
X88309166Y-38131071D01*
X88404404Y-37940595D01*
X88594880Y-37845357D01*
X89071071Y-37845357D01*
X89261547Y-37750119D01*
X90023452Y-37273928D02*
X90499642Y-38607261D01*
X90975833Y-37273928D01*
X92499642Y-38512023D02*
X92309166Y-38607261D01*
X91928214Y-38607261D01*
X91737738Y-38512023D01*
X91642500Y-38321547D01*
X91642500Y-37559642D01*
X91737738Y-37369166D01*
X91928214Y-37273928D01*
X92309166Y-37273928D01*
X92499642Y-37369166D01*
X92594880Y-37559642D01*
X92594880Y-37750119D01*
X91642500Y-37940595D01*
X94309166Y-36607261D02*
X93928214Y-36607261D01*
X93737738Y-36702500D01*
X93642500Y-36797738D01*
X93452023Y-37083452D01*
X93356785Y-37464404D01*
X93356785Y-38226309D01*
X93452023Y-38416785D01*
X93547261Y-38512023D01*
X93737738Y-38607261D01*
X94118690Y-38607261D01*
X94309166Y-38512023D01*
X94404404Y-38416785D01*
X94499642Y-38226309D01*
X94499642Y-37750119D01*
X94404404Y-37559642D01*
X94309166Y-37464404D01*
X94118690Y-37369166D01*
X93737738Y-37369166D01*
X93547261Y-37464404D01*
X93452023Y-37559642D01*
X93356785Y-37750119D01*
X96309166Y-36607261D02*
X95356785Y-36607261D01*
X95261547Y-37559642D01*
X95356785Y-37464404D01*
X95547261Y-37369166D01*
X96023452Y-37369166D01*
X96213928Y-37464404D01*
X96309166Y-37559642D01*
X96404404Y-37750119D01*
X96404404Y-38226309D01*
X96309166Y-38416785D01*
X96213928Y-38512023D01*
X96023452Y-38607261D01*
X95547261Y-38607261D01*
X95356785Y-38512023D01*
X95261547Y-38416785D01*
X98499642Y-36607261D02*
X99166309Y-38607261D01*
X99832976Y-36607261D01*
X101547261Y-38607261D02*
X100404404Y-38607261D01*
X100975833Y-38607261D02*
X100975833Y-36607261D01*
X100785357Y-36892976D01*
X100594880Y-37083452D01*
X100404404Y-37178690D01*
X102404404Y-38416785D02*
X102499642Y-38512023D01*
X102404404Y-38607261D01*
X102309166Y-38512023D01*
X102404404Y-38416785D01*
X102404404Y-38607261D01*
X103737738Y-36607261D02*
X103928214Y-36607261D01*
X104118690Y-36702500D01*
X104213928Y-36797738D01*
X104309166Y-36988214D01*
X104404404Y-37369166D01*
X104404404Y-37845357D01*
X104309166Y-38226309D01*
X104213928Y-38416785D01*
X104118690Y-38512023D01*
X103928214Y-38607261D01*
X103737738Y-38607261D01*
X103547261Y-38512023D01*
X103452023Y-38416785D01*
X103356785Y-38226309D01*
X103261547Y-37845357D01*
X103261547Y-37369166D01*
X103356785Y-36988214D01*
X103452023Y-36797738D01*
X103547261Y-36702500D01*
X103737738Y-36607261D01*
X86118690Y-41907261D02*
X86118690Y-39907261D01*
X86594880Y-39907261D01*
X86880595Y-40002500D01*
X87071071Y-40192976D01*
X87166309Y-40383452D01*
X87261547Y-40764404D01*
X87261547Y-41050119D01*
X87166309Y-41431071D01*
X87071071Y-41621547D01*
X86880595Y-41812023D01*
X86594880Y-41907261D01*
X86118690Y-41907261D01*
X88880595Y-41812023D02*
X88690119Y-41907261D01*
X88309166Y-41907261D01*
X88118690Y-41812023D01*
X88023452Y-41621547D01*
X88023452Y-40859642D01*
X88118690Y-40669166D01*
X88309166Y-40573928D01*
X88690119Y-40573928D01*
X88880595Y-40669166D01*
X88975833Y-40859642D01*
X88975833Y-41050119D01*
X88023452Y-41240595D01*
X89737738Y-41812023D02*
X89928214Y-41907261D01*
X90309166Y-41907261D01*
X90499642Y-41812023D01*
X90594880Y-41621547D01*
X90594880Y-41526309D01*
X90499642Y-41335833D01*
X90309166Y-41240595D01*
X90023452Y-41240595D01*
X89832976Y-41145357D01*
X89737738Y-40954880D01*
X89737738Y-40859642D01*
X89832976Y-40669166D01*
X90023452Y-40573928D01*
X90309166Y-40573928D01*
X90499642Y-40669166D01*
X91452023Y-41907261D02*
X91452023Y-40573928D01*
X91452023Y-39907261D02*
X91356785Y-40002500D01*
X91452023Y-40097738D01*
X91547261Y-40002500D01*
X91452023Y-39907261D01*
X91452023Y-40097738D01*
X93261547Y-40573928D02*
X93261547Y-42192976D01*
X93166309Y-42383452D01*
X93071071Y-42478690D01*
X92880595Y-42573928D01*
X92594880Y-42573928D01*
X92404404Y-42478690D01*
X93261547Y-41812023D02*
X93071071Y-41907261D01*
X92690119Y-41907261D01*
X92499642Y-41812023D01*
X92404404Y-41716785D01*
X92309166Y-41526309D01*
X92309166Y-40954880D01*
X92404404Y-40764404D01*
X92499642Y-40669166D01*
X92690119Y-40573928D01*
X93071071Y-40573928D01*
X93261547Y-40669166D01*
X94213928Y-40573928D02*
X94213928Y-41907261D01*
X94213928Y-40764404D02*
X94309166Y-40669166D01*
X94499642Y-40573928D01*
X94785357Y-40573928D01*
X94975833Y-40669166D01*
X95071071Y-40859642D01*
X95071071Y-41907261D01*
X96785357Y-41812023D02*
X96594880Y-41907261D01*
X96213928Y-41907261D01*
X96023452Y-41812023D01*
X95928214Y-41621547D01*
X95928214Y-40859642D01*
X96023452Y-40669166D01*
X96213928Y-40573928D01*
X96594880Y-40573928D01*
X96785357Y-40669166D01*
X96880595Y-40859642D01*
X96880595Y-41050119D01*
X95928214Y-41240595D01*
X98594880Y-41907261D02*
X98594880Y-39907261D01*
X98594880Y-41812023D02*
X98404404Y-41907261D01*
X98023452Y-41907261D01*
X97832976Y-41812023D01*
X97737738Y-41716785D01*
X97642500Y-41526309D01*
X97642500Y-40954880D01*
X97737738Y-40764404D01*
X97832976Y-40669166D01*
X98023452Y-40573928D01*
X98404404Y-40573928D01*
X98594880Y-40669166D01*
X101071071Y-41907261D02*
X101071071Y-39907261D01*
X101071071Y-40669166D02*
X101261547Y-40573928D01*
X101642500Y-40573928D01*
X101832976Y-40669166D01*
X101928214Y-40764404D01*
X102023452Y-40954880D01*
X102023452Y-41526309D01*
X101928214Y-41716785D01*
X101832976Y-41812023D01*
X101642500Y-41907261D01*
X101261547Y-41907261D01*
X101071071Y-41812023D01*
X102690119Y-40573928D02*
X103166309Y-41907261D01*
X103642500Y-40573928D02*
X103166309Y-41907261D01*
X102975833Y-42383452D01*
X102880595Y-42478690D01*
X102690119Y-42573928D01*
X105928214Y-41907261D02*
X105928214Y-39907261D01*
X106404404Y-39907261D01*
X106690119Y-40002500D01*
X106880595Y-40192976D01*
X106975833Y-40383452D01*
X107071071Y-40764404D01*
X107071071Y-41050119D01*
X106975833Y-41431071D01*
X106880595Y-41621547D01*
X106690119Y-41812023D01*
X106404404Y-41907261D01*
X105928214Y-41907261D01*
X107928214Y-41716785D02*
X108023452Y-41812023D01*
X107928214Y-41907261D01*
X107832976Y-41812023D01*
X107928214Y-41716785D01*
X107928214Y-41907261D01*
X111737738Y-42097738D02*
X111547261Y-42002500D01*
X111356785Y-41812023D01*
X111071071Y-41526309D01*
X110880595Y-41431071D01*
X110690119Y-41431071D01*
X110785357Y-41907261D02*
X110594880Y-41812023D01*
X110404404Y-41621547D01*
X110309166Y-41240595D01*
X110309166Y-40573928D01*
X110404404Y-40192976D01*
X110594880Y-40002500D01*
X110785357Y-39907261D01*
X111166309Y-39907261D01*
X111356785Y-40002500D01*
X111547261Y-40192976D01*
X111642500Y-40573928D01*
X111642500Y-41240595D01*
X111547261Y-41621547D01*
X111356785Y-41812023D01*
X111166309Y-41907261D01*
X110785357Y-41907261D01*
X113356785Y-40573928D02*
X113356785Y-41907261D01*
X112499642Y-40573928D02*
X112499642Y-41621547D01*
X112594880Y-41812023D01*
X112785357Y-41907261D01*
X113071071Y-41907261D01*
X113261547Y-41812023D01*
X113356785Y-41716785D01*
X115166309Y-41907261D02*
X115166309Y-40859642D01*
X115071071Y-40669166D01*
X114880595Y-40573928D01*
X114499642Y-40573928D01*
X114309166Y-40669166D01*
X115166309Y-41812023D02*
X114975833Y-41907261D01*
X114499642Y-41907261D01*
X114309166Y-41812023D01*
X114213928Y-41621547D01*
X114213928Y-41431071D01*
X114309166Y-41240595D01*
X114499642Y-41145357D01*
X114975833Y-41145357D01*
X115166309Y-41050119D01*
X116975833Y-41812023D02*
X116785357Y-41907261D01*
X116404404Y-41907261D01*
X116213928Y-41812023D01*
X116118690Y-41716785D01*
X116023452Y-41526309D01*
X116023452Y-40954880D01*
X116118690Y-40764404D01*
X116213928Y-40669166D01*
X116404404Y-40573928D01*
X116785357Y-40573928D01*
X116975833Y-40669166D01*
X117832976Y-41907261D02*
X117832976Y-39907261D01*
X118690119Y-41907261D02*
X118690119Y-40859642D01*
X118594880Y-40669166D01*
X118404404Y-40573928D01*
X118118690Y-40573928D01*
X117928214Y-40669166D01*
X117832976Y-40764404D01*
D12*
X300498710Y-150521114D02*
X299927282Y-150521114D01*
X300212996Y-150521114D02*
X300212996Y-149521114D01*
X300117758Y-149663972D01*
X300022520Y-149759210D01*
X299927282Y-149806829D01*
X300927282Y-149521114D02*
X300927282Y-150330638D01*
X300974901Y-150425876D01*
X301022520Y-150473495D01*
X301117758Y-150521114D01*
X301308234Y-150521114D01*
X301403472Y-150473495D01*
X301451091Y-150425876D01*
X301498710Y-150330638D01*
X301498710Y-149521114D01*
X294758104Y-150521114D02*
X294186675Y-150521114D01*
X294472389Y-150521114D02*
X294472389Y-149521114D01*
X294377151Y-149663972D01*
X294281913Y-149759210D01*
X294186675Y-149806829D01*
X295186675Y-150425876D02*
X295234294Y-150473495D01*
X295186675Y-150521114D01*
X295139056Y-150473495D01*
X295186675Y-150425876D01*
X295186675Y-150521114D01*
X296139056Y-149521114D02*
X295662865Y-149521114D01*
X295615246Y-149997305D01*
X295662865Y-149949686D01*
X295758104Y-149902067D01*
X295996199Y-149902067D01*
X296091437Y-149949686D01*
X296139056Y-149997305D01*
X296186675Y-150092543D01*
X296186675Y-150330638D01*
X296139056Y-150425876D01*
X296091437Y-150473495D01*
X295996199Y-150521114D01*
X295758104Y-150521114D01*
X295662865Y-150473495D01*
X295615246Y-150425876D01*
X296615246Y-149521114D02*
X296615246Y-150330638D01*
X296662865Y-150425876D01*
X296710485Y-150473495D01*
X296805723Y-150521114D01*
X296996199Y-150521114D01*
X297091437Y-150473495D01*
X297139056Y-150425876D01*
X297186675Y-150330638D01*
X297186675Y-149521114D01*
X281408392Y-150521114D02*
X280836964Y-150521114D01*
X281122678Y-150521114D02*
X281122678Y-149521114D01*
X281027440Y-149663972D01*
X280932202Y-149759210D01*
X280836964Y-149806829D01*
X281836964Y-149521114D02*
X281836964Y-150330638D01*
X281884583Y-150425876D01*
X281932202Y-150473495D01*
X282027440Y-150521114D01*
X282217916Y-150521114D01*
X282313154Y-150473495D01*
X282360773Y-150425876D01*
X282408392Y-150330638D01*
X282408392Y-149521114D01*
X261998150Y-150671114D02*
X261426722Y-150671114D01*
X261712436Y-150671114D02*
X261712436Y-149671114D01*
X261617198Y-149813972D01*
X261521960Y-149909210D01*
X261426722Y-149956829D01*
X262426722Y-149671114D02*
X262426722Y-150480638D01*
X262474341Y-150575876D01*
X262521960Y-150623495D01*
X262617198Y-150671114D01*
X262807674Y-150671114D01*
X262902912Y-150623495D01*
X262950531Y-150575876D01*
X262998150Y-150480638D01*
X262998150Y-149671114D01*
X266270700Y-150671114D02*
X265699271Y-150671114D01*
X265984985Y-150671114D02*
X265984985Y-149671114D01*
X265889747Y-149813972D01*
X265794509Y-149909210D01*
X265699271Y-149956829D01*
X266699271Y-150575876D02*
X266746890Y-150623495D01*
X266699271Y-150671114D01*
X266651652Y-150623495D01*
X266699271Y-150575876D01*
X266699271Y-150671114D01*
X267651652Y-149671114D02*
X267175461Y-149671114D01*
X267127842Y-150147305D01*
X267175461Y-150099686D01*
X267270700Y-150052067D01*
X267508795Y-150052067D01*
X267604033Y-150099686D01*
X267651652Y-150147305D01*
X267699271Y-150242543D01*
X267699271Y-150480638D01*
X267651652Y-150575876D01*
X267604033Y-150623495D01*
X267508795Y-150671114D01*
X267270700Y-150671114D01*
X267175461Y-150623495D01*
X267127842Y-150575876D01*
X268127842Y-149671114D02*
X268127842Y-150480638D01*
X268175461Y-150575876D01*
X268223081Y-150623495D01*
X268318319Y-150671114D01*
X268508795Y-150671114D01*
X268604033Y-150623495D01*
X268651652Y-150575876D01*
X268699271Y-150480638D01*
X268699271Y-149671114D01*
X120837562Y-150371114D02*
X120266134Y-150371114D01*
X120551848Y-150371114D02*
X120551848Y-149371114D01*
X120456610Y-149513972D01*
X120361372Y-149609210D01*
X120266134Y-149656829D01*
X121266134Y-150275876D02*
X121313753Y-150323495D01*
X121266134Y-150371114D01*
X121218514Y-150323495D01*
X121266134Y-150275876D01*
X121266134Y-150371114D01*
X121694705Y-149466353D02*
X121742324Y-149418734D01*
X121837562Y-149371114D01*
X122075657Y-149371114D01*
X122170895Y-149418734D01*
X122218514Y-149466353D01*
X122266134Y-149561591D01*
X122266134Y-149656829D01*
X122218514Y-149799686D01*
X121647086Y-150371114D01*
X122266134Y-150371114D01*
X123170895Y-149371114D02*
X122694705Y-149371114D01*
X122647086Y-149847305D01*
X122694705Y-149799686D01*
X122789943Y-149752067D01*
X123028038Y-149752067D01*
X123123276Y-149799686D01*
X123170895Y-149847305D01*
X123218514Y-149942543D01*
X123218514Y-150180638D01*
X123170895Y-150275876D01*
X123123276Y-150323495D01*
X123028038Y-150371114D01*
X122789943Y-150371114D01*
X122694705Y-150323495D01*
X122647086Y-150275876D01*
X123647086Y-149371114D02*
X123647086Y-150180638D01*
X123694705Y-150275876D01*
X123742324Y-150323495D01*
X123837562Y-150371114D01*
X124028038Y-150371114D01*
X124123276Y-150323495D01*
X124170895Y-150275876D01*
X124218514Y-150180638D01*
X124218514Y-149371114D01*
X96740782Y-150521114D02*
X96169354Y-150521114D01*
X96455068Y-150521114D02*
X96455068Y-149521114D01*
X96359830Y-149663972D01*
X96264592Y-149759210D01*
X96169354Y-149806829D01*
X97169354Y-150425876D02*
X97216973Y-150473495D01*
X97169354Y-150521114D01*
X97121734Y-150473495D01*
X97169354Y-150425876D01*
X97169354Y-150521114D01*
X97597925Y-149616353D02*
X97645544Y-149568734D01*
X97740782Y-149521114D01*
X97978877Y-149521114D01*
X98074115Y-149568734D01*
X98121734Y-149616353D01*
X98169354Y-149711591D01*
X98169354Y-149806829D01*
X98121734Y-149949686D01*
X97550306Y-150521114D01*
X98169354Y-150521114D01*
X99074115Y-149521114D02*
X98597925Y-149521114D01*
X98550306Y-149997305D01*
X98597925Y-149949686D01*
X98693163Y-149902067D01*
X98931258Y-149902067D01*
X99026496Y-149949686D01*
X99074115Y-149997305D01*
X99121734Y-150092543D01*
X99121734Y-150330638D01*
X99074115Y-150425876D01*
X99026496Y-150473495D01*
X98931258Y-150521114D01*
X98693163Y-150521114D01*
X98597925Y-150473495D01*
X98550306Y-150425876D01*
X99550306Y-149521114D02*
X99550306Y-150330638D01*
X99597925Y-150425876D01*
X99645544Y-150473495D01*
X99740782Y-150521114D01*
X99931258Y-150521114D01*
X100026496Y-150473495D01*
X100074115Y-150425876D01*
X100121734Y-150330638D01*
X100121734Y-149521114D01*
X104828458Y-150521114D02*
X104257029Y-150521114D01*
X104542743Y-150521114D02*
X104542743Y-149521114D01*
X104447505Y-149663972D01*
X104352267Y-149759210D01*
X104257029Y-149806829D01*
X105257029Y-150425876D02*
X105304648Y-150473495D01*
X105257029Y-150521114D01*
X105209410Y-150473495D01*
X105257029Y-150425876D01*
X105257029Y-150521114D01*
X106209410Y-149521114D02*
X105733219Y-149521114D01*
X105685600Y-149997305D01*
X105733219Y-149949686D01*
X105828458Y-149902067D01*
X106066553Y-149902067D01*
X106161791Y-149949686D01*
X106209410Y-149997305D01*
X106257029Y-150092543D01*
X106257029Y-150330638D01*
X106209410Y-150425876D01*
X106161791Y-150473495D01*
X106066553Y-150521114D01*
X105828458Y-150521114D01*
X105733219Y-150473495D01*
X105685600Y-150425876D01*
X106685600Y-149521114D02*
X106685600Y-150330638D01*
X106733219Y-150425876D01*
X106780839Y-150473495D01*
X106876077Y-150521114D01*
X107066553Y-150521114D01*
X107161791Y-150473495D01*
X107209410Y-150425876D01*
X107257029Y-150330638D01*
X107257029Y-149521114D01*
X71821705Y-150371114D02*
X71250277Y-150371114D01*
X71535991Y-150371114D02*
X71535991Y-149371114D01*
X71440753Y-149513972D01*
X71345515Y-149609210D01*
X71250277Y-149656829D01*
X72250277Y-150275876D02*
X72297896Y-150323495D01*
X72250277Y-150371114D01*
X72202657Y-150323495D01*
X72250277Y-150275876D01*
X72250277Y-150371114D01*
X72678848Y-149466353D02*
X72726467Y-149418734D01*
X72821705Y-149371114D01*
X73059800Y-149371114D01*
X73155038Y-149418734D01*
X73202657Y-149466353D01*
X73250277Y-149561591D01*
X73250277Y-149656829D01*
X73202657Y-149799686D01*
X72631229Y-150371114D01*
X73250277Y-150371114D01*
X74155038Y-149371114D02*
X73678848Y-149371114D01*
X73631229Y-149847305D01*
X73678848Y-149799686D01*
X73774086Y-149752067D01*
X74012181Y-149752067D01*
X74107419Y-149799686D01*
X74155038Y-149847305D01*
X74202657Y-149942543D01*
X74202657Y-150180638D01*
X74155038Y-150275876D01*
X74107419Y-150323495D01*
X74012181Y-150371114D01*
X73774086Y-150371114D01*
X73678848Y-150323495D01*
X73631229Y-150275876D01*
X74631229Y-149371114D02*
X74631229Y-150180638D01*
X74678848Y-150275876D01*
X74726467Y-150323495D01*
X74821705Y-150371114D01*
X75012181Y-150371114D01*
X75107419Y-150323495D01*
X75155038Y-150275876D01*
X75202657Y-150180638D01*
X75202657Y-149371114D01*
X77232238Y-150371114D02*
X76660809Y-150371114D01*
X76946523Y-150371114D02*
X76946523Y-149371114D01*
X76851285Y-149513972D01*
X76756047Y-149609210D01*
X76660809Y-149656829D01*
X77660809Y-150275876D02*
X77708428Y-150323495D01*
X77660809Y-150371114D01*
X77613190Y-150323495D01*
X77660809Y-150275876D01*
X77660809Y-150371114D01*
X78613190Y-149371114D02*
X78136999Y-149371114D01*
X78089380Y-149847305D01*
X78136999Y-149799686D01*
X78232238Y-149752067D01*
X78470333Y-149752067D01*
X78565571Y-149799686D01*
X78613190Y-149847305D01*
X78660809Y-149942543D01*
X78660809Y-150180638D01*
X78613190Y-150275876D01*
X78565571Y-150323495D01*
X78470333Y-150371114D01*
X78232238Y-150371114D01*
X78136999Y-150323495D01*
X78089380Y-150275876D01*
X79089380Y-149371114D02*
X79089380Y-150180638D01*
X79136999Y-150275876D01*
X79184619Y-150323495D01*
X79279857Y-150371114D01*
X79470333Y-150371114D01*
X79565571Y-150323495D01*
X79613190Y-150275876D01*
X79660809Y-150180638D01*
X79660809Y-149371114D01*
X75799880Y-112547261D02*
X75942738Y-112594880D01*
X76180833Y-112594880D01*
X76276071Y-112547261D01*
X76323690Y-112499642D01*
X76371309Y-112404404D01*
X76371309Y-112309166D01*
X76323690Y-112213928D01*
X76276071Y-112166309D01*
X76180833Y-112118690D01*
X75990357Y-112071071D01*
X75895119Y-112023452D01*
X75847500Y-111975833D01*
X75799880Y-111880595D01*
X75799880Y-111785357D01*
X75847500Y-111690119D01*
X75895119Y-111642500D01*
X75990357Y-111594880D01*
X76228452Y-111594880D01*
X76371309Y-111642500D01*
X76657023Y-111594880D02*
X77228452Y-111594880D01*
X76942738Y-112594880D02*
X76942738Y-111594880D01*
X77514166Y-112309166D02*
X77990357Y-112309166D01*
X77418928Y-112594880D02*
X77752261Y-111594880D01*
X78085595Y-112594880D01*
X78418928Y-112594880D02*
X78418928Y-111594880D01*
X78990357Y-112594880D01*
X78990357Y-111594880D01*
X79466547Y-112594880D02*
X79466547Y-111594880D01*
X79704642Y-111594880D01*
X79847500Y-111642500D01*
X79942738Y-111737738D01*
X79990357Y-111832976D01*
X80037976Y-112023452D01*
X80037976Y-112166309D01*
X79990357Y-112356785D01*
X79942738Y-112452023D01*
X79847500Y-112547261D01*
X79704642Y-112594880D01*
X79466547Y-112594880D01*
X80418928Y-112309166D02*
X80895119Y-112309166D01*
X80323690Y-112594880D02*
X80657023Y-111594880D01*
X80990357Y-112594880D01*
X81895119Y-112594880D02*
X81561785Y-112118690D01*
X81323690Y-112594880D02*
X81323690Y-111594880D01*
X81704642Y-111594880D01*
X81799880Y-111642500D01*
X81847500Y-111690119D01*
X81895119Y-111785357D01*
X81895119Y-111928214D01*
X81847500Y-112023452D01*
X81799880Y-112071071D01*
X81704642Y-112118690D01*
X81323690Y-112118690D01*
X82323690Y-112594880D02*
X82323690Y-111594880D01*
X82561785Y-111594880D01*
X82704642Y-111642500D01*
X82799880Y-111737738D01*
X82847500Y-111832976D01*
X82895119Y-112023452D01*
X82895119Y-112166309D01*
X82847500Y-112356785D01*
X82799880Y-112452023D01*
X82704642Y-112547261D01*
X82561785Y-112594880D01*
X82323690Y-112594880D01*
D13*
G36*
X128590833Y-38922578D02*
G01*
X128759126Y-38922787D01*
X128903458Y-38923501D01*
X129026533Y-38924917D01*
X129131054Y-38927233D01*
X129219726Y-38930643D01*
X129295251Y-38935346D01*
X129360333Y-38941539D01*
X129417677Y-38949417D01*
X129469986Y-38959178D01*
X129519963Y-38971019D01*
X129570313Y-38985136D01*
X129607555Y-38996581D01*
X129757725Y-39052783D01*
X129893242Y-39123452D01*
X130022896Y-39213441D01*
X130070704Y-39252237D01*
X130140576Y-39311008D01*
X130085375Y-39392295D01*
X130041797Y-39462283D01*
X129996038Y-39545519D01*
X129952653Y-39632902D01*
X129916192Y-39715331D01*
X129894017Y-39774795D01*
X129880272Y-39814623D01*
X129870663Y-39832606D01*
X129861877Y-39832503D01*
X129852894Y-39821461D01*
X129755696Y-39702276D01*
X129642558Y-39604456D01*
X129513615Y-39528104D01*
X129426031Y-39491678D01*
X129307500Y-39449413D01*
X128487500Y-39440465D01*
X128487500Y-41015833D01*
X127940833Y-41015833D01*
X127940833Y-38922500D01*
X128590833Y-38922578D01*
G37*
X128590833Y-38922578D02*
X128759126Y-38922787D01*
X128903458Y-38923501D01*
X129026533Y-38924917D01*
X129131054Y-38927233D01*
X129219726Y-38930643D01*
X129295251Y-38935346D01*
X129360333Y-38941539D01*
X129417677Y-38949417D01*
X129469986Y-38959178D01*
X129519963Y-38971019D01*
X129570313Y-38985136D01*
X129607555Y-38996581D01*
X129757725Y-39052783D01*
X129893242Y-39123452D01*
X130022896Y-39213441D01*
X130070704Y-39252237D01*
X130140576Y-39311008D01*
X130085375Y-39392295D01*
X130041797Y-39462283D01*
X129996038Y-39545519D01*
X129952653Y-39632902D01*
X129916192Y-39715331D01*
X129894017Y-39774795D01*
X129880272Y-39814623D01*
X129870663Y-39832606D01*
X129861877Y-39832503D01*
X129852894Y-39821461D01*
X129755696Y-39702276D01*
X129642558Y-39604456D01*
X129513615Y-39528104D01*
X129426031Y-39491678D01*
X129307500Y-39449413D01*
X128487500Y-39440465D01*
X128487500Y-41015833D01*
X127940833Y-41015833D01*
X127940833Y-38922500D01*
X128590833Y-38922578D01*
G36*
X131601322Y-38929104D02*
G01*
X131765238Y-38947073D01*
X131906107Y-38975477D01*
X132084748Y-39034352D01*
X132249451Y-39115452D01*
X132399082Y-39217610D01*
X132532507Y-39339657D01*
X132648593Y-39480428D01*
X132746206Y-39638755D01*
X132824212Y-39813471D01*
X132873569Y-39971323D01*
X132911673Y-40168891D01*
X132926425Y-40370483D01*
X132918327Y-40572395D01*
X132887882Y-40770921D01*
X132835593Y-40962354D01*
X132761962Y-41142989D01*
X132698916Y-41259493D01*
X132668551Y-41309819D01*
X132834166Y-41475833D01*
X132999781Y-41641846D01*
X132960434Y-41682916D01*
X132927767Y-41710164D01*
X132881136Y-41740953D01*
X132834573Y-41766576D01*
X132790805Y-41786950D01*
X132754438Y-41799530D01*
X132716274Y-41806134D01*
X132667116Y-41808581D01*
X132621113Y-41808795D01*
X132556907Y-41807604D01*
X132510484Y-41803408D01*
X132472995Y-41794606D01*
X132435594Y-41779597D01*
X132420833Y-41772555D01*
X132374714Y-41748149D01*
X132333474Y-41723218D01*
X132313540Y-41709010D01*
X132279580Y-41681335D01*
X132173540Y-41733692D01*
X132046388Y-41789914D01*
X131919866Y-41831523D01*
X131787808Y-41859787D01*
X131644048Y-41875975D01*
X131482421Y-41881353D01*
X131455753Y-41881303D01*
X131374157Y-41879541D01*
X131291755Y-41875551D01*
X131217014Y-41869882D01*
X131158400Y-41863084D01*
X131147500Y-41861314D01*
X131009797Y-41829419D01*
X130872214Y-41783451D01*
X130742180Y-41726482D01*
X130627128Y-41661586D01*
X130573213Y-41623847D01*
X130519802Y-41581671D01*
X130472614Y-41541843D01*
X130436626Y-41508742D01*
X130416817Y-41486745D01*
X130416179Y-41485756D01*
X130419215Y-41469067D01*
X130434679Y-41435752D01*
X130459863Y-41391144D01*
X130482507Y-41355012D01*
X130515079Y-41301893D01*
X130549665Y-41240257D01*
X130583630Y-41175456D01*
X130614339Y-41112843D01*
X130639154Y-41057772D01*
X130655441Y-41015595D01*
X130660626Y-40993286D01*
X130666668Y-40973276D01*
X130683913Y-40977389D01*
X130712290Y-41005583D01*
X130740896Y-41042587D01*
X130836252Y-41151760D01*
X130950364Y-41242093D01*
X131082838Y-41313305D01*
X131160833Y-41343358D01*
X131275581Y-41372109D01*
X131403270Y-41387016D01*
X131533819Y-41387689D01*
X131657146Y-41373739D01*
X131701245Y-41364217D01*
X131848129Y-41314408D01*
X131980297Y-41243268D01*
X132096522Y-41152471D01*
X132195578Y-41043689D01*
X132276239Y-40918595D01*
X132337279Y-40778860D01*
X132377472Y-40626158D01*
X132395591Y-40462160D01*
X132396540Y-40415833D01*
X132386168Y-40233253D01*
X132354388Y-40066547D01*
X132301181Y-39915659D01*
X132226528Y-39780536D01*
X132130408Y-39661122D01*
X132119053Y-39649476D01*
X132014754Y-39562809D01*
X131893427Y-39494060D01*
X131758643Y-39444212D01*
X131613974Y-39414252D01*
X131462993Y-39405162D01*
X131309272Y-39417929D01*
X131290377Y-39421052D01*
X131136892Y-39459213D01*
X131001051Y-39517268D01*
X130882263Y-39595648D01*
X130779941Y-39694787D01*
X130693495Y-39815116D01*
X130653155Y-39889166D01*
X130607935Y-39989383D01*
X130576013Y-40083014D01*
X130555557Y-40178381D01*
X130544736Y-40283806D01*
X130541719Y-40395482D01*
X130529585Y-40599783D01*
X130494406Y-40794044D01*
X130436734Y-40976764D01*
X130357126Y-41146439D01*
X130256136Y-41301570D01*
X130168547Y-41405498D01*
X130068707Y-41503083D01*
X129967552Y-41582086D01*
X129855726Y-41649349D01*
X129790874Y-41681665D01*
X129726390Y-41711387D01*
X129666991Y-41736842D01*
X129610019Y-41758357D01*
X129552819Y-41776262D01*
X129492735Y-41790885D01*
X129427108Y-41802555D01*
X129353284Y-41811601D01*
X129268606Y-41818351D01*
X129170417Y-41823133D01*
X129056061Y-41826278D01*
X128922881Y-41828112D01*
X128768222Y-41828965D01*
X128598661Y-41829166D01*
X127940833Y-41829166D01*
X127940833Y-41311138D01*
X128604166Y-41305979D01*
X128755055Y-41304759D01*
X128881826Y-41303572D01*
X128987029Y-41302305D01*
X129073213Y-41300844D01*
X129142927Y-41299076D01*
X129198721Y-41296888D01*
X129243142Y-41294166D01*
X129278742Y-41290798D01*
X129308067Y-41286669D01*
X129333669Y-41281668D01*
X129358095Y-41275679D01*
X129372217Y-41271851D01*
X129513028Y-41219610D01*
X129639567Y-41145683D01*
X129749939Y-41052001D01*
X129842249Y-40940497D01*
X129914603Y-40813104D01*
X129965107Y-40671755D01*
X129966790Y-40665275D01*
X129976885Y-40615099D01*
X129987097Y-40545553D01*
X129996521Y-40463916D01*
X130004250Y-40377466D01*
X130006452Y-40346432D01*
X130020772Y-40188416D01*
X130042440Y-40049953D01*
X130072969Y-39924578D01*
X130113873Y-39805823D01*
X130155194Y-39711008D01*
X130249587Y-39539828D01*
X130360867Y-39389284D01*
X130489043Y-39259370D01*
X130634123Y-39150080D01*
X130796114Y-39061407D01*
X130975024Y-38993346D01*
X131120833Y-38955713D01*
X131270182Y-38933199D01*
X131433325Y-38924405D01*
X131601322Y-38929104D01*
G37*
X131601322Y-38929104D02*
X131765238Y-38947073D01*
X131906107Y-38975477D01*
X132084748Y-39034352D01*
X132249451Y-39115452D01*
X132399082Y-39217610D01*
X132532507Y-39339657D01*
X132648593Y-39480428D01*
X132746206Y-39638755D01*
X132824212Y-39813471D01*
X132873569Y-39971323D01*
X132911673Y-40168891D01*
X132926425Y-40370483D01*
X132918327Y-40572395D01*
X132887882Y-40770921D01*
X132835593Y-40962354D01*
X132761962Y-41142989D01*
X132698916Y-41259493D01*
X132668551Y-41309819D01*
X132834166Y-41475833D01*
X132999781Y-41641846D01*
X132960434Y-41682916D01*
X132927767Y-41710164D01*
X132881136Y-41740953D01*
X132834573Y-41766576D01*
X132790805Y-41786950D01*
X132754438Y-41799530D01*
X132716274Y-41806134D01*
X132667116Y-41808581D01*
X132621113Y-41808795D01*
X132556907Y-41807604D01*
X132510484Y-41803408D01*
X132472995Y-41794606D01*
X132435594Y-41779597D01*
X132420833Y-41772555D01*
X132374714Y-41748149D01*
X132333474Y-41723218D01*
X132313540Y-41709010D01*
X132279580Y-41681335D01*
X132173540Y-41733692D01*
X132046388Y-41789914D01*
X131919866Y-41831523D01*
X131787808Y-41859787D01*
X131644048Y-41875975D01*
X131482421Y-41881353D01*
X131455753Y-41881303D01*
X131374157Y-41879541D01*
X131291755Y-41875551D01*
X131217014Y-41869882D01*
X131158400Y-41863084D01*
X131147500Y-41861314D01*
X131009797Y-41829419D01*
X130872214Y-41783451D01*
X130742180Y-41726482D01*
X130627128Y-41661586D01*
X130573213Y-41623847D01*
X130519802Y-41581671D01*
X130472614Y-41541843D01*
X130436626Y-41508742D01*
X130416817Y-41486745D01*
X130416179Y-41485756D01*
X130419215Y-41469067D01*
X130434679Y-41435752D01*
X130459863Y-41391144D01*
X130482507Y-41355012D01*
X130515079Y-41301893D01*
X130549665Y-41240257D01*
X130583630Y-41175456D01*
X130614339Y-41112843D01*
X130639154Y-41057772D01*
X130655441Y-41015595D01*
X130660626Y-40993286D01*
X130666668Y-40973276D01*
X130683913Y-40977389D01*
X130712290Y-41005583D01*
X130740896Y-41042587D01*
X130836252Y-41151760D01*
X130950364Y-41242093D01*
X131082838Y-41313305D01*
X131160833Y-41343358D01*
X131275581Y-41372109D01*
X131403270Y-41387016D01*
X131533819Y-41387689D01*
X131657146Y-41373739D01*
X131701245Y-41364217D01*
X131848129Y-41314408D01*
X131980297Y-41243268D01*
X132096522Y-41152471D01*
X132195578Y-41043689D01*
X132276239Y-40918595D01*
X132337279Y-40778860D01*
X132377472Y-40626158D01*
X132395591Y-40462160D01*
X132396540Y-40415833D01*
X132386168Y-40233253D01*
X132354388Y-40066547D01*
X132301181Y-39915659D01*
X132226528Y-39780536D01*
X132130408Y-39661122D01*
X132119053Y-39649476D01*
X132014754Y-39562809D01*
X131893427Y-39494060D01*
X131758643Y-39444212D01*
X131613974Y-39414252D01*
X131462993Y-39405162D01*
X131309272Y-39417929D01*
X131290377Y-39421052D01*
X131136892Y-39459213D01*
X131001051Y-39517268D01*
X130882263Y-39595648D01*
X130779941Y-39694787D01*
X130693495Y-39815116D01*
X130653155Y-39889166D01*
X130607935Y-39989383D01*
X130576013Y-40083014D01*
X130555557Y-40178381D01*
X130544736Y-40283806D01*
X130541719Y-40395482D01*
X130529585Y-40599783D01*
X130494406Y-40794044D01*
X130436734Y-40976764D01*
X130357126Y-41146439D01*
X130256136Y-41301570D01*
X130168547Y-41405498D01*
X130068707Y-41503083D01*
X129967552Y-41582086D01*
X129855726Y-41649349D01*
X129790874Y-41681665D01*
X129726390Y-41711387D01*
X129666991Y-41736842D01*
X129610019Y-41758357D01*
X129552819Y-41776262D01*
X129492735Y-41790885D01*
X129427108Y-41802555D01*
X129353284Y-41811601D01*
X129268606Y-41818351D01*
X129170417Y-41823133D01*
X129056061Y-41826278D01*
X128922881Y-41828112D01*
X128768222Y-41828965D01*
X128598661Y-41829166D01*
X127940833Y-41829166D01*
X127940833Y-41311138D01*
X128604166Y-41305979D01*
X128755055Y-41304759D01*
X128881826Y-41303572D01*
X128987029Y-41302305D01*
X129073213Y-41300844D01*
X129142927Y-41299076D01*
X129198721Y-41296888D01*
X129243142Y-41294166D01*
X129278742Y-41290798D01*
X129308067Y-41286669D01*
X129333669Y-41281668D01*
X129358095Y-41275679D01*
X129372217Y-41271851D01*
X129513028Y-41219610D01*
X129639567Y-41145683D01*
X129749939Y-41052001D01*
X129842249Y-40940497D01*
X129914603Y-40813104D01*
X129965107Y-40671755D01*
X129966790Y-40665275D01*
X129976885Y-40615099D01*
X129987097Y-40545553D01*
X129996521Y-40463916D01*
X130004250Y-40377466D01*
X130006452Y-40346432D01*
X130020772Y-40188416D01*
X130042440Y-40049953D01*
X130072969Y-39924578D01*
X130113873Y-39805823D01*
X130155194Y-39711008D01*
X130249587Y-39539828D01*
X130360867Y-39389284D01*
X130489043Y-39259370D01*
X130634123Y-39150080D01*
X130796114Y-39061407D01*
X130975024Y-38993346D01*
X131120833Y-38955713D01*
X131270182Y-38933199D01*
X131433325Y-38924405D01*
X131601322Y-38929104D01*
G36*
X130549982Y-34451990D02*
G01*
X130662009Y-34455515D01*
X130777838Y-34460942D01*
X130891728Y-34467907D01*
X130997935Y-34476045D01*
X131090719Y-34484993D01*
X131164337Y-34494388D01*
X131182171Y-34497299D01*
X131270175Y-34512724D01*
X131440639Y-35024250D01*
X131611104Y-35535775D01*
X131665968Y-35550282D01*
X131707669Y-35561579D01*
X131762547Y-35576795D01*
X131814166Y-35591346D01*
X131868384Y-35606759D01*
X131919227Y-35621189D01*
X131954166Y-35631081D01*
X132016332Y-35650183D01*
X132093962Y-35676289D01*
X132178485Y-35706302D01*
X132261330Y-35737122D01*
X132333927Y-35765650D01*
X132377895Y-35784304D01*
X132417470Y-35801379D01*
X132446785Y-35812829D01*
X132457333Y-35815833D01*
X132474641Y-35821795D01*
X132511153Y-35838228D01*
X132562597Y-35862950D01*
X132624702Y-35893780D01*
X132693197Y-35928539D01*
X132763810Y-35965043D01*
X132832270Y-36001114D01*
X132894307Y-36034569D01*
X132945648Y-36063228D01*
X132971302Y-36078275D01*
X133021038Y-36107853D01*
X133062243Y-36131381D01*
X133089667Y-36145917D01*
X133097847Y-36149166D01*
X133111454Y-36143394D01*
X133146292Y-36126928D01*
X133199763Y-36101041D01*
X133269269Y-36067007D01*
X133352210Y-36026101D01*
X133445990Y-35979597D01*
X133548008Y-35928768D01*
X133580565Y-35912500D01*
X133684593Y-35860492D01*
X133781139Y-35812242D01*
X133867608Y-35769046D01*
X133941404Y-35732200D01*
X133999930Y-35703000D01*
X134040591Y-35682741D01*
X134060791Y-35672721D01*
X134062484Y-35671900D01*
X134075833Y-35678184D01*
X134105462Y-35698395D01*
X134147208Y-35729335D01*
X134196909Y-35767805D01*
X134250404Y-35810608D01*
X134303531Y-35854544D01*
X134334166Y-35880696D01*
X134425830Y-35962151D01*
X134520433Y-36049985D01*
X134616079Y-36142129D01*
X134710875Y-36236509D01*
X134802926Y-36331055D01*
X134890337Y-36423695D01*
X134971213Y-36512358D01*
X135043661Y-36594973D01*
X135105785Y-36669467D01*
X135155691Y-36733769D01*
X135191485Y-36785808D01*
X135211271Y-36823512D01*
X135214077Y-36842779D01*
X135206408Y-36860214D01*
X135188120Y-36898673D01*
X135160584Y-36955360D01*
X135125174Y-37027483D01*
X135083261Y-37112245D01*
X135036220Y-37206854D01*
X134985421Y-37308513D01*
X134980236Y-37318862D01*
X134929395Y-37420945D01*
X134882546Y-37516223D01*
X134841011Y-37601917D01*
X134806111Y-37675246D01*
X134779169Y-37733429D01*
X134761506Y-37773686D01*
X134754444Y-37793236D01*
X134754372Y-37793981D01*
X134760880Y-37815827D01*
X134778503Y-37853749D01*
X134804096Y-37901290D01*
X134819297Y-37927314D01*
X134846188Y-37974534D01*
X134881190Y-38039483D01*
X134921350Y-38116323D01*
X134963717Y-38199217D01*
X135005339Y-38282327D01*
X135043263Y-38359816D01*
X135074537Y-38425845D01*
X135096210Y-38474576D01*
X135097032Y-38476557D01*
X135181293Y-38694950D01*
X135257758Y-38920915D01*
X135315015Y-39115833D01*
X135331785Y-39177153D01*
X135346136Y-39228372D01*
X135356619Y-39264409D01*
X135361786Y-39280180D01*
X135361929Y-39280418D01*
X135374941Y-39285513D01*
X135410551Y-39298128D01*
X135466063Y-39317342D01*
X135538778Y-39342231D01*
X135626001Y-39371874D01*
X135725033Y-39405351D01*
X135833179Y-39441738D01*
X135873646Y-39455313D01*
X135984469Y-39492543D01*
X136087202Y-39527213D01*
X136179140Y-39558399D01*
X136257574Y-39585176D01*
X136319798Y-39606617D01*
X136363104Y-39621797D01*
X136384787Y-39629791D01*
X136386773Y-39630728D01*
X136391445Y-39647465D01*
X136397306Y-39687260D01*
X136404025Y-39746549D01*
X136411273Y-39821764D01*
X136418721Y-39909342D01*
X136426038Y-40005718D01*
X136432895Y-40107325D01*
X136436767Y-40171336D01*
X136443190Y-40357651D01*
X136442455Y-40560598D01*
X136434850Y-40771202D01*
X136420663Y-40980488D01*
X136406103Y-41129166D01*
X136391131Y-41262500D01*
X135929315Y-41415282D01*
X135795004Y-41459669D01*
X135683716Y-41496517D01*
X135593215Y-41526827D01*
X135521262Y-41551597D01*
X135465619Y-41571830D01*
X135424048Y-41588524D01*
X135394310Y-41602680D01*
X135374167Y-41615298D01*
X135361382Y-41627378D01*
X135353716Y-41639921D01*
X135348930Y-41653927D01*
X135344788Y-41670395D01*
X135342972Y-41677304D01*
X135310077Y-41794293D01*
X135277016Y-41906174D01*
X135245154Y-42008661D01*
X135215854Y-42097474D01*
X135190478Y-42168329D01*
X135173038Y-42211181D01*
X135160151Y-42243894D01*
X135154211Y-42266902D01*
X135154166Y-42268029D01*
X135148142Y-42291456D01*
X135141334Y-42306014D01*
X135128255Y-42332118D01*
X135110632Y-42370340D01*
X135091790Y-42413036D01*
X135075054Y-42452560D01*
X135063748Y-42481269D01*
X135060833Y-42491095D01*
X135054936Y-42507621D01*
X135038718Y-42543318D01*
X135014384Y-42593815D01*
X134984140Y-42654743D01*
X134950194Y-42721731D01*
X134914750Y-42790409D01*
X134880015Y-42856408D01*
X134848196Y-42915357D01*
X134831296Y-42945749D01*
X134800933Y-43000978D01*
X134776197Y-43048757D01*
X134759734Y-43083781D01*
X134754166Y-43100340D01*
X134759956Y-43115885D01*
X134776469Y-43152575D01*
X134802422Y-43207744D01*
X134836531Y-43278727D01*
X134877513Y-43362857D01*
X134924083Y-43457469D01*
X134974957Y-43559896D01*
X134989522Y-43589060D01*
X135058617Y-43728286D01*
X135115010Y-43844178D01*
X135158694Y-43936721D01*
X135189661Y-44005895D01*
X135207902Y-44051684D01*
X135213409Y-44074071D01*
X135212855Y-44075932D01*
X135197289Y-44097686D01*
X135175854Y-44128514D01*
X135174402Y-44130629D01*
X135125155Y-44196971D01*
X135059348Y-44277441D01*
X134980369Y-44368469D01*
X134891605Y-44466485D01*
X134796443Y-44567919D01*
X134698269Y-44669199D01*
X134600470Y-44766756D01*
X134506434Y-44857018D01*
X134419546Y-44936416D01*
X134367131Y-44981661D01*
X134318200Y-45022881D01*
X134276968Y-45058027D01*
X134247622Y-45083503D01*
X134234348Y-45095710D01*
X134234166Y-45095926D01*
X134219372Y-45109077D01*
X134190506Y-45131348D01*
X134154284Y-45157925D01*
X134117422Y-45183992D01*
X134086638Y-45204733D01*
X134068648Y-45215332D01*
X134066928Y-45215833D01*
X134053538Y-45210075D01*
X134018914Y-45193656D01*
X133965664Y-45167853D01*
X133896398Y-45133944D01*
X133813726Y-45093210D01*
X133720256Y-45046927D01*
X133618598Y-44996376D01*
X133590765Y-44982500D01*
X133487003Y-44930953D01*
X133390374Y-44883354D01*
X133303547Y-44840987D01*
X133229194Y-44805138D01*
X133169982Y-44777090D01*
X133128583Y-44758130D01*
X133107666Y-44749542D01*
X133105944Y-44749166D01*
X133085565Y-44755227D01*
X133050949Y-44770500D01*
X133010811Y-44790616D01*
X132973865Y-44811211D01*
X132948899Y-44827857D01*
X132932120Y-44838028D01*
X132896917Y-44857133D01*
X132848057Y-44882759D01*
X132790310Y-44912496D01*
X132728445Y-44943933D01*
X132667229Y-44974659D01*
X132611432Y-45002263D01*
X132565822Y-45024333D01*
X132535168Y-45038460D01*
X132524531Y-45042424D01*
X132508073Y-45047672D01*
X132475483Y-45061168D01*
X132444531Y-45075075D01*
X132331768Y-45123679D01*
X132199780Y-45174542D01*
X132055594Y-45225250D01*
X131906238Y-45273388D01*
X131758739Y-45316542D01*
X131682576Y-45336861D01*
X131640116Y-45350793D01*
X131615502Y-45368853D01*
X131601008Y-45394678D01*
X131593096Y-45416445D01*
X131577843Y-45460433D01*
X131556295Y-45523552D01*
X131529498Y-45602709D01*
X131498500Y-45694812D01*
X131464346Y-45796771D01*
X131428083Y-45905492D01*
X131426060Y-45911570D01*
X131267756Y-46387306D01*
X131154294Y-46396349D01*
X131092810Y-46402094D01*
X131033330Y-46409071D01*
X130987105Y-46415934D01*
X130980833Y-46417098D01*
X130946918Y-46421099D01*
X130890683Y-46424750D01*
X130816469Y-46427986D01*
X130728623Y-46430747D01*
X130631486Y-46432970D01*
X130529403Y-46434593D01*
X130426718Y-46435554D01*
X130327775Y-46435791D01*
X130236917Y-46435241D01*
X130158489Y-46433843D01*
X130096833Y-46431535D01*
X130074166Y-46430061D01*
X130002501Y-46423968D01*
X129926256Y-46416836D01*
X129850157Y-46409182D01*
X129778933Y-46401525D01*
X129717312Y-46394384D01*
X129670021Y-46388278D01*
X129641789Y-46383726D01*
X129635994Y-46381986D01*
X129630824Y-46368687D01*
X129618249Y-46332929D01*
X129599240Y-46277571D01*
X129574768Y-46205470D01*
X129545801Y-46119486D01*
X129513312Y-46022475D01*
X129479128Y-45919883D01*
X129434450Y-45785217D01*
X129397436Y-45673579D01*
X129367123Y-45582766D01*
X129342546Y-45510574D01*
X129322741Y-45454801D01*
X129306744Y-45413241D01*
X129293590Y-45383693D01*
X129282315Y-45363952D01*
X129271956Y-45351815D01*
X129261547Y-45345078D01*
X129250124Y-45341538D01*
X129236724Y-45338992D01*
X129223672Y-45336122D01*
X129136449Y-45313069D01*
X129051669Y-45289710D01*
X128973577Y-45267308D01*
X128906420Y-45247121D01*
X128854444Y-45230411D01*
X128821895Y-45218438D01*
X128814166Y-45214576D01*
X128792843Y-45205849D01*
X128758597Y-45196555D01*
X128754604Y-45195677D01*
X128717192Y-45185793D01*
X128689151Y-45175244D01*
X128687937Y-45174605D01*
X128654934Y-45158277D01*
X128613692Y-45140079D01*
X128572824Y-45123535D01*
X128540944Y-45112170D01*
X128528050Y-45109166D01*
X128505071Y-45103294D01*
X128490652Y-45096699D01*
X128471450Y-45087051D01*
X128432585Y-45068041D01*
X128378455Y-45041802D01*
X128313458Y-45010467D01*
X128254166Y-44982002D01*
X128174820Y-44943178D01*
X128094626Y-44902533D01*
X128020548Y-44863695D01*
X127959552Y-44830288D01*
X127932314Y-44814470D01*
X127882364Y-44785943D01*
X127838711Y-44763784D01*
X127807807Y-44751141D01*
X127798981Y-44749372D01*
X127781792Y-44755231D01*
X127743600Y-44771831D01*
X127687188Y-44797851D01*
X127615335Y-44831969D01*
X127530822Y-44872862D01*
X127436429Y-44919210D01*
X127334936Y-44969690D01*
X127323862Y-44975236D01*
X127221634Y-45026341D01*
X127126160Y-45073831D01*
X127040238Y-45116333D01*
X126966667Y-45152472D01*
X126908244Y-45180874D01*
X126867767Y-45200167D01*
X126848035Y-45208975D01*
X126847321Y-45209223D01*
X126822666Y-45204719D01*
X126782230Y-45182283D01*
X126728015Y-45143850D01*
X126662025Y-45091360D01*
X126586262Y-45026749D01*
X126502729Y-44951955D01*
X126413428Y-44868916D01*
X126320363Y-44779569D01*
X126225535Y-44685852D01*
X126130947Y-44589703D01*
X126038603Y-44493059D01*
X125950504Y-44397858D01*
X125868654Y-44306037D01*
X125795055Y-44219534D01*
X125731710Y-44140287D01*
X125703423Y-44102500D01*
X125674309Y-44062500D01*
X125914238Y-43584020D01*
X125966569Y-43479415D01*
X126014964Y-43382210D01*
X126058153Y-43294990D01*
X126094866Y-43220341D01*
X126123833Y-43160850D01*
X126143784Y-43119102D01*
X126153449Y-43097683D01*
X126154166Y-43095473D01*
X126147760Y-43080538D01*
X126130416Y-43047895D01*
X126104943Y-43002680D01*
X126080434Y-42960629D01*
X126022201Y-42858591D01*
X125966371Y-42753061D01*
X125911058Y-42639968D01*
X125854372Y-42515245D01*
X125794428Y-42374825D01*
X125729336Y-42214637D01*
X125700799Y-42142500D01*
X125677683Y-42078645D01*
X125650817Y-41996338D01*
X125622485Y-41903103D01*
X125594970Y-41806464D01*
X125570552Y-41713943D01*
X125569355Y-41709166D01*
X125544372Y-41609166D01*
X125085936Y-41455428D01*
X124980395Y-41419939D01*
X124882695Y-41386904D01*
X124795757Y-41357325D01*
X124722505Y-41332205D01*
X124665861Y-41312544D01*
X124628748Y-41299346D01*
X124614166Y-41293662D01*
X124592419Y-41285333D01*
X124559525Y-41276786D01*
X124537283Y-41270305D01*
X124523307Y-41258390D01*
X124513868Y-41234582D01*
X124505241Y-41192424D01*
X124502824Y-41178552D01*
X124494182Y-41116730D01*
X124485545Y-41034052D01*
X124477290Y-40936327D01*
X124469795Y-40829362D01*
X124463439Y-40718966D01*
X124458598Y-40610948D01*
X124455653Y-40511115D01*
X124455228Y-40471632D01*
X126352833Y-40471632D01*
X126354627Y-40606206D01*
X126358878Y-40734090D01*
X126365582Y-40849750D01*
X126374738Y-40947648D01*
X126381269Y-40994720D01*
X126404546Y-41132100D01*
X126427114Y-41254810D01*
X126448306Y-41359481D01*
X126467459Y-41442743D01*
X126476215Y-41475833D01*
X126492886Y-41535395D01*
X126509846Y-41596610D01*
X126521562Y-41639394D01*
X126536325Y-41687668D01*
X126558830Y-41753833D01*
X126586578Y-41831156D01*
X126617073Y-41912903D01*
X126647817Y-41992343D01*
X126676313Y-42062742D01*
X126693346Y-42102500D01*
X126824399Y-42370101D01*
X126977450Y-42633000D01*
X127147971Y-42883773D01*
X127254428Y-43022398D01*
X127376460Y-43164826D01*
X127517926Y-43313659D01*
X127674023Y-43464180D01*
X127839949Y-43611671D01*
X127934166Y-43690204D01*
X127976834Y-43722866D01*
X128036211Y-43765557D01*
X128106339Y-43814260D01*
X128181260Y-43864957D01*
X128255015Y-43913631D01*
X128321648Y-43956265D01*
X128375199Y-43988840D01*
X128387500Y-43995871D01*
X128487164Y-44051111D01*
X128568801Y-44095135D01*
X128637259Y-44130436D01*
X128697384Y-44159503D01*
X128754025Y-44184827D01*
X128761035Y-44187826D01*
X128815258Y-44211001D01*
X128864843Y-44232351D01*
X128901040Y-44248104D01*
X128907500Y-44250961D01*
X128949505Y-44268114D01*
X129009788Y-44290758D01*
X129081188Y-44316385D01*
X129156542Y-44342484D01*
X129228690Y-44366547D01*
X129290472Y-44386065D01*
X129307500Y-44391120D01*
X129365451Y-44407223D01*
X129427156Y-44422762D01*
X129498386Y-44439062D01*
X129584908Y-44457450D01*
X129680833Y-44476921D01*
X129892881Y-44511722D01*
X130119673Y-44535156D01*
X130352786Y-44546911D01*
X130583802Y-44546679D01*
X130804299Y-44534147D01*
X130914166Y-44522394D01*
X131023101Y-44508010D01*
X131117610Y-44494039D01*
X131208356Y-44478707D01*
X131306003Y-44460235D01*
X131394166Y-44442434D01*
X131454496Y-44428355D01*
X131529718Y-44408325D01*
X131612875Y-44384452D01*
X131697008Y-44358846D01*
X131775161Y-44333617D01*
X131840375Y-44310873D01*
X131880833Y-44294898D01*
X131907833Y-44283787D01*
X131949129Y-44267522D01*
X131980833Y-44255329D01*
X132153137Y-44182784D01*
X132335321Y-44093330D01*
X132520502Y-43990800D01*
X132701795Y-43879023D01*
X132872318Y-43761832D01*
X132887500Y-43750709D01*
X133027793Y-43640466D01*
X133174419Y-43512795D01*
X133321852Y-43373222D01*
X133464565Y-43227271D01*
X133597033Y-43080468D01*
X133713729Y-42938337D01*
X133755877Y-42882500D01*
X133862729Y-42728666D01*
X133966515Y-42563805D01*
X134063695Y-42394279D01*
X134150726Y-42226450D01*
X134224068Y-42066679D01*
X134260594Y-41975833D01*
X134277820Y-41930849D01*
X134292891Y-41892708D01*
X134299898Y-41875833D01*
X134319702Y-41824943D01*
X134343740Y-41754484D01*
X134370094Y-41670836D01*
X134396845Y-41580376D01*
X134422077Y-41489484D01*
X134443871Y-41404538D01*
X134452225Y-41369166D01*
X134496395Y-41140190D01*
X134528397Y-40897619D01*
X134547761Y-40649193D01*
X134554019Y-40402653D01*
X134546698Y-40165740D01*
X134534214Y-40018529D01*
X134525174Y-39937971D01*
X134517030Y-39872618D01*
X134508467Y-39814280D01*
X134498170Y-39754769D01*
X134484826Y-39685894D01*
X134467119Y-39599466D01*
X134466364Y-39595833D01*
X134441840Y-39487268D01*
X134412216Y-39371391D01*
X134379338Y-39254373D01*
X134345048Y-39142388D01*
X134311191Y-39041607D01*
X134279613Y-38958204D01*
X134267168Y-38929166D01*
X134252704Y-38895977D01*
X134232717Y-38848820D01*
X134213437Y-38802500D01*
X134185379Y-38738936D01*
X134147495Y-38659487D01*
X134103379Y-38571308D01*
X134056626Y-38481557D01*
X134010830Y-38397389D01*
X134002467Y-38382500D01*
X133880387Y-38185238D01*
X133736750Y-37985474D01*
X133575729Y-37787701D01*
X133401500Y-37596413D01*
X133218237Y-37416104D01*
X133030115Y-37251269D01*
X132841307Y-37106403D01*
X132774166Y-37060134D01*
X132722466Y-37025584D01*
X132671755Y-36991631D01*
X132631899Y-36964881D01*
X132627500Y-36961920D01*
X132529455Y-36901040D01*
X132408846Y-36834874D01*
X132268872Y-36765014D01*
X132112733Y-36693054D01*
X131943629Y-36620587D01*
X131934166Y-36616680D01*
X131812796Y-36570590D01*
X131683536Y-36528166D01*
X131600833Y-36504644D01*
X131573390Y-36497063D01*
X131531432Y-36485097D01*
X131500833Y-36476229D01*
X131392817Y-36448346D01*
X131264313Y-36421296D01*
X131121497Y-36396201D01*
X130970546Y-36374185D01*
X130874166Y-36362412D01*
X130819327Y-36358114D01*
X130743238Y-36354782D01*
X130651301Y-36352418D01*
X130548914Y-36351024D01*
X130441480Y-36350603D01*
X130334396Y-36351158D01*
X130233065Y-36352690D01*
X130142885Y-36355202D01*
X130069258Y-36358698D01*
X130027500Y-36362033D01*
X129848583Y-36383710D01*
X129683525Y-36410401D01*
X129523719Y-36443980D01*
X129360559Y-36486324D01*
X129185438Y-36539308D01*
X129127500Y-36558146D01*
X129067859Y-36578064D01*
X129015549Y-36595996D01*
X128977061Y-36609693D01*
X128960833Y-36615976D01*
X128934606Y-36627511D01*
X128893850Y-36645496D01*
X128857104Y-36661739D01*
X128815781Y-36679478D01*
X128784711Y-36691808D01*
X128771685Y-36695833D01*
X128751098Y-36702372D01*
X128711546Y-36720555D01*
X128656882Y-36748228D01*
X128590962Y-36783236D01*
X128517639Y-36823425D01*
X128440769Y-36866642D01*
X128364205Y-36910732D01*
X128291801Y-36953542D01*
X128227413Y-36992918D01*
X128174895Y-37026706D01*
X128154166Y-37040920D01*
X128113277Y-37069618D01*
X128075851Y-37095507D01*
X128060833Y-37105705D01*
X127963608Y-37176399D01*
X127855115Y-37264869D01*
X127739405Y-37367064D01*
X127620528Y-37478932D01*
X127502535Y-37596423D01*
X127389478Y-37715485D01*
X127285408Y-37832066D01*
X127194376Y-37942116D01*
X127120432Y-38041584D01*
X127110735Y-38055833D01*
X127089096Y-38087483D01*
X127061223Y-38127511D01*
X127050668Y-38142500D01*
X126963062Y-38275894D01*
X126874167Y-38428625D01*
X126787279Y-38593865D01*
X126705698Y-38764787D01*
X126632720Y-38934566D01*
X126571643Y-39096374D01*
X126535403Y-39209166D01*
X126520878Y-39257778D01*
X126507523Y-39300624D01*
X126500269Y-39322500D01*
X126485817Y-39370726D01*
X126468414Y-39440579D01*
X126449057Y-39527314D01*
X126428740Y-39626183D01*
X126408459Y-39732440D01*
X126389209Y-39841341D01*
X126380788Y-39892169D01*
X126370265Y-39977155D01*
X126362211Y-40083129D01*
X126356622Y-40204558D01*
X126353497Y-40335904D01*
X126352833Y-40471632D01*
X124455228Y-40471632D01*
X124454913Y-40442500D01*
X124456100Y-40356257D01*
X124459382Y-40258027D01*
X124464397Y-40153131D01*
X124470785Y-40046891D01*
X124478186Y-39944627D01*
X124486239Y-39851661D01*
X124494584Y-39773315D01*
X124502860Y-39714910D01*
X124504980Y-39703528D01*
X124520833Y-39624556D01*
X125023610Y-39456861D01*
X125134248Y-39419733D01*
X125237066Y-39384793D01*
X125329285Y-39353020D01*
X125408127Y-39325388D01*
X125470814Y-39302876D01*
X125514567Y-39286459D01*
X125536607Y-39277115D01*
X125538573Y-39275833D01*
X125547299Y-39257095D01*
X125559226Y-39219750D01*
X125572010Y-39171273D01*
X125574092Y-39162500D01*
X125592456Y-39092013D01*
X125618447Y-39003504D01*
X125649863Y-38903739D01*
X125684501Y-38799486D01*
X125720161Y-38697512D01*
X125754641Y-38604583D01*
X125760620Y-38589166D01*
X125789440Y-38519463D01*
X125826918Y-38434798D01*
X125870426Y-38340574D01*
X125917341Y-38242191D01*
X125965037Y-38145048D01*
X126010890Y-38054549D01*
X126052274Y-37976092D01*
X126086564Y-37915079D01*
X126095259Y-37900686D01*
X126122252Y-37855769D01*
X126142697Y-37819236D01*
X126153263Y-37797135D01*
X126154014Y-37794019D01*
X126148192Y-37779957D01*
X126131641Y-37744677D01*
X126105634Y-37690777D01*
X126071442Y-37620852D01*
X126030337Y-37537499D01*
X125983591Y-37443316D01*
X125932475Y-37340897D01*
X125914090Y-37304188D01*
X125674317Y-36825876D01*
X125743413Y-36737521D01*
X125953083Y-36485849D01*
X126183471Y-36239428D01*
X126428636Y-36004161D01*
X126682639Y-35785946D01*
X126775929Y-35712057D01*
X126831026Y-35669412D01*
X127311840Y-35909289D01*
X127416726Y-35961505D01*
X127514176Y-36009804D01*
X127601613Y-36052925D01*
X127676458Y-36089605D01*
X127736133Y-36118584D01*
X127778059Y-36138599D01*
X127799659Y-36148388D01*
X127801970Y-36149166D01*
X127817063Y-36142535D01*
X127848113Y-36125068D01*
X127888681Y-36100404D01*
X127892725Y-36097864D01*
X127944171Y-36067579D01*
X128014276Y-36029291D01*
X128097342Y-35985850D01*
X128187668Y-35940106D01*
X128279557Y-35894908D01*
X128367309Y-35853105D01*
X128445224Y-35817548D01*
X128500833Y-35793806D01*
X128554398Y-35771933D01*
X128600980Y-35752642D01*
X128633255Y-35738977D01*
X128640833Y-35735624D01*
X128666386Y-35725817D01*
X128712284Y-35709999D01*
X128773329Y-35689816D01*
X128844321Y-35666912D01*
X128920061Y-35642934D01*
X128995351Y-35619526D01*
X129064992Y-35598335D01*
X129123784Y-35581005D01*
X129166530Y-35569183D01*
X129167500Y-35568933D01*
X129214817Y-35556100D01*
X129253282Y-35544435D01*
X129273372Y-35536972D01*
X129281781Y-35522476D01*
X129297470Y-35485235D01*
X129319484Y-35427870D01*
X129346869Y-35352999D01*
X129378672Y-35263243D01*
X129413938Y-35161221D01*
X129451713Y-35049553D01*
X129461066Y-35021548D01*
X129629556Y-34515833D01*
X129708528Y-34499962D01*
X129766057Y-34490851D01*
X129844911Y-34481875D01*
X129939748Y-34473390D01*
X130045228Y-34465752D01*
X130156009Y-34459318D01*
X130266750Y-34454442D01*
X130372111Y-34451481D01*
X130447500Y-34450730D01*
X130549982Y-34451990D01*
G37*
X130549982Y-34451990D02*
X130662009Y-34455515D01*
X130777838Y-34460942D01*
X130891728Y-34467907D01*
X130997935Y-34476045D01*
X131090719Y-34484993D01*
X131164337Y-34494388D01*
X131182171Y-34497299D01*
X131270175Y-34512724D01*
X131440639Y-35024250D01*
X131611104Y-35535775D01*
X131665968Y-35550282D01*
X131707669Y-35561579D01*
X131762547Y-35576795D01*
X131814166Y-35591346D01*
X131868384Y-35606759D01*
X131919227Y-35621189D01*
X131954166Y-35631081D01*
X132016332Y-35650183D01*
X132093962Y-35676289D01*
X132178485Y-35706302D01*
X132261330Y-35737122D01*
X132333927Y-35765650D01*
X132377895Y-35784304D01*
X132417470Y-35801379D01*
X132446785Y-35812829D01*
X132457333Y-35815833D01*
X132474641Y-35821795D01*
X132511153Y-35838228D01*
X132562597Y-35862950D01*
X132624702Y-35893780D01*
X132693197Y-35928539D01*
X132763810Y-35965043D01*
X132832270Y-36001114D01*
X132894307Y-36034569D01*
X132945648Y-36063228D01*
X132971302Y-36078275D01*
X133021038Y-36107853D01*
X133062243Y-36131381D01*
X133089667Y-36145917D01*
X133097847Y-36149166D01*
X133111454Y-36143394D01*
X133146292Y-36126928D01*
X133199763Y-36101041D01*
X133269269Y-36067007D01*
X133352210Y-36026101D01*
X133445990Y-35979597D01*
X133548008Y-35928768D01*
X133580565Y-35912500D01*
X133684593Y-35860492D01*
X133781139Y-35812242D01*
X133867608Y-35769046D01*
X133941404Y-35732200D01*
X133999930Y-35703000D01*
X134040591Y-35682741D01*
X134060791Y-35672721D01*
X134062484Y-35671900D01*
X134075833Y-35678184D01*
X134105462Y-35698395D01*
X134147208Y-35729335D01*
X134196909Y-35767805D01*
X134250404Y-35810608D01*
X134303531Y-35854544D01*
X134334166Y-35880696D01*
X134425830Y-35962151D01*
X134520433Y-36049985D01*
X134616079Y-36142129D01*
X134710875Y-36236509D01*
X134802926Y-36331055D01*
X134890337Y-36423695D01*
X134971213Y-36512358D01*
X135043661Y-36594973D01*
X135105785Y-36669467D01*
X135155691Y-36733769D01*
X135191485Y-36785808D01*
X135211271Y-36823512D01*
X135214077Y-36842779D01*
X135206408Y-36860214D01*
X135188120Y-36898673D01*
X135160584Y-36955360D01*
X135125174Y-37027483D01*
X135083261Y-37112245D01*
X135036220Y-37206854D01*
X134985421Y-37308513D01*
X134980236Y-37318862D01*
X134929395Y-37420945D01*
X134882546Y-37516223D01*
X134841011Y-37601917D01*
X134806111Y-37675246D01*
X134779169Y-37733429D01*
X134761506Y-37773686D01*
X134754444Y-37793236D01*
X134754372Y-37793981D01*
X134760880Y-37815827D01*
X134778503Y-37853749D01*
X134804096Y-37901290D01*
X134819297Y-37927314D01*
X134846188Y-37974534D01*
X134881190Y-38039483D01*
X134921350Y-38116323D01*
X134963717Y-38199217D01*
X135005339Y-38282327D01*
X135043263Y-38359816D01*
X135074537Y-38425845D01*
X135096210Y-38474576D01*
X135097032Y-38476557D01*
X135181293Y-38694950D01*
X135257758Y-38920915D01*
X135315015Y-39115833D01*
X135331785Y-39177153D01*
X135346136Y-39228372D01*
X135356619Y-39264409D01*
X135361786Y-39280180D01*
X135361929Y-39280418D01*
X135374941Y-39285513D01*
X135410551Y-39298128D01*
X135466063Y-39317342D01*
X135538778Y-39342231D01*
X135626001Y-39371874D01*
X135725033Y-39405351D01*
X135833179Y-39441738D01*
X135873646Y-39455313D01*
X135984469Y-39492543D01*
X136087202Y-39527213D01*
X136179140Y-39558399D01*
X136257574Y-39585176D01*
X136319798Y-39606617D01*
X136363104Y-39621797D01*
X136384787Y-39629791D01*
X136386773Y-39630728D01*
X136391445Y-39647465D01*
X136397306Y-39687260D01*
X136404025Y-39746549D01*
X136411273Y-39821764D01*
X136418721Y-39909342D01*
X136426038Y-40005718D01*
X136432895Y-40107325D01*
X136436767Y-40171336D01*
X136443190Y-40357651D01*
X136442455Y-40560598D01*
X136434850Y-40771202D01*
X136420663Y-40980488D01*
X136406103Y-41129166D01*
X136391131Y-41262500D01*
X135929315Y-41415282D01*
X135795004Y-41459669D01*
X135683716Y-41496517D01*
X135593215Y-41526827D01*
X135521262Y-41551597D01*
X135465619Y-41571830D01*
X135424048Y-41588524D01*
X135394310Y-41602680D01*
X135374167Y-41615298D01*
X135361382Y-41627378D01*
X135353716Y-41639921D01*
X135348930Y-41653927D01*
X135344788Y-41670395D01*
X135342972Y-41677304D01*
X135310077Y-41794293D01*
X135277016Y-41906174D01*
X135245154Y-42008661D01*
X135215854Y-42097474D01*
X135190478Y-42168329D01*
X135173038Y-42211181D01*
X135160151Y-42243894D01*
X135154211Y-42266902D01*
X135154166Y-42268029D01*
X135148142Y-42291456D01*
X135141334Y-42306014D01*
X135128255Y-42332118D01*
X135110632Y-42370340D01*
X135091790Y-42413036D01*
X135075054Y-42452560D01*
X135063748Y-42481269D01*
X135060833Y-42491095D01*
X135054936Y-42507621D01*
X135038718Y-42543318D01*
X135014384Y-42593815D01*
X134984140Y-42654743D01*
X134950194Y-42721731D01*
X134914750Y-42790409D01*
X134880015Y-42856408D01*
X134848196Y-42915357D01*
X134831296Y-42945749D01*
X134800933Y-43000978D01*
X134776197Y-43048757D01*
X134759734Y-43083781D01*
X134754166Y-43100340D01*
X134759956Y-43115885D01*
X134776469Y-43152575D01*
X134802422Y-43207744D01*
X134836531Y-43278727D01*
X134877513Y-43362857D01*
X134924083Y-43457469D01*
X134974957Y-43559896D01*
X134989522Y-43589060D01*
X135058617Y-43728286D01*
X135115010Y-43844178D01*
X135158694Y-43936721D01*
X135189661Y-44005895D01*
X135207902Y-44051684D01*
X135213409Y-44074071D01*
X135212855Y-44075932D01*
X135197289Y-44097686D01*
X135175854Y-44128514D01*
X135174402Y-44130629D01*
X135125155Y-44196971D01*
X135059348Y-44277441D01*
X134980369Y-44368469D01*
X134891605Y-44466485D01*
X134796443Y-44567919D01*
X134698269Y-44669199D01*
X134600470Y-44766756D01*
X134506434Y-44857018D01*
X134419546Y-44936416D01*
X134367131Y-44981661D01*
X134318200Y-45022881D01*
X134276968Y-45058027D01*
X134247622Y-45083503D01*
X134234348Y-45095710D01*
X134234166Y-45095926D01*
X134219372Y-45109077D01*
X134190506Y-45131348D01*
X134154284Y-45157925D01*
X134117422Y-45183992D01*
X134086638Y-45204733D01*
X134068648Y-45215332D01*
X134066928Y-45215833D01*
X134053538Y-45210075D01*
X134018914Y-45193656D01*
X133965664Y-45167853D01*
X133896398Y-45133944D01*
X133813726Y-45093210D01*
X133720256Y-45046927D01*
X133618598Y-44996376D01*
X133590765Y-44982500D01*
X133487003Y-44930953D01*
X133390374Y-44883354D01*
X133303547Y-44840987D01*
X133229194Y-44805138D01*
X133169982Y-44777090D01*
X133128583Y-44758130D01*
X133107666Y-44749542D01*
X133105944Y-44749166D01*
X133085565Y-44755227D01*
X133050949Y-44770500D01*
X133010811Y-44790616D01*
X132973865Y-44811211D01*
X132948899Y-44827857D01*
X132932120Y-44838028D01*
X132896917Y-44857133D01*
X132848057Y-44882759D01*
X132790310Y-44912496D01*
X132728445Y-44943933D01*
X132667229Y-44974659D01*
X132611432Y-45002263D01*
X132565822Y-45024333D01*
X132535168Y-45038460D01*
X132524531Y-45042424D01*
X132508073Y-45047672D01*
X132475483Y-45061168D01*
X132444531Y-45075075D01*
X132331768Y-45123679D01*
X132199780Y-45174542D01*
X132055594Y-45225250D01*
X131906238Y-45273388D01*
X131758739Y-45316542D01*
X131682576Y-45336861D01*
X131640116Y-45350793D01*
X131615502Y-45368853D01*
X131601008Y-45394678D01*
X131593096Y-45416445D01*
X131577843Y-45460433D01*
X131556295Y-45523552D01*
X131529498Y-45602709D01*
X131498500Y-45694812D01*
X131464346Y-45796771D01*
X131428083Y-45905492D01*
X131426060Y-45911570D01*
X131267756Y-46387306D01*
X131154294Y-46396349D01*
X131092810Y-46402094D01*
X131033330Y-46409071D01*
X130987105Y-46415934D01*
X130980833Y-46417098D01*
X130946918Y-46421099D01*
X130890683Y-46424750D01*
X130816469Y-46427986D01*
X130728623Y-46430747D01*
X130631486Y-46432970D01*
X130529403Y-46434593D01*
X130426718Y-46435554D01*
X130327775Y-46435791D01*
X130236917Y-46435241D01*
X130158489Y-46433843D01*
X130096833Y-46431535D01*
X130074166Y-46430061D01*
X130002501Y-46423968D01*
X129926256Y-46416836D01*
X129850157Y-46409182D01*
X129778933Y-46401525D01*
X129717312Y-46394384D01*
X129670021Y-46388278D01*
X129641789Y-46383726D01*
X129635994Y-46381986D01*
X129630824Y-46368687D01*
X129618249Y-46332929D01*
X129599240Y-46277571D01*
X129574768Y-46205470D01*
X129545801Y-46119486D01*
X129513312Y-46022475D01*
X129479128Y-45919883D01*
X129434450Y-45785217D01*
X129397436Y-45673579D01*
X129367123Y-45582766D01*
X129342546Y-45510574D01*
X129322741Y-45454801D01*
X129306744Y-45413241D01*
X129293590Y-45383693D01*
X129282315Y-45363952D01*
X129271956Y-45351815D01*
X129261547Y-45345078D01*
X129250124Y-45341538D01*
X129236724Y-45338992D01*
X129223672Y-45336122D01*
X129136449Y-45313069D01*
X129051669Y-45289710D01*
X128973577Y-45267308D01*
X128906420Y-45247121D01*
X128854444Y-45230411D01*
X128821895Y-45218438D01*
X128814166Y-45214576D01*
X128792843Y-45205849D01*
X128758597Y-45196555D01*
X128754604Y-45195677D01*
X128717192Y-45185793D01*
X128689151Y-45175244D01*
X128687937Y-45174605D01*
X128654934Y-45158277D01*
X128613692Y-45140079D01*
X128572824Y-45123535D01*
X128540944Y-45112170D01*
X128528050Y-45109166D01*
X128505071Y-45103294D01*
X128490652Y-45096699D01*
X128471450Y-45087051D01*
X128432585Y-45068041D01*
X128378455Y-45041802D01*
X128313458Y-45010467D01*
X128254166Y-44982002D01*
X128174820Y-44943178D01*
X128094626Y-44902533D01*
X128020548Y-44863695D01*
X127959552Y-44830288D01*
X127932314Y-44814470D01*
X127882364Y-44785943D01*
X127838711Y-44763784D01*
X127807807Y-44751141D01*
X127798981Y-44749372D01*
X127781792Y-44755231D01*
X127743600Y-44771831D01*
X127687188Y-44797851D01*
X127615335Y-44831969D01*
X127530822Y-44872862D01*
X127436429Y-44919210D01*
X127334936Y-44969690D01*
X127323862Y-44975236D01*
X127221634Y-45026341D01*
X127126160Y-45073831D01*
X127040238Y-45116333D01*
X126966667Y-45152472D01*
X126908244Y-45180874D01*
X126867767Y-45200167D01*
X126848035Y-45208975D01*
X126847321Y-45209223D01*
X126822666Y-45204719D01*
X126782230Y-45182283D01*
X126728015Y-45143850D01*
X126662025Y-45091360D01*
X126586262Y-45026749D01*
X126502729Y-44951955D01*
X126413428Y-44868916D01*
X126320363Y-44779569D01*
X126225535Y-44685852D01*
X126130947Y-44589703D01*
X126038603Y-44493059D01*
X125950504Y-44397858D01*
X125868654Y-44306037D01*
X125795055Y-44219534D01*
X125731710Y-44140287D01*
X125703423Y-44102500D01*
X125674309Y-44062500D01*
X125914238Y-43584020D01*
X125966569Y-43479415D01*
X126014964Y-43382210D01*
X126058153Y-43294990D01*
X126094866Y-43220341D01*
X126123833Y-43160850D01*
X126143784Y-43119102D01*
X126153449Y-43097683D01*
X126154166Y-43095473D01*
X126147760Y-43080538D01*
X126130416Y-43047895D01*
X126104943Y-43002680D01*
X126080434Y-42960629D01*
X126022201Y-42858591D01*
X125966371Y-42753061D01*
X125911058Y-42639968D01*
X125854372Y-42515245D01*
X125794428Y-42374825D01*
X125729336Y-42214637D01*
X125700799Y-42142500D01*
X125677683Y-42078645D01*
X125650817Y-41996338D01*
X125622485Y-41903103D01*
X125594970Y-41806464D01*
X125570552Y-41713943D01*
X125569355Y-41709166D01*
X125544372Y-41609166D01*
X125085936Y-41455428D01*
X124980395Y-41419939D01*
X124882695Y-41386904D01*
X124795757Y-41357325D01*
X124722505Y-41332205D01*
X124665861Y-41312544D01*
X124628748Y-41299346D01*
X124614166Y-41293662D01*
X124592419Y-41285333D01*
X124559525Y-41276786D01*
X124537283Y-41270305D01*
X124523307Y-41258390D01*
X124513868Y-41234582D01*
X124505241Y-41192424D01*
X124502824Y-41178552D01*
X124494182Y-41116730D01*
X124485545Y-41034052D01*
X124477290Y-40936327D01*
X124469795Y-40829362D01*
X124463439Y-40718966D01*
X124458598Y-40610948D01*
X124455653Y-40511115D01*
X124455228Y-40471632D01*
X126352833Y-40471632D01*
X126354627Y-40606206D01*
X126358878Y-40734090D01*
X126365582Y-40849750D01*
X126374738Y-40947648D01*
X126381269Y-40994720D01*
X126404546Y-41132100D01*
X126427114Y-41254810D01*
X126448306Y-41359481D01*
X126467459Y-41442743D01*
X126476215Y-41475833D01*
X126492886Y-41535395D01*
X126509846Y-41596610D01*
X126521562Y-41639394D01*
X126536325Y-41687668D01*
X126558830Y-41753833D01*
X126586578Y-41831156D01*
X126617073Y-41912903D01*
X126647817Y-41992343D01*
X126676313Y-42062742D01*
X126693346Y-42102500D01*
X126824399Y-42370101D01*
X126977450Y-42633000D01*
X127147971Y-42883773D01*
X127254428Y-43022398D01*
X127376460Y-43164826D01*
X127517926Y-43313659D01*
X127674023Y-43464180D01*
X127839949Y-43611671D01*
X127934166Y-43690204D01*
X127976834Y-43722866D01*
X128036211Y-43765557D01*
X128106339Y-43814260D01*
X128181260Y-43864957D01*
X128255015Y-43913631D01*
X128321648Y-43956265D01*
X128375199Y-43988840D01*
X128387500Y-43995871D01*
X128487164Y-44051111D01*
X128568801Y-44095135D01*
X128637259Y-44130436D01*
X128697384Y-44159503D01*
X128754025Y-44184827D01*
X128761035Y-44187826D01*
X128815258Y-44211001D01*
X128864843Y-44232351D01*
X128901040Y-44248104D01*
X128907500Y-44250961D01*
X128949505Y-44268114D01*
X129009788Y-44290758D01*
X129081188Y-44316385D01*
X129156542Y-44342484D01*
X129228690Y-44366547D01*
X129290472Y-44386065D01*
X129307500Y-44391120D01*
X129365451Y-44407223D01*
X129427156Y-44422762D01*
X129498386Y-44439062D01*
X129584908Y-44457450D01*
X129680833Y-44476921D01*
X129892881Y-44511722D01*
X130119673Y-44535156D01*
X130352786Y-44546911D01*
X130583802Y-44546679D01*
X130804299Y-44534147D01*
X130914166Y-44522394D01*
X131023101Y-44508010D01*
X131117610Y-44494039D01*
X131208356Y-44478707D01*
X131306003Y-44460235D01*
X131394166Y-44442434D01*
X131454496Y-44428355D01*
X131529718Y-44408325D01*
X131612875Y-44384452D01*
X131697008Y-44358846D01*
X131775161Y-44333617D01*
X131840375Y-44310873D01*
X131880833Y-44294898D01*
X131907833Y-44283787D01*
X131949129Y-44267522D01*
X131980833Y-44255329D01*
X132153137Y-44182784D01*
X132335321Y-44093330D01*
X132520502Y-43990800D01*
X132701795Y-43879023D01*
X132872318Y-43761832D01*
X132887500Y-43750709D01*
X133027793Y-43640466D01*
X133174419Y-43512795D01*
X133321852Y-43373222D01*
X133464565Y-43227271D01*
X133597033Y-43080468D01*
X133713729Y-42938337D01*
X133755877Y-42882500D01*
X133862729Y-42728666D01*
X133966515Y-42563805D01*
X134063695Y-42394279D01*
X134150726Y-42226450D01*
X134224068Y-42066679D01*
X134260594Y-41975833D01*
X134277820Y-41930849D01*
X134292891Y-41892708D01*
X134299898Y-41875833D01*
X134319702Y-41824943D01*
X134343740Y-41754484D01*
X134370094Y-41670836D01*
X134396845Y-41580376D01*
X134422077Y-41489484D01*
X134443871Y-41404538D01*
X134452225Y-41369166D01*
X134496395Y-41140190D01*
X134528397Y-40897619D01*
X134547761Y-40649193D01*
X134554019Y-40402653D01*
X134546698Y-40165740D01*
X134534214Y-40018529D01*
X134525174Y-39937971D01*
X134517030Y-39872618D01*
X134508467Y-39814280D01*
X134498170Y-39754769D01*
X134484826Y-39685894D01*
X134467119Y-39599466D01*
X134466364Y-39595833D01*
X134441840Y-39487268D01*
X134412216Y-39371391D01*
X134379338Y-39254373D01*
X134345048Y-39142388D01*
X134311191Y-39041607D01*
X134279613Y-38958204D01*
X134267168Y-38929166D01*
X134252704Y-38895977D01*
X134232717Y-38848820D01*
X134213437Y-38802500D01*
X134185379Y-38738936D01*
X134147495Y-38659487D01*
X134103379Y-38571308D01*
X134056626Y-38481557D01*
X134010830Y-38397389D01*
X134002467Y-38382500D01*
X133880387Y-38185238D01*
X133736750Y-37985474D01*
X133575729Y-37787701D01*
X133401500Y-37596413D01*
X133218237Y-37416104D01*
X133030115Y-37251269D01*
X132841307Y-37106403D01*
X132774166Y-37060134D01*
X132722466Y-37025584D01*
X132671755Y-36991631D01*
X132631899Y-36964881D01*
X132627500Y-36961920D01*
X132529455Y-36901040D01*
X132408846Y-36834874D01*
X132268872Y-36765014D01*
X132112733Y-36693054D01*
X131943629Y-36620587D01*
X131934166Y-36616680D01*
X131812796Y-36570590D01*
X131683536Y-36528166D01*
X131600833Y-36504644D01*
X131573390Y-36497063D01*
X131531432Y-36485097D01*
X131500833Y-36476229D01*
X131392817Y-36448346D01*
X131264313Y-36421296D01*
X131121497Y-36396201D01*
X130970546Y-36374185D01*
X130874166Y-36362412D01*
X130819327Y-36358114D01*
X130743238Y-36354782D01*
X130651301Y-36352418D01*
X130548914Y-36351024D01*
X130441480Y-36350603D01*
X130334396Y-36351158D01*
X130233065Y-36352690D01*
X130142885Y-36355202D01*
X130069258Y-36358698D01*
X130027500Y-36362033D01*
X129848583Y-36383710D01*
X129683525Y-36410401D01*
X129523719Y-36443980D01*
X129360559Y-36486324D01*
X129185438Y-36539308D01*
X129127500Y-36558146D01*
X129067859Y-36578064D01*
X129015549Y-36595996D01*
X128977061Y-36609693D01*
X128960833Y-36615976D01*
X128934606Y-36627511D01*
X128893850Y-36645496D01*
X128857104Y-36661739D01*
X128815781Y-36679478D01*
X128784711Y-36691808D01*
X128771685Y-36695833D01*
X128751098Y-36702372D01*
X128711546Y-36720555D01*
X128656882Y-36748228D01*
X128590962Y-36783236D01*
X128517639Y-36823425D01*
X128440769Y-36866642D01*
X128364205Y-36910732D01*
X128291801Y-36953542D01*
X128227413Y-36992918D01*
X128174895Y-37026706D01*
X128154166Y-37040920D01*
X128113277Y-37069618D01*
X128075851Y-37095507D01*
X128060833Y-37105705D01*
X127963608Y-37176399D01*
X127855115Y-37264869D01*
X127739405Y-37367064D01*
X127620528Y-37478932D01*
X127502535Y-37596423D01*
X127389478Y-37715485D01*
X127285408Y-37832066D01*
X127194376Y-37942116D01*
X127120432Y-38041584D01*
X127110735Y-38055833D01*
X127089096Y-38087483D01*
X127061223Y-38127511D01*
X127050668Y-38142500D01*
X126963062Y-38275894D01*
X126874167Y-38428625D01*
X126787279Y-38593865D01*
X126705698Y-38764787D01*
X126632720Y-38934566D01*
X126571643Y-39096374D01*
X126535403Y-39209166D01*
X126520878Y-39257778D01*
X126507523Y-39300624D01*
X126500269Y-39322500D01*
X126485817Y-39370726D01*
X126468414Y-39440579D01*
X126449057Y-39527314D01*
X126428740Y-39626183D01*
X126408459Y-39732440D01*
X126389209Y-39841341D01*
X126380788Y-39892169D01*
X126370265Y-39977155D01*
X126362211Y-40083129D01*
X126356622Y-40204558D01*
X126353497Y-40335904D01*
X126352833Y-40471632D01*
X124455228Y-40471632D01*
X124454913Y-40442500D01*
X124456100Y-40356257D01*
X124459382Y-40258027D01*
X124464397Y-40153131D01*
X124470785Y-40046891D01*
X124478186Y-39944627D01*
X124486239Y-39851661D01*
X124494584Y-39773315D01*
X124502860Y-39714910D01*
X124504980Y-39703528D01*
X124520833Y-39624556D01*
X125023610Y-39456861D01*
X125134248Y-39419733D01*
X125237066Y-39384793D01*
X125329285Y-39353020D01*
X125408127Y-39325388D01*
X125470814Y-39302876D01*
X125514567Y-39286459D01*
X125536607Y-39277115D01*
X125538573Y-39275833D01*
X125547299Y-39257095D01*
X125559226Y-39219750D01*
X125572010Y-39171273D01*
X125574092Y-39162500D01*
X125592456Y-39092013D01*
X125618447Y-39003504D01*
X125649863Y-38903739D01*
X125684501Y-38799486D01*
X125720161Y-38697512D01*
X125754641Y-38604583D01*
X125760620Y-38589166D01*
X125789440Y-38519463D01*
X125826918Y-38434798D01*
X125870426Y-38340574D01*
X125917341Y-38242191D01*
X125965037Y-38145048D01*
X126010890Y-38054549D01*
X126052274Y-37976092D01*
X126086564Y-37915079D01*
X126095259Y-37900686D01*
X126122252Y-37855769D01*
X126142697Y-37819236D01*
X126153263Y-37797135D01*
X126154014Y-37794019D01*
X126148192Y-37779957D01*
X126131641Y-37744677D01*
X126105634Y-37690777D01*
X126071442Y-37620852D01*
X126030337Y-37537499D01*
X125983591Y-37443316D01*
X125932475Y-37340897D01*
X125914090Y-37304188D01*
X125674317Y-36825876D01*
X125743413Y-36737521D01*
X125953083Y-36485849D01*
X126183471Y-36239428D01*
X126428636Y-36004161D01*
X126682639Y-35785946D01*
X126775929Y-35712057D01*
X126831026Y-35669412D01*
X127311840Y-35909289D01*
X127416726Y-35961505D01*
X127514176Y-36009804D01*
X127601613Y-36052925D01*
X127676458Y-36089605D01*
X127736133Y-36118584D01*
X127778059Y-36138599D01*
X127799659Y-36148388D01*
X127801970Y-36149166D01*
X127817063Y-36142535D01*
X127848113Y-36125068D01*
X127888681Y-36100404D01*
X127892725Y-36097864D01*
X127944171Y-36067579D01*
X128014276Y-36029291D01*
X128097342Y-35985850D01*
X128187668Y-35940106D01*
X128279557Y-35894908D01*
X128367309Y-35853105D01*
X128445224Y-35817548D01*
X128500833Y-35793806D01*
X128554398Y-35771933D01*
X128600980Y-35752642D01*
X128633255Y-35738977D01*
X128640833Y-35735624D01*
X128666386Y-35725817D01*
X128712284Y-35709999D01*
X128773329Y-35689816D01*
X128844321Y-35666912D01*
X128920061Y-35642934D01*
X128995351Y-35619526D01*
X129064992Y-35598335D01*
X129123784Y-35581005D01*
X129166530Y-35569183D01*
X129167500Y-35568933D01*
X129214817Y-35556100D01*
X129253282Y-35544435D01*
X129273372Y-35536972D01*
X129281781Y-35522476D01*
X129297470Y-35485235D01*
X129319484Y-35427870D01*
X129346869Y-35352999D01*
X129378672Y-35263243D01*
X129413938Y-35161221D01*
X129451713Y-35049553D01*
X129461066Y-35021548D01*
X129629556Y-34515833D01*
X129708528Y-34499962D01*
X129766057Y-34490851D01*
X129844911Y-34481875D01*
X129939748Y-34473390D01*
X130045228Y-34465752D01*
X130156009Y-34459318D01*
X130266750Y-34454442D01*
X130372111Y-34451481D01*
X130447500Y-34450730D01*
X130549982Y-34451990D01*
G36*
X74381093Y-35753874D02*
G01*
X74546761Y-35872014D01*
X74694277Y-36023994D01*
X74822677Y-36210891D01*
X74935718Y-36446178D01*
X75037160Y-36743329D01*
X75130763Y-37115820D01*
X75220285Y-37577123D01*
X75309486Y-38140714D01*
X75402124Y-38820067D01*
X75429685Y-39036802D01*
X75503499Y-39610519D01*
X75566686Y-40066816D01*
X75621973Y-40420937D01*
X75672086Y-40688124D01*
X75719752Y-40883622D01*
X75767698Y-41022673D01*
X75795354Y-41080947D01*
X75877741Y-41188496D01*
X75961959Y-41197707D01*
X76051787Y-41102175D01*
X76151001Y-40895496D01*
X76263379Y-40571263D01*
X76392699Y-40123071D01*
X76419869Y-40021974D01*
X76565103Y-39506354D01*
X76698371Y-39108636D01*
X76828607Y-38815038D01*
X76964741Y-38611775D01*
X77115707Y-38485066D01*
X77290437Y-38421127D01*
X77467218Y-38405833D01*
X77675090Y-38436592D01*
X77862554Y-38538374D01*
X78043208Y-38725432D01*
X78230652Y-39012021D01*
X78438487Y-39412396D01*
X78449578Y-39435490D01*
X78595679Y-39722317D01*
X78738647Y-39971287D01*
X78860485Y-40152780D01*
X78933016Y-40231195D01*
X79026484Y-40277700D01*
X79166060Y-40309289D01*
X79375124Y-40328402D01*
X79677053Y-40337477D01*
X79967571Y-40339166D01*
X80375851Y-40344006D01*
X80669216Y-40362512D01*
X80865866Y-40400662D01*
X80983996Y-40464435D01*
X81041804Y-40559810D01*
X81057490Y-40692766D01*
X81057500Y-40697261D01*
X81047222Y-40808941D01*
X81004318Y-40890055D01*
X80910676Y-40945404D01*
X80748187Y-40979786D01*
X80498741Y-40997998D01*
X80144229Y-41004838D01*
X79894166Y-41005491D01*
X79501562Y-41003873D01*
X79217032Y-40997306D01*
X79015331Y-40982757D01*
X78871215Y-40957191D01*
X78759437Y-40917576D01*
X78654754Y-40860878D01*
X78645893Y-40855491D01*
X78458865Y-40723637D01*
X78299630Y-40563973D01*
X78148895Y-40350262D01*
X77987369Y-40056270D01*
X77850726Y-39774116D01*
X77692790Y-39464472D01*
X77564661Y-39277551D01*
X77460573Y-39207577D01*
X77374759Y-39248774D01*
X77354627Y-39277148D01*
X77322302Y-39365332D01*
X77264879Y-39556478D01*
X77189896Y-39824270D01*
X77104892Y-40142392D01*
X77086226Y-40214083D01*
X76926240Y-40773598D01*
X76766207Y-41211192D01*
X76600689Y-41538171D01*
X76424253Y-41765840D01*
X76288124Y-41874174D01*
X76000028Y-41994278D01*
X75733136Y-41983110D01*
X75482729Y-41840186D01*
X75423989Y-41785656D01*
X75314063Y-41657014D01*
X75217666Y-41497671D01*
X75131644Y-41294279D01*
X75052848Y-41033489D01*
X74978125Y-40701956D01*
X74904323Y-40286329D01*
X74828290Y-39773262D01*
X74746876Y-39149407D01*
X74688902Y-38672500D01*
X74607351Y-38061112D01*
X74519308Y-37535673D01*
X74427080Y-37105270D01*
X74332973Y-36778993D01*
X74239295Y-36565931D01*
X74148350Y-36475174D01*
X74130617Y-36472500D01*
X74029779Y-36537843D01*
X73930600Y-36728577D01*
X73834701Y-37036761D01*
X73743701Y-37454453D01*
X73659221Y-37973711D01*
X73582881Y-38586593D01*
X73516301Y-39285158D01*
X73491373Y-39605833D01*
X73418128Y-40501941D01*
X73337667Y-41271098D01*
X73248697Y-41919553D01*
X73149923Y-42453556D01*
X73040052Y-42879358D01*
X72917791Y-43203209D01*
X72781847Y-43431358D01*
X72677620Y-43537649D01*
X72428818Y-43657455D01*
X72165656Y-43652489D01*
X71915967Y-43524458D01*
X71874450Y-43488334D01*
X71744294Y-43353188D01*
X71630788Y-43199479D01*
X71528762Y-43011889D01*
X71433047Y-42775101D01*
X71338472Y-42473797D01*
X71239868Y-42092659D01*
X71132065Y-41616370D01*
X71009893Y-41029612D01*
X70958793Y-40775340D01*
X70847694Y-40227029D01*
X70755864Y-39796629D01*
X70679306Y-39470764D01*
X70614022Y-39236058D01*
X70556016Y-39079135D01*
X70501289Y-38986618D01*
X70445845Y-38945130D01*
X70410063Y-38939166D01*
X70338030Y-38973227D01*
X70265834Y-39082792D01*
X70189943Y-39278932D01*
X70106821Y-39572722D01*
X70012934Y-39975234D01*
X69904748Y-40497540D01*
X69891852Y-40562633D01*
X69808996Y-40962070D01*
X69723636Y-41338242D01*
X69642907Y-41662103D01*
X69573946Y-41904607D01*
X69535839Y-42011935D01*
X69369736Y-42297855D01*
X69156420Y-42518193D01*
X68924159Y-42648167D01*
X68782407Y-42672500D01*
X68536950Y-42637919D01*
X68323771Y-42525999D01*
X68132722Y-42324466D01*
X67953659Y-42021051D01*
X67776435Y-41603482D01*
X67683949Y-41343964D01*
X67534407Y-40966715D01*
X67375648Y-40677796D01*
X67283957Y-40560631D01*
X67075089Y-40339166D01*
X66146294Y-40339166D01*
X65741277Y-40336140D01*
X65450771Y-40323232D01*
X65256015Y-40294699D01*
X65138253Y-40244799D01*
X65078725Y-40167789D01*
X65058671Y-40057925D01*
X65057500Y-40005833D01*
X65066590Y-39884767D01*
X65106073Y-39797046D01*
X65194263Y-39737359D01*
X65349473Y-39700393D01*
X65590020Y-39680836D01*
X65934218Y-39673378D01*
X66206822Y-39672500D01*
X66604981Y-39674619D01*
X66895935Y-39682853D01*
X67105772Y-39700010D01*
X67260577Y-39728903D01*
X67386439Y-39772342D01*
X67461049Y-39807644D01*
X67721111Y-39991354D01*
X67949654Y-40267344D01*
X68156621Y-40650111D01*
X68318838Y-41058428D01*
X68436222Y-41384493D01*
X68523149Y-41605485D01*
X68591110Y-41742893D01*
X68651595Y-41818207D01*
X68716093Y-41852917D01*
X68747784Y-41860684D01*
X68811792Y-41855118D01*
X68869602Y-41801444D01*
X68926143Y-41684794D01*
X68986344Y-41490298D01*
X69055134Y-41203086D01*
X69137440Y-40808290D01*
X69196864Y-40505833D01*
X69310836Y-39938267D01*
X69412339Y-39485104D01*
X69507234Y-39128680D01*
X69601383Y-38851329D01*
X69700648Y-38635388D01*
X69810889Y-38463193D01*
X69915410Y-38340327D01*
X70089759Y-38176069D01*
X70236981Y-38095447D01*
X70406042Y-38072605D01*
X70422639Y-38072500D01*
X70613075Y-38096583D01*
X70772322Y-38187886D01*
X70893670Y-38304262D01*
X71008763Y-38447392D01*
X71112792Y-38627815D01*
X71210575Y-38860891D01*
X71306932Y-39161983D01*
X71406681Y-39546452D01*
X71514643Y-40029661D01*
X71635637Y-40626970D01*
X71657400Y-40738652D01*
X71772615Y-41320593D01*
X71870195Y-41783139D01*
X71953822Y-42138510D01*
X72027180Y-42398929D01*
X72093951Y-42576618D01*
X72157821Y-42683798D01*
X72222470Y-42732690D01*
X72260288Y-42739166D01*
X72327411Y-42715199D01*
X72388433Y-42636794D01*
X72445056Y-42494202D01*
X72498981Y-42277668D01*
X72551911Y-41977443D01*
X72605547Y-41583772D01*
X72661593Y-41086906D01*
X72721749Y-40477091D01*
X72787718Y-39744576D01*
X72792453Y-39690112D01*
X72859889Y-38956501D01*
X72925477Y-38339346D01*
X72991754Y-37821842D01*
X73061251Y-37387183D01*
X73136502Y-37018565D01*
X73220040Y-36699182D01*
X73265196Y-36554262D01*
X73432868Y-36163646D01*
X73637561Y-35883365D01*
X73870008Y-35718354D01*
X74120941Y-35673545D01*
X74381093Y-35753874D01*
G37*
X74381093Y-35753874D02*
X74546761Y-35872014D01*
X74694277Y-36023994D01*
X74822677Y-36210891D01*
X74935718Y-36446178D01*
X75037160Y-36743329D01*
X75130763Y-37115820D01*
X75220285Y-37577123D01*
X75309486Y-38140714D01*
X75402124Y-38820067D01*
X75429685Y-39036802D01*
X75503499Y-39610519D01*
X75566686Y-40066816D01*
X75621973Y-40420937D01*
X75672086Y-40688124D01*
X75719752Y-40883622D01*
X75767698Y-41022673D01*
X75795354Y-41080947D01*
X75877741Y-41188496D01*
X75961959Y-41197707D01*
X76051787Y-41102175D01*
X76151001Y-40895496D01*
X76263379Y-40571263D01*
X76392699Y-40123071D01*
X76419869Y-40021974D01*
X76565103Y-39506354D01*
X76698371Y-39108636D01*
X76828607Y-38815038D01*
X76964741Y-38611775D01*
X77115707Y-38485066D01*
X77290437Y-38421127D01*
X77467218Y-38405833D01*
X77675090Y-38436592D01*
X77862554Y-38538374D01*
X78043208Y-38725432D01*
X78230652Y-39012021D01*
X78438487Y-39412396D01*
X78449578Y-39435490D01*
X78595679Y-39722317D01*
X78738647Y-39971287D01*
X78860485Y-40152780D01*
X78933016Y-40231195D01*
X79026484Y-40277700D01*
X79166060Y-40309289D01*
X79375124Y-40328402D01*
X79677053Y-40337477D01*
X79967571Y-40339166D01*
X80375851Y-40344006D01*
X80669216Y-40362512D01*
X80865866Y-40400662D01*
X80983996Y-40464435D01*
X81041804Y-40559810D01*
X81057490Y-40692766D01*
X81057500Y-40697261D01*
X81047222Y-40808941D01*
X81004318Y-40890055D01*
X80910676Y-40945404D01*
X80748187Y-40979786D01*
X80498741Y-40997998D01*
X80144229Y-41004838D01*
X79894166Y-41005491D01*
X79501562Y-41003873D01*
X79217032Y-40997306D01*
X79015331Y-40982757D01*
X78871215Y-40957191D01*
X78759437Y-40917576D01*
X78654754Y-40860878D01*
X78645893Y-40855491D01*
X78458865Y-40723637D01*
X78299630Y-40563973D01*
X78148895Y-40350262D01*
X77987369Y-40056270D01*
X77850726Y-39774116D01*
X77692790Y-39464472D01*
X77564661Y-39277551D01*
X77460573Y-39207577D01*
X77374759Y-39248774D01*
X77354627Y-39277148D01*
X77322302Y-39365332D01*
X77264879Y-39556478D01*
X77189896Y-39824270D01*
X77104892Y-40142392D01*
X77086226Y-40214083D01*
X76926240Y-40773598D01*
X76766207Y-41211192D01*
X76600689Y-41538171D01*
X76424253Y-41765840D01*
X76288124Y-41874174D01*
X76000028Y-41994278D01*
X75733136Y-41983110D01*
X75482729Y-41840186D01*
X75423989Y-41785656D01*
X75314063Y-41657014D01*
X75217666Y-41497671D01*
X75131644Y-41294279D01*
X75052848Y-41033489D01*
X74978125Y-40701956D01*
X74904323Y-40286329D01*
X74828290Y-39773262D01*
X74746876Y-39149407D01*
X74688902Y-38672500D01*
X74607351Y-38061112D01*
X74519308Y-37535673D01*
X74427080Y-37105270D01*
X74332973Y-36778993D01*
X74239295Y-36565931D01*
X74148350Y-36475174D01*
X74130617Y-36472500D01*
X74029779Y-36537843D01*
X73930600Y-36728577D01*
X73834701Y-37036761D01*
X73743701Y-37454453D01*
X73659221Y-37973711D01*
X73582881Y-38586593D01*
X73516301Y-39285158D01*
X73491373Y-39605833D01*
X73418128Y-40501941D01*
X73337667Y-41271098D01*
X73248697Y-41919553D01*
X73149923Y-42453556D01*
X73040052Y-42879358D01*
X72917791Y-43203209D01*
X72781847Y-43431358D01*
X72677620Y-43537649D01*
X72428818Y-43657455D01*
X72165656Y-43652489D01*
X71915967Y-43524458D01*
X71874450Y-43488334D01*
X71744294Y-43353188D01*
X71630788Y-43199479D01*
X71528762Y-43011889D01*
X71433047Y-42775101D01*
X71338472Y-42473797D01*
X71239868Y-42092659D01*
X71132065Y-41616370D01*
X71009893Y-41029612D01*
X70958793Y-40775340D01*
X70847694Y-40227029D01*
X70755864Y-39796629D01*
X70679306Y-39470764D01*
X70614022Y-39236058D01*
X70556016Y-39079135D01*
X70501289Y-38986618D01*
X70445845Y-38945130D01*
X70410063Y-38939166D01*
X70338030Y-38973227D01*
X70265834Y-39082792D01*
X70189943Y-39278932D01*
X70106821Y-39572722D01*
X70012934Y-39975234D01*
X69904748Y-40497540D01*
X69891852Y-40562633D01*
X69808996Y-40962070D01*
X69723636Y-41338242D01*
X69642907Y-41662103D01*
X69573946Y-41904607D01*
X69535839Y-42011935D01*
X69369736Y-42297855D01*
X69156420Y-42518193D01*
X68924159Y-42648167D01*
X68782407Y-42672500D01*
X68536950Y-42637919D01*
X68323771Y-42525999D01*
X68132722Y-42324466D01*
X67953659Y-42021051D01*
X67776435Y-41603482D01*
X67683949Y-41343964D01*
X67534407Y-40966715D01*
X67375648Y-40677796D01*
X67283957Y-40560631D01*
X67075089Y-40339166D01*
X66146294Y-40339166D01*
X65741277Y-40336140D01*
X65450771Y-40323232D01*
X65256015Y-40294699D01*
X65138253Y-40244799D01*
X65078725Y-40167789D01*
X65058671Y-40057925D01*
X65057500Y-40005833D01*
X65066590Y-39884767D01*
X65106073Y-39797046D01*
X65194263Y-39737359D01*
X65349473Y-39700393D01*
X65590020Y-39680836D01*
X65934218Y-39673378D01*
X66206822Y-39672500D01*
X66604981Y-39674619D01*
X66895935Y-39682853D01*
X67105772Y-39700010D01*
X67260577Y-39728903D01*
X67386439Y-39772342D01*
X67461049Y-39807644D01*
X67721111Y-39991354D01*
X67949654Y-40267344D01*
X68156621Y-40650111D01*
X68318838Y-41058428D01*
X68436222Y-41384493D01*
X68523149Y-41605485D01*
X68591110Y-41742893D01*
X68651595Y-41818207D01*
X68716093Y-41852917D01*
X68747784Y-41860684D01*
X68811792Y-41855118D01*
X68869602Y-41801444D01*
X68926143Y-41684794D01*
X68986344Y-41490298D01*
X69055134Y-41203086D01*
X69137440Y-40808290D01*
X69196864Y-40505833D01*
X69310836Y-39938267D01*
X69412339Y-39485104D01*
X69507234Y-39128680D01*
X69601383Y-38851329D01*
X69700648Y-38635388D01*
X69810889Y-38463193D01*
X69915410Y-38340327D01*
X70089759Y-38176069D01*
X70236981Y-38095447D01*
X70406042Y-38072605D01*
X70422639Y-38072500D01*
X70613075Y-38096583D01*
X70772322Y-38187886D01*
X70893670Y-38304262D01*
X71008763Y-38447392D01*
X71112792Y-38627815D01*
X71210575Y-38860891D01*
X71306932Y-39161983D01*
X71406681Y-39546452D01*
X71514643Y-40029661D01*
X71635637Y-40626970D01*
X71657400Y-40738652D01*
X71772615Y-41320593D01*
X71870195Y-41783139D01*
X71953822Y-42138510D01*
X72027180Y-42398929D01*
X72093951Y-42576618D01*
X72157821Y-42683798D01*
X72222470Y-42732690D01*
X72260288Y-42739166D01*
X72327411Y-42715199D01*
X72388433Y-42636794D01*
X72445056Y-42494202D01*
X72498981Y-42277668D01*
X72551911Y-41977443D01*
X72605547Y-41583772D01*
X72661593Y-41086906D01*
X72721749Y-40477091D01*
X72787718Y-39744576D01*
X72792453Y-39690112D01*
X72859889Y-38956501D01*
X72925477Y-38339346D01*
X72991754Y-37821842D01*
X73061251Y-37387183D01*
X73136502Y-37018565D01*
X73220040Y-36699182D01*
X73265196Y-36554262D01*
X73432868Y-36163646D01*
X73637561Y-35883365D01*
X73870008Y-35718354D01*
X74120941Y-35673545D01*
X74381093Y-35753874D01*
D14*
X143697500Y-39892500D02*
X144187500Y-39402500D01*
X140797500Y-39892500D02*
X143697500Y-39892500D01*
X140797500Y-39892500D02*
X140307500Y-39402500D01*
X140797500Y-34452500D02*
X143697500Y-34452500D01*
X140797500Y-34452500D02*
X140307500Y-34942500D01*
X144967500Y-38212500D02*
X144967500Y-36132500D01*
X143697500Y-34452500D02*
X144187500Y-34942500D01*
X139527500Y-38212500D02*
X139527500Y-36132500D01*
X78900000Y-47150000D02*
X83200000Y-47150000D01*
X78900000Y-45150000D02*
X78900000Y-47150000D01*
X83200000Y-45150000D02*
X78900000Y-45150000D01*
X90900000Y-45150000D02*
X86600000Y-45150000D01*
X90900000Y-47150000D02*
X90900000Y-45150000D01*
X86600000Y-47150000D02*
X90900000Y-47150000D01*
X92100000Y-49000000D02*
X87800000Y-49000000D01*
X92100000Y-51000000D02*
X92100000Y-49000000D01*
X87800000Y-51000000D02*
X92100000Y-51000000D01*
X69897500Y-50992500D02*
X74197500Y-50992500D01*
X69897500Y-48992500D02*
X69897500Y-50992500D01*
X74197500Y-48992500D02*
X69897500Y-48992500D01*
X94100000Y-52750000D02*
X89800000Y-52750000D01*
X94100000Y-54750000D02*
X94100000Y-52750000D01*
X89800000Y-54750000D02*
X94100000Y-54750000D01*
X67897500Y-54742500D02*
X72197500Y-54742500D01*
X67897500Y-52742500D02*
X67897500Y-54742500D01*
X72197500Y-52742500D02*
X67897500Y-52742500D01*
X96100000Y-56500000D02*
X91800000Y-56500000D01*
X96100000Y-58500000D02*
X96100000Y-56500000D01*
X91800000Y-58500000D02*
X96100000Y-58500000D01*
X65900000Y-58512500D02*
X70200000Y-58512500D01*
X65900000Y-56512500D02*
X65900000Y-58512500D01*
X70200000Y-56512500D02*
X65900000Y-56512500D01*
X71900000Y-47150000D02*
X76200000Y-47150000D01*
X71900000Y-45150000D02*
X71900000Y-47150000D01*
X76200000Y-45150000D02*
X71900000Y-45150000D01*
X198876233Y-40432500D02*
X199218767Y-40432500D01*
X198876233Y-41452500D02*
X199218767Y-41452500D01*
X319650000Y-52600000D02*
X315350000Y-52600000D01*
X319650000Y-54600000D02*
X319650000Y-52600000D01*
X315350000Y-54600000D02*
X319650000Y-54600000D01*
X351450000Y-57000000D02*
X355750000Y-57000000D01*
X351450000Y-55000000D02*
X351450000Y-57000000D01*
X355750000Y-55000000D02*
X351450000Y-55000000D01*
X270450000Y-47050000D02*
X274750000Y-47050000D01*
X270450000Y-45050000D02*
X270450000Y-47050000D01*
X274750000Y-45050000D02*
X270450000Y-45050000D01*
X323947500Y-58352500D02*
X328247500Y-58352500D01*
X323947500Y-56352500D02*
X323947500Y-58352500D01*
X328247500Y-56352500D02*
X323947500Y-56352500D01*
X303650000Y-47050000D02*
X307950000Y-47050000D01*
X303650000Y-45050000D02*
X303650000Y-47050000D01*
X307950000Y-45050000D02*
X303650000Y-45050000D01*
X296750000Y-47050000D02*
X301050000Y-47050000D01*
X296750000Y-45050000D02*
X296750000Y-47050000D01*
X301050000Y-45050000D02*
X296750000Y-45050000D01*
X263550000Y-47050000D02*
X267850000Y-47050000D01*
X263550000Y-45050000D02*
X263550000Y-47050000D01*
X267850000Y-45050000D02*
X263550000Y-45050000D01*
X230350000Y-47050000D02*
X234650000Y-47050000D01*
X230350000Y-45050000D02*
X230350000Y-47050000D01*
X234650000Y-45050000D02*
X230350000Y-45050000D01*
X196500000Y-47050000D02*
X200800000Y-47050000D01*
X196500000Y-45050000D02*
X196500000Y-47050000D01*
X200800000Y-45050000D02*
X196500000Y-45050000D01*
X111300000Y-47150000D02*
X115600000Y-47150000D01*
X111300000Y-45150000D02*
X111300000Y-47150000D01*
X115600000Y-45150000D02*
X111300000Y-45150000D01*
X325997500Y-54592500D02*
X330297500Y-54592500D01*
X325997500Y-52592500D02*
X325997500Y-54592500D01*
X330297500Y-52592500D02*
X325997500Y-52592500D01*
X315650000Y-45050000D02*
X311350000Y-45050000D01*
X315650000Y-47050000D02*
X315650000Y-45050000D01*
X311350000Y-47050000D02*
X315650000Y-47050000D01*
X294750000Y-50850000D02*
X299050000Y-50850000D01*
X294750000Y-48850000D02*
X294750000Y-50850000D01*
X299050000Y-48850000D02*
X294750000Y-48850000D01*
X282450000Y-45050000D02*
X278150000Y-45050000D01*
X282450000Y-47050000D02*
X282450000Y-45050000D01*
X278150000Y-47050000D02*
X282450000Y-47050000D01*
X256650000Y-47050000D02*
X260950000Y-47050000D01*
X256650000Y-45050000D02*
X256650000Y-47050000D01*
X260950000Y-45050000D02*
X256650000Y-45050000D01*
X242350000Y-45050000D02*
X238050000Y-45050000D01*
X242350000Y-47050000D02*
X242350000Y-45050000D01*
X238050000Y-47050000D02*
X242350000Y-47050000D01*
X223450000Y-47050000D02*
X227750000Y-47050000D01*
X223450000Y-45050000D02*
X223450000Y-47050000D01*
X227750000Y-45050000D02*
X223450000Y-45050000D01*
X208500000Y-45050000D02*
X204200000Y-45050000D01*
X208500000Y-47050000D02*
X208500000Y-45050000D01*
X204200000Y-47050000D02*
X208500000Y-47050000D01*
X189600000Y-47050000D02*
X193900000Y-47050000D01*
X189600000Y-45050000D02*
X189600000Y-47050000D01*
X193900000Y-45050000D02*
X189600000Y-45050000D01*
X149600000Y-45150000D02*
X145300000Y-45150000D01*
X149600000Y-47150000D02*
X149600000Y-45150000D01*
X145300000Y-47150000D02*
X149600000Y-47150000D01*
X137600000Y-47150000D02*
X141900000Y-47150000D01*
X137600000Y-45150000D02*
X137600000Y-47150000D01*
X141900000Y-45150000D02*
X137600000Y-45150000D01*
X123300000Y-45150000D02*
X119000000Y-45150000D01*
X123300000Y-47150000D02*
X123300000Y-45150000D01*
X119000000Y-47150000D02*
X123300000Y-47150000D01*
X104400000Y-47150000D02*
X108700000Y-47150000D01*
X104400000Y-45150000D02*
X104400000Y-47150000D01*
X108700000Y-45150000D02*
X104400000Y-45150000D01*
X327997500Y-50852500D02*
X332297500Y-50852500D01*
X327997500Y-48852500D02*
X327997500Y-50852500D01*
X332297500Y-48852500D02*
X327997500Y-48852500D01*
X317650000Y-48850000D02*
X313350000Y-48850000D01*
X317650000Y-50850000D02*
X317650000Y-48850000D01*
X313350000Y-50850000D02*
X317650000Y-50850000D01*
X284450000Y-48850000D02*
X280150000Y-48850000D01*
X284450000Y-50850000D02*
X284450000Y-48850000D01*
X280150000Y-50850000D02*
X284450000Y-50850000D01*
X254650000Y-50850000D02*
X258950000Y-50850000D01*
X254650000Y-48850000D02*
X254650000Y-50850000D01*
X258950000Y-48850000D02*
X254650000Y-48850000D01*
X244350000Y-48850000D02*
X240050000Y-48850000D01*
X244350000Y-50850000D02*
X244350000Y-48850000D01*
X240050000Y-50850000D02*
X244350000Y-50850000D01*
X221350000Y-50800000D02*
X225650000Y-50800000D01*
X221350000Y-48800000D02*
X221350000Y-50800000D01*
X225650000Y-48800000D02*
X221350000Y-48800000D01*
X210500000Y-48800000D02*
X206200000Y-48800000D01*
X210500000Y-50800000D02*
X210500000Y-48800000D01*
X206200000Y-50800000D02*
X210500000Y-50800000D01*
X187600000Y-50800000D02*
X191900000Y-50800000D01*
X187600000Y-48800000D02*
X187600000Y-50800000D01*
X191900000Y-48800000D02*
X187600000Y-48800000D01*
X151650000Y-48900000D02*
X147350000Y-48900000D01*
X151650000Y-50900000D02*
X151650000Y-48900000D01*
X147350000Y-50900000D02*
X151650000Y-50900000D01*
X135600000Y-50900000D02*
X139900000Y-50900000D01*
X135600000Y-48900000D02*
X135600000Y-50900000D01*
X139900000Y-48900000D02*
X135600000Y-48900000D01*
X125300000Y-48900000D02*
X121000000Y-48900000D01*
X125300000Y-50900000D02*
X125300000Y-48900000D01*
X121000000Y-50900000D02*
X125300000Y-50900000D01*
X102400000Y-51000000D02*
X106700000Y-51000000D01*
X102400000Y-49000000D02*
X102400000Y-51000000D01*
X106700000Y-49000000D02*
X102400000Y-49000000D01*
X329997500Y-47042500D02*
X334297500Y-47042500D01*
X329997500Y-45042500D02*
X329997500Y-47042500D01*
X334297500Y-45042500D02*
X329997500Y-45042500D01*
X292750000Y-54600000D02*
X297050000Y-54600000D01*
X292750000Y-52600000D02*
X292750000Y-54600000D01*
X297050000Y-52600000D02*
X292750000Y-52600000D01*
X286450000Y-52600000D02*
X282150000Y-52600000D01*
X286450000Y-54600000D02*
X286450000Y-52600000D01*
X282150000Y-54600000D02*
X286450000Y-54600000D01*
X252650000Y-54600000D02*
X256950000Y-54600000D01*
X252650000Y-52600000D02*
X252650000Y-54600000D01*
X256950000Y-52600000D02*
X252650000Y-52600000D01*
X246350000Y-52600000D02*
X242050000Y-52600000D01*
X246350000Y-54600000D02*
X246350000Y-52600000D01*
X242050000Y-54600000D02*
X246350000Y-54600000D01*
X218950000Y-54550000D02*
X223250000Y-54550000D01*
X218950000Y-52550000D02*
X218950000Y-54550000D01*
X223250000Y-52550000D02*
X218950000Y-52550000D01*
X212500000Y-52550000D02*
X208200000Y-52550000D01*
X212500000Y-54550000D02*
X212500000Y-52550000D01*
X208200000Y-54550000D02*
X212500000Y-54550000D01*
X185600000Y-54550000D02*
X189900000Y-54550000D01*
X185600000Y-52550000D02*
X185600000Y-54550000D01*
X189900000Y-52550000D02*
X185600000Y-52550000D01*
X153650000Y-52650000D02*
X149350000Y-52650000D01*
X153650000Y-54650000D02*
X153650000Y-52650000D01*
X149350000Y-54650000D02*
X153650000Y-54650000D01*
X133600000Y-54650000D02*
X137900000Y-54650000D01*
X133600000Y-52650000D02*
X133600000Y-54650000D01*
X137900000Y-52650000D02*
X133600000Y-52650000D01*
X127300000Y-52650000D02*
X123000000Y-52650000D01*
X127300000Y-54650000D02*
X127300000Y-52650000D01*
X123000000Y-54650000D02*
X127300000Y-54650000D01*
X100400000Y-54750000D02*
X104700000Y-54750000D01*
X100400000Y-52750000D02*
X100400000Y-54750000D01*
X104700000Y-52750000D02*
X100400000Y-52750000D01*
X337397500Y-47042500D02*
X341697500Y-47042500D01*
X337397500Y-45042500D02*
X337397500Y-47042500D01*
X341697500Y-45042500D02*
X337397500Y-45042500D01*
X321650000Y-56350000D02*
X317350000Y-56350000D01*
X321650000Y-58350000D02*
X321650000Y-56350000D01*
X317350000Y-58350000D02*
X321650000Y-58350000D01*
X290750000Y-58350000D02*
X295050000Y-58350000D01*
X290750000Y-56350000D02*
X290750000Y-58350000D01*
X295050000Y-56350000D02*
X290750000Y-56350000D01*
X288450000Y-56350000D02*
X284150000Y-56350000D01*
X288450000Y-58350000D02*
X288450000Y-56350000D01*
X284150000Y-58350000D02*
X288450000Y-58350000D01*
X250650000Y-58350000D02*
X254950000Y-58350000D01*
X250650000Y-56350000D02*
X250650000Y-58350000D01*
X254950000Y-56350000D02*
X250650000Y-56350000D01*
X248350000Y-56350000D02*
X244050000Y-56350000D01*
X248350000Y-58350000D02*
X248350000Y-56350000D01*
X244050000Y-58350000D02*
X248350000Y-58350000D01*
X216750000Y-58300000D02*
X221050000Y-58300000D01*
X216750000Y-56300000D02*
X216750000Y-58300000D01*
X221050000Y-56300000D02*
X216750000Y-56300000D01*
X214450000Y-56300000D02*
X210150000Y-56300000D01*
X214450000Y-58300000D02*
X214450000Y-56300000D01*
X210150000Y-58300000D02*
X214450000Y-58300000D01*
X183600000Y-58300000D02*
X187900000Y-58300000D01*
X183600000Y-56300000D02*
X183600000Y-58300000D01*
X187900000Y-56300000D02*
X183600000Y-56300000D01*
X155650000Y-56400000D02*
X151350000Y-56400000D01*
X155650000Y-58400000D02*
X155650000Y-56400000D01*
X151350000Y-58400000D02*
X155650000Y-58400000D01*
X131600000Y-58400000D02*
X135900000Y-58400000D01*
X131600000Y-56400000D02*
X131600000Y-58400000D01*
X135900000Y-56400000D02*
X131600000Y-56400000D01*
X129300000Y-56400000D02*
X125000000Y-56400000D01*
X129300000Y-58400000D02*
X129300000Y-56400000D01*
X125000000Y-58400000D02*
X129300000Y-58400000D01*
X98400000Y-58500000D02*
X102700000Y-58500000D01*
X98400000Y-56500000D02*
X98400000Y-58500000D01*
X102700000Y-56500000D02*
X98400000Y-56500000D01*
X163537500Y-37063767D02*
X163537500Y-36721233D01*
X164557500Y-37063767D02*
X164557500Y-36721233D01*
X182307500Y-39813767D02*
X182307500Y-39471233D01*
X181287500Y-39813767D02*
X181287500Y-39471233D01*
X164778767Y-60062500D02*
X164436233Y-60062500D01*
X164778767Y-59042500D02*
X164436233Y-59042500D01*
X156257500Y-43813767D02*
X156257500Y-43471233D01*
X155237500Y-43813767D02*
X155237500Y-43471233D01*
X174537500Y-36721233D02*
X174537500Y-37063767D01*
X175557500Y-36721233D02*
X175557500Y-37063767D01*
X179176233Y-52382500D02*
X179518767Y-52382500D01*
X179176233Y-53402500D02*
X179518767Y-53402500D01*
X181287500Y-44313767D02*
X181287500Y-43971233D01*
X182307500Y-44313767D02*
X182307500Y-43971233D01*
X191960000Y-36007500D02*
X187900000Y-36007500D01*
X187900000Y-36007500D02*
X187900000Y-38277500D01*
X187900000Y-38277500D02*
X191960000Y-38277500D01*
X202445436Y-35032500D02*
X203649564Y-35032500D01*
X202445436Y-36852500D02*
X203649564Y-36852500D01*
X223807500Y-37221233D02*
X223807500Y-37563767D01*
X222787500Y-37221233D02*
X222787500Y-37563767D01*
X208557500Y-37563767D02*
X208557500Y-37221233D01*
X207537500Y-37563767D02*
X207537500Y-37221233D01*
X196676233Y-36452500D02*
X197018767Y-36452500D01*
X196676233Y-35432500D02*
X197018767Y-35432500D01*
X150347500Y-37273767D02*
X150347500Y-36931233D01*
X151367500Y-37273767D02*
X151367500Y-36931233D01*
X198851233Y-43452500D02*
X199193767Y-43452500D01*
X198851233Y-42432500D02*
X199193767Y-42432500D01*
X159718767Y-53552500D02*
X159376233Y-53552500D01*
X159718767Y-52532500D02*
X159376233Y-52532500D01*
X353750000Y-45743750D02*
X354750000Y-45743750D01*
X354250000Y-45243750D02*
X354250000Y-46243750D01*
X360350000Y-49243750D02*
X360350000Y-51643750D01*
X360350000Y-44443750D02*
X360350000Y-47043750D01*
X360350000Y-39843750D02*
X360350000Y-42243750D01*
X347050000Y-41643750D02*
X346750000Y-41943750D01*
X346450000Y-41643750D02*
X347050000Y-41643750D01*
X346750000Y-41943750D02*
X346450000Y-41643750D01*
X348150000Y-39843750D02*
X348150000Y-51643750D01*
X352250000Y-39843750D02*
X348150000Y-39843750D01*
X352250000Y-51643750D02*
X348150000Y-51643750D01*
X360350000Y-51643750D02*
X356250000Y-51643750D01*
X356250000Y-39843750D02*
X360350000Y-39843750D01*
X357250000Y-45743750D02*
G75*
G03X357250000Y-45743750I-3000000J0D01*
G01*
D12*
X174622500Y-53267500D02*
X174622500Y-52692500D01*
X164272500Y-53267500D02*
X164272500Y-52592500D01*
X164272500Y-42917500D02*
X164272500Y-43592500D01*
X174622500Y-42917500D02*
X174622500Y-43592500D01*
X174622500Y-53267500D02*
X173947500Y-53267500D01*
X174622500Y-42917500D02*
X173947500Y-42917500D01*
X164272500Y-42917500D02*
X164947500Y-42917500D01*
X164272500Y-53267500D02*
X164947500Y-53267500D01*
X174622500Y-52692500D02*
X175897500Y-52692500D01*
D14*
X166897500Y-35042500D02*
X166897500Y-38742500D01*
X166897500Y-38742500D02*
X172197500Y-38742500D01*
D12*
X140895002Y-41694917D02*
X140561642Y-41218688D01*
X140323528Y-41694917D02*
X140323528Y-40694837D01*
X140704511Y-40694837D01*
X140799757Y-40742460D01*
X140847380Y-40790082D01*
X140895002Y-40885328D01*
X140895002Y-41028197D01*
X140847380Y-41123442D01*
X140799757Y-41171065D01*
X140704511Y-41218688D01*
X140323528Y-41218688D01*
X141323608Y-41171065D02*
X141656968Y-41171065D01*
X141799837Y-41694917D02*
X141323608Y-41694917D01*
X141323608Y-40694837D01*
X141799837Y-40694837D01*
X142180820Y-41647294D02*
X142323688Y-41694917D01*
X142561802Y-41694917D01*
X142657048Y-41647294D01*
X142704671Y-41599671D01*
X142752294Y-41504425D01*
X142752294Y-41409180D01*
X142704671Y-41313934D01*
X142657048Y-41266311D01*
X142561802Y-41218688D01*
X142371311Y-41171065D01*
X142276065Y-41123442D01*
X142228442Y-41075820D01*
X142180820Y-40980574D01*
X142180820Y-40885328D01*
X142228442Y-40790082D01*
X142276065Y-40742460D01*
X142371311Y-40694837D01*
X142609425Y-40694837D01*
X142752294Y-40742460D01*
X143180900Y-41171065D02*
X143514260Y-41171065D01*
X143657128Y-41694917D02*
X143180900Y-41694917D01*
X143180900Y-40694837D01*
X143657128Y-40694837D01*
X143942865Y-40694837D02*
X144514340Y-40694837D01*
X144228602Y-41694917D02*
X144228602Y-40694837D01*
X194285595Y-40390119D02*
X194333214Y-40342500D01*
X194428452Y-40294880D01*
X194666547Y-40294880D01*
X194761785Y-40342500D01*
X194809404Y-40390119D01*
X194857023Y-40485357D01*
X194857023Y-40580595D01*
X194809404Y-40723452D01*
X194237976Y-41294880D01*
X194857023Y-41294880D01*
X195237976Y-40390119D02*
X195285595Y-40342500D01*
X195380833Y-40294880D01*
X195618928Y-40294880D01*
X195714166Y-40342500D01*
X195761785Y-40390119D01*
X195809404Y-40485357D01*
X195809404Y-40580595D01*
X195761785Y-40723452D01*
X195190357Y-41294880D01*
X195809404Y-41294880D01*
X196809404Y-41294880D02*
X196476071Y-40818690D01*
X196237976Y-41294880D02*
X196237976Y-40294880D01*
X196618928Y-40294880D01*
X196714166Y-40342500D01*
X196761785Y-40390119D01*
X196809404Y-40485357D01*
X196809404Y-40628214D01*
X196761785Y-40723452D01*
X196714166Y-40771071D01*
X196618928Y-40818690D01*
X196237976Y-40818690D01*
X185261642Y-148876974D02*
X185928308Y-148876974D01*
X185499737Y-149876974D01*
X186309261Y-148876974D02*
X186309261Y-149686498D01*
X186356880Y-149781736D01*
X186404499Y-149829355D01*
X186499737Y-149876974D01*
X186690213Y-149876974D01*
X186785451Y-149829355D01*
X186833070Y-149781736D01*
X186880689Y-149686498D01*
X186880689Y-148876974D01*
X191994840Y-148996974D02*
X191804364Y-148996974D01*
X191709126Y-149044594D01*
X191661507Y-149092213D01*
X191566269Y-149235070D01*
X191518650Y-149425546D01*
X191518650Y-149806498D01*
X191566269Y-149901736D01*
X191613888Y-149949355D01*
X191709126Y-149996974D01*
X191899602Y-149996974D01*
X191994840Y-149949355D01*
X192042459Y-149901736D01*
X192090078Y-149806498D01*
X192090078Y-149568403D01*
X192042459Y-149473165D01*
X191994840Y-149425546D01*
X191899602Y-149377927D01*
X191709126Y-149377927D01*
X191613888Y-149425546D01*
X191566269Y-149473165D01*
X191518650Y-149568403D01*
X192518650Y-149901736D02*
X192566269Y-149949355D01*
X192518650Y-149996974D01*
X192471030Y-149949355D01*
X192518650Y-149901736D01*
X192518650Y-149996974D01*
X192947221Y-149092213D02*
X192994840Y-149044594D01*
X193090078Y-148996974D01*
X193328173Y-148996974D01*
X193423411Y-149044594D01*
X193471030Y-149092213D01*
X193518650Y-149187451D01*
X193518650Y-149282689D01*
X193471030Y-149425546D01*
X192899602Y-149996974D01*
X193518650Y-149996974D01*
X194423411Y-148996974D02*
X193947221Y-148996974D01*
X193899602Y-149473165D01*
X193947221Y-149425546D01*
X194042459Y-149377927D01*
X194280554Y-149377927D01*
X194375792Y-149425546D01*
X194423411Y-149473165D01*
X194471030Y-149568403D01*
X194471030Y-149806498D01*
X194423411Y-149901736D01*
X194375792Y-149949355D01*
X194280554Y-149996974D01*
X194042459Y-149996974D01*
X193947221Y-149949355D01*
X193899602Y-149901736D01*
X194899602Y-148996974D02*
X194899602Y-149806498D01*
X194947221Y-149901736D01*
X194994840Y-149949355D01*
X195090078Y-149996974D01*
X195280554Y-149996974D01*
X195375792Y-149949355D01*
X195423411Y-149901736D01*
X195471030Y-149806498D01*
X195471030Y-148996974D01*
X158923690Y-36590119D02*
X158971309Y-36542500D01*
X159066547Y-36494880D01*
X159304642Y-36494880D01*
X159399880Y-36542500D01*
X159447500Y-36590119D01*
X159495119Y-36685357D01*
X159495119Y-36780595D01*
X159447500Y-36923452D01*
X158876071Y-37494880D01*
X159495119Y-37494880D01*
X159876071Y-36590119D02*
X159923690Y-36542500D01*
X160018928Y-36494880D01*
X160257023Y-36494880D01*
X160352261Y-36542500D01*
X160399880Y-36590119D01*
X160447500Y-36685357D01*
X160447500Y-36780595D01*
X160399880Y-36923452D01*
X159828452Y-37494880D01*
X160447500Y-37494880D01*
X161637976Y-36828214D02*
X161637976Y-37828214D01*
X161637976Y-36875833D02*
X161733214Y-36828214D01*
X161923690Y-36828214D01*
X162018928Y-36875833D01*
X162066547Y-36923452D01*
X162114166Y-37018690D01*
X162114166Y-37304404D01*
X162066547Y-37399642D01*
X162018928Y-37447261D01*
X161923690Y-37494880D01*
X161733214Y-37494880D01*
X161637976Y-37447261D01*
X162876071Y-36971071D02*
X162542738Y-36971071D01*
X162542738Y-37494880D02*
X162542738Y-36494880D01*
X163018928Y-36494880D01*
X183104642Y-39094880D02*
X183199880Y-39094880D01*
X183295119Y-39142500D01*
X183342738Y-39190119D01*
X183390357Y-39285357D01*
X183437976Y-39475833D01*
X183437976Y-39713928D01*
X183390357Y-39904404D01*
X183342738Y-39999642D01*
X183295119Y-40047261D01*
X183199880Y-40094880D01*
X183104642Y-40094880D01*
X183009404Y-40047261D01*
X182961785Y-39999642D01*
X182914166Y-39904404D01*
X182866547Y-39713928D01*
X182866547Y-39475833D01*
X182914166Y-39285357D01*
X182961785Y-39190119D01*
X183009404Y-39142500D01*
X183104642Y-39094880D01*
X183866547Y-39999642D02*
X183914166Y-40047261D01*
X183866547Y-40094880D01*
X183818928Y-40047261D01*
X183866547Y-39999642D01*
X183866547Y-40094880D01*
X184866547Y-40094880D02*
X184295119Y-40094880D01*
X184580833Y-40094880D02*
X184580833Y-39094880D01*
X184485595Y-39237738D01*
X184390357Y-39332976D01*
X184295119Y-39380595D01*
X185723690Y-39428214D02*
X185723690Y-40094880D01*
X185295119Y-39428214D02*
X185295119Y-39952023D01*
X185342738Y-40047261D01*
X185437976Y-40094880D01*
X185580833Y-40094880D01*
X185676071Y-40047261D01*
X185723690Y-39999642D01*
X186533214Y-39571071D02*
X186199880Y-39571071D01*
X186199880Y-40094880D02*
X186199880Y-39094880D01*
X186676071Y-39094880D01*
X158904642Y-59094880D02*
X158999880Y-59094880D01*
X159095119Y-59142500D01*
X159142738Y-59190119D01*
X159190357Y-59285357D01*
X159237976Y-59475833D01*
X159237976Y-59713928D01*
X159190357Y-59904404D01*
X159142738Y-59999642D01*
X159095119Y-60047261D01*
X158999880Y-60094880D01*
X158904642Y-60094880D01*
X158809404Y-60047261D01*
X158761785Y-59999642D01*
X158714166Y-59904404D01*
X158666547Y-59713928D01*
X158666547Y-59475833D01*
X158714166Y-59285357D01*
X158761785Y-59190119D01*
X158809404Y-59142500D01*
X158904642Y-59094880D01*
X159666547Y-59999642D02*
X159714166Y-60047261D01*
X159666547Y-60094880D01*
X159618928Y-60047261D01*
X159666547Y-59999642D01*
X159666547Y-60094880D01*
X160666547Y-60094880D02*
X160095119Y-60094880D01*
X160380833Y-60094880D02*
X160380833Y-59094880D01*
X160285595Y-59237738D01*
X160190357Y-59332976D01*
X160095119Y-59380595D01*
X161523690Y-59428214D02*
X161523690Y-60094880D01*
X161095119Y-59428214D02*
X161095119Y-59952023D01*
X161142738Y-60047261D01*
X161237976Y-60094880D01*
X161380833Y-60094880D01*
X161476071Y-60047261D01*
X161523690Y-59999642D01*
X162333214Y-59571071D02*
X161999880Y-59571071D01*
X161999880Y-60094880D02*
X161999880Y-59094880D01*
X162476071Y-59094880D01*
X157304642Y-43094880D02*
X157399880Y-43094880D01*
X157495119Y-43142500D01*
X157542738Y-43190119D01*
X157590357Y-43285357D01*
X157637976Y-43475833D01*
X157637976Y-43713928D01*
X157590357Y-43904404D01*
X157542738Y-43999642D01*
X157495119Y-44047261D01*
X157399880Y-44094880D01*
X157304642Y-44094880D01*
X157209404Y-44047261D01*
X157161785Y-43999642D01*
X157114166Y-43904404D01*
X157066547Y-43713928D01*
X157066547Y-43475833D01*
X157114166Y-43285357D01*
X157161785Y-43190119D01*
X157209404Y-43142500D01*
X157304642Y-43094880D01*
X158066547Y-43999642D02*
X158114166Y-44047261D01*
X158066547Y-44094880D01*
X158018928Y-44047261D01*
X158066547Y-43999642D01*
X158066547Y-44094880D01*
X159066547Y-44094880D02*
X158495119Y-44094880D01*
X158780833Y-44094880D02*
X158780833Y-43094880D01*
X158685595Y-43237738D01*
X158590357Y-43332976D01*
X158495119Y-43380595D01*
X159923690Y-43428214D02*
X159923690Y-44094880D01*
X159495119Y-43428214D02*
X159495119Y-43952023D01*
X159542738Y-44047261D01*
X159637976Y-44094880D01*
X159780833Y-44094880D01*
X159876071Y-44047261D01*
X159923690Y-43999642D01*
X160733214Y-43571071D02*
X160399880Y-43571071D01*
X160399880Y-44094880D02*
X160399880Y-43094880D01*
X160876071Y-43094880D01*
X176123690Y-36390119D02*
X176171309Y-36342500D01*
X176266547Y-36294880D01*
X176504642Y-36294880D01*
X176599880Y-36342500D01*
X176647500Y-36390119D01*
X176695119Y-36485357D01*
X176695119Y-36580595D01*
X176647500Y-36723452D01*
X176076071Y-37294880D01*
X176695119Y-37294880D01*
X177076071Y-36390119D02*
X177123690Y-36342500D01*
X177218928Y-36294880D01*
X177457023Y-36294880D01*
X177552261Y-36342500D01*
X177599880Y-36390119D01*
X177647500Y-36485357D01*
X177647500Y-36580595D01*
X177599880Y-36723452D01*
X177028452Y-37294880D01*
X177647500Y-37294880D01*
X178837976Y-36628214D02*
X178837976Y-37628214D01*
X178837976Y-36675833D02*
X178933214Y-36628214D01*
X179123690Y-36628214D01*
X179218928Y-36675833D01*
X179266547Y-36723452D01*
X179314166Y-36818690D01*
X179314166Y-37104404D01*
X179266547Y-37199642D01*
X179218928Y-37247261D01*
X179123690Y-37294880D01*
X178933214Y-37294880D01*
X178837976Y-37247261D01*
X180076071Y-36771071D02*
X179742738Y-36771071D01*
X179742738Y-37294880D02*
X179742738Y-36294880D01*
X180218928Y-36294880D01*
X178276071Y-54894880D02*
X177704642Y-54894880D01*
X177990357Y-54894880D02*
X177990357Y-53894880D01*
X177895119Y-54037738D01*
X177799880Y-54132976D01*
X177704642Y-54180595D01*
X178895119Y-53894880D02*
X178990357Y-53894880D01*
X179085595Y-53942500D01*
X179133214Y-53990119D01*
X179180833Y-54085357D01*
X179228452Y-54275833D01*
X179228452Y-54513928D01*
X179180833Y-54704404D01*
X179133214Y-54799642D01*
X179085595Y-54847261D01*
X178990357Y-54894880D01*
X178895119Y-54894880D01*
X178799880Y-54847261D01*
X178752261Y-54799642D01*
X178704642Y-54704404D01*
X178657023Y-54513928D01*
X178657023Y-54275833D01*
X178704642Y-54085357D01*
X178752261Y-53990119D01*
X178799880Y-53942500D01*
X178895119Y-53894880D01*
X180085595Y-54228214D02*
X180085595Y-54894880D01*
X179657023Y-54228214D02*
X179657023Y-54752023D01*
X179704642Y-54847261D01*
X179799880Y-54894880D01*
X179942738Y-54894880D01*
X180037976Y-54847261D01*
X180085595Y-54799642D01*
X180895119Y-54371071D02*
X180561785Y-54371071D01*
X180561785Y-54894880D02*
X180561785Y-53894880D01*
X181037976Y-53894880D01*
X183552261Y-44594880D02*
X182980833Y-44594880D01*
X183266547Y-44594880D02*
X183266547Y-43594880D01*
X183171309Y-43737738D01*
X183076071Y-43832976D01*
X182980833Y-43880595D01*
X184409404Y-43928214D02*
X184409404Y-44594880D01*
X183980833Y-43928214D02*
X183980833Y-44452023D01*
X184028452Y-44547261D01*
X184123690Y-44594880D01*
X184266547Y-44594880D01*
X184361785Y-44547261D01*
X184409404Y-44499642D01*
X185218928Y-44071071D02*
X184885595Y-44071071D01*
X184885595Y-44594880D02*
X184885595Y-43594880D01*
X185361785Y-43594880D01*
X189717142Y-39894880D02*
X189240952Y-39894880D01*
X189240952Y-38894880D01*
X190050476Y-39371071D02*
X190383809Y-39371071D01*
X190526666Y-39894880D02*
X190050476Y-39894880D01*
X190050476Y-38894880D01*
X190526666Y-38894880D01*
X190955238Y-39894880D02*
X190955238Y-38894880D01*
X191193333Y-38894880D01*
X191336190Y-38942500D01*
X191431428Y-39037738D01*
X191479047Y-39132976D01*
X191526666Y-39323452D01*
X191526666Y-39466309D01*
X191479047Y-39656785D01*
X191431428Y-39752023D01*
X191336190Y-39847261D01*
X191193333Y-39894880D01*
X190955238Y-39894880D01*
X200957023Y-37494880D02*
X200480833Y-37494880D01*
X200433214Y-37971071D01*
X200480833Y-37923452D01*
X200576071Y-37875833D01*
X200814166Y-37875833D01*
X200909404Y-37923452D01*
X200957023Y-37971071D01*
X201004642Y-38066309D01*
X201004642Y-38304404D01*
X200957023Y-38399642D01*
X200909404Y-38447261D01*
X200814166Y-38494880D01*
X200576071Y-38494880D01*
X200480833Y-38447261D01*
X200433214Y-38399642D01*
X201623690Y-37494880D02*
X201718928Y-37494880D01*
X201814166Y-37542500D01*
X201861785Y-37590119D01*
X201909404Y-37685357D01*
X201957023Y-37875833D01*
X201957023Y-38113928D01*
X201909404Y-38304404D01*
X201861785Y-38399642D01*
X201814166Y-38447261D01*
X201718928Y-38494880D01*
X201623690Y-38494880D01*
X201528452Y-38447261D01*
X201480833Y-38399642D01*
X201433214Y-38304404D01*
X201385595Y-38113928D01*
X201385595Y-37875833D01*
X201433214Y-37685357D01*
X201480833Y-37590119D01*
X201528452Y-37542500D01*
X201623690Y-37494880D01*
X202576071Y-37494880D02*
X202671309Y-37494880D01*
X202766547Y-37542500D01*
X202814166Y-37590119D01*
X202861785Y-37685357D01*
X202909404Y-37875833D01*
X202909404Y-38113928D01*
X202861785Y-38304404D01*
X202814166Y-38399642D01*
X202766547Y-38447261D01*
X202671309Y-38494880D01*
X202576071Y-38494880D01*
X202480833Y-38447261D01*
X202433214Y-38399642D01*
X202385595Y-38304404D01*
X202337976Y-38113928D01*
X202337976Y-37875833D01*
X202385595Y-37685357D01*
X202433214Y-37590119D01*
X202480833Y-37542500D01*
X202576071Y-37494880D01*
X204099880Y-38494880D02*
X204099880Y-37828214D01*
X204099880Y-37923452D02*
X204147500Y-37875833D01*
X204242738Y-37828214D01*
X204385595Y-37828214D01*
X204480833Y-37875833D01*
X204528452Y-37971071D01*
X204528452Y-38494880D01*
X204528452Y-37971071D02*
X204576071Y-37875833D01*
X204671309Y-37828214D01*
X204814166Y-37828214D01*
X204909404Y-37875833D01*
X204957023Y-37971071D01*
X204957023Y-38494880D01*
X205385595Y-38209166D02*
X205861785Y-38209166D01*
X205290357Y-38494880D02*
X205623690Y-37494880D01*
X205957023Y-38494880D01*
X222704642Y-39494880D02*
X222228452Y-39494880D01*
X222180833Y-39971071D01*
X222228452Y-39923452D01*
X222323690Y-39875833D01*
X222561785Y-39875833D01*
X222657023Y-39923452D01*
X222704642Y-39971071D01*
X222752261Y-40066309D01*
X222752261Y-40304404D01*
X222704642Y-40399642D01*
X222657023Y-40447261D01*
X222561785Y-40494880D01*
X222323690Y-40494880D01*
X222228452Y-40447261D01*
X222180833Y-40399642D01*
X223180833Y-40494880D02*
X223180833Y-39494880D01*
X223276071Y-40113928D02*
X223561785Y-40494880D01*
X223561785Y-39828214D02*
X223180833Y-40209166D01*
X224514166Y-40494880D02*
X223942738Y-40494880D01*
X224228452Y-40494880D02*
X224228452Y-39494880D01*
X224133214Y-39637738D01*
X224037976Y-39732976D01*
X223942738Y-39780595D01*
X207504642Y-39494880D02*
X207028452Y-39494880D01*
X206980833Y-39971071D01*
X207028452Y-39923452D01*
X207123690Y-39875833D01*
X207361785Y-39875833D01*
X207457023Y-39923452D01*
X207504642Y-39971071D01*
X207552261Y-40066309D01*
X207552261Y-40304404D01*
X207504642Y-40399642D01*
X207457023Y-40447261D01*
X207361785Y-40494880D01*
X207123690Y-40494880D01*
X207028452Y-40447261D01*
X206980833Y-40399642D01*
X207980833Y-40494880D02*
X207980833Y-39494880D01*
X208076071Y-40113928D02*
X208361785Y-40494880D01*
X208361785Y-39828214D02*
X207980833Y-40209166D01*
X209314166Y-40494880D02*
X208742738Y-40494880D01*
X209028452Y-40494880D02*
X209028452Y-39494880D01*
X208933214Y-39637738D01*
X208837976Y-39732976D01*
X208742738Y-39780595D01*
X195423690Y-38094880D02*
X194947500Y-38094880D01*
X194947500Y-37094880D01*
X195757023Y-37571071D02*
X196090357Y-37571071D01*
X196233214Y-38094880D02*
X195757023Y-38094880D01*
X195757023Y-37094880D01*
X196233214Y-37094880D01*
X196661785Y-38094880D02*
X196661785Y-37094880D01*
X196899880Y-37094880D01*
X197042738Y-37142500D01*
X197137976Y-37237738D01*
X197185595Y-37332976D01*
X197233214Y-37523452D01*
X197233214Y-37666309D01*
X197185595Y-37856785D01*
X197137976Y-37952023D01*
X197042738Y-38047261D01*
X196899880Y-38094880D01*
X196661785Y-38094880D01*
X197423690Y-38190119D02*
X198185595Y-38190119D01*
X198995119Y-38094880D02*
X198661785Y-37618690D01*
X198423690Y-38094880D02*
X198423690Y-37094880D01*
X198804642Y-37094880D01*
X198899880Y-37142500D01*
X198947500Y-37190119D01*
X198995119Y-37285357D01*
X198995119Y-37428214D01*
X198947500Y-37523452D01*
X198899880Y-37571071D01*
X198804642Y-37618690D01*
X198423690Y-37618690D01*
X152552261Y-37694880D02*
X151980833Y-37694880D01*
X152266547Y-37694880D02*
X152266547Y-36694880D01*
X152171309Y-36837738D01*
X152076071Y-36932976D01*
X151980833Y-36980595D01*
X153171309Y-36694880D02*
X153266547Y-36694880D01*
X153361785Y-36742500D01*
X153409404Y-36790119D01*
X153457023Y-36885357D01*
X153504642Y-37075833D01*
X153504642Y-37313928D01*
X153457023Y-37504404D01*
X153409404Y-37599642D01*
X153361785Y-37647261D01*
X153266547Y-37694880D01*
X153171309Y-37694880D01*
X153076071Y-37647261D01*
X153028452Y-37599642D01*
X152980833Y-37504404D01*
X152933214Y-37313928D01*
X152933214Y-37075833D01*
X152980833Y-36885357D01*
X153028452Y-36790119D01*
X153076071Y-36742500D01*
X153171309Y-36694880D01*
X153933214Y-37694880D02*
X153933214Y-36694880D01*
X154028452Y-37313928D02*
X154314166Y-37694880D01*
X154314166Y-37028214D02*
X153933214Y-37409166D01*
X201285595Y-42590119D02*
X201333214Y-42542500D01*
X201428452Y-42494880D01*
X201666547Y-42494880D01*
X201761785Y-42542500D01*
X201809404Y-42590119D01*
X201857023Y-42685357D01*
X201857023Y-42780595D01*
X201809404Y-42923452D01*
X201237976Y-43494880D01*
X201857023Y-43494880D01*
X202237976Y-42590119D02*
X202285595Y-42542500D01*
X202380833Y-42494880D01*
X202618928Y-42494880D01*
X202714166Y-42542500D01*
X202761785Y-42590119D01*
X202809404Y-42685357D01*
X202809404Y-42780595D01*
X202761785Y-42923452D01*
X202190357Y-43494880D01*
X202809404Y-43494880D01*
X203809404Y-43494880D02*
X203476071Y-43018690D01*
X203237976Y-43494880D02*
X203237976Y-42494880D01*
X203618928Y-42494880D01*
X203714166Y-42542500D01*
X203761785Y-42590119D01*
X203809404Y-42685357D01*
X203809404Y-42828214D01*
X203761785Y-42923452D01*
X203714166Y-42971071D01*
X203618928Y-43018690D01*
X203237976Y-43018690D01*
X158952261Y-51894880D02*
X158380833Y-51894880D01*
X158666547Y-51894880D02*
X158666547Y-50894880D01*
X158571309Y-51037738D01*
X158476071Y-51132976D01*
X158380833Y-51180595D01*
X159571309Y-50894880D02*
X159666547Y-50894880D01*
X159761785Y-50942500D01*
X159809404Y-50990119D01*
X159857023Y-51085357D01*
X159904642Y-51275833D01*
X159904642Y-51513928D01*
X159857023Y-51704404D01*
X159809404Y-51799642D01*
X159761785Y-51847261D01*
X159666547Y-51894880D01*
X159571309Y-51894880D01*
X159476071Y-51847261D01*
X159428452Y-51799642D01*
X159380833Y-51704404D01*
X159333214Y-51513928D01*
X159333214Y-51275833D01*
X159380833Y-51085357D01*
X159428452Y-50990119D01*
X159476071Y-50942500D01*
X159571309Y-50894880D01*
X160333214Y-51894880D02*
X160333214Y-50894880D01*
X160428452Y-51513928D02*
X160714166Y-51894880D01*
X160714166Y-51228214D02*
X160333214Y-51609166D01*
X352680833Y-36771071D02*
X353014166Y-36771071D01*
X353157023Y-37294880D02*
X352680833Y-37294880D01*
X352680833Y-36294880D01*
X353157023Y-36294880D01*
X354157023Y-37199642D02*
X354109404Y-37247261D01*
X353966547Y-37294880D01*
X353871309Y-37294880D01*
X353728452Y-37247261D01*
X353633214Y-37152023D01*
X353585595Y-37056785D01*
X353537976Y-36866309D01*
X353537976Y-36723452D01*
X353585595Y-36532976D01*
X353633214Y-36437738D01*
X353728452Y-36342500D01*
X353871309Y-36294880D01*
X353966547Y-36294880D01*
X354109404Y-36342500D01*
X354157023Y-36390119D01*
X355109404Y-37294880D02*
X354537976Y-37294880D01*
X354823690Y-37294880D02*
X354823690Y-36294880D01*
X354728452Y-36437738D01*
X354633214Y-36532976D01*
X354537976Y-36580595D01*
X356061785Y-37294880D02*
X355490357Y-37294880D01*
X355776071Y-37294880D02*
X355776071Y-36294880D01*
X355680833Y-36437738D01*
X355585595Y-36532976D01*
X355490357Y-36580595D01*
X165590357Y-48494880D02*
X165590357Y-47494880D01*
X165923690Y-48209166D01*
X166257023Y-47494880D01*
X166257023Y-48494880D01*
X166637976Y-47494880D02*
X167257023Y-47494880D01*
X166923690Y-47875833D01*
X167066547Y-47875833D01*
X167161785Y-47923452D01*
X167209404Y-47971071D01*
X167257023Y-48066309D01*
X167257023Y-48304404D01*
X167209404Y-48399642D01*
X167161785Y-48447261D01*
X167066547Y-48494880D01*
X166780833Y-48494880D01*
X166685595Y-48447261D01*
X166637976Y-48399642D01*
X167637976Y-47590119D02*
X167685595Y-47542500D01*
X167780833Y-47494880D01*
X168018928Y-47494880D01*
X168114166Y-47542500D01*
X168161785Y-47590119D01*
X168209404Y-47685357D01*
X168209404Y-47780595D01*
X168161785Y-47923452D01*
X167590357Y-48494880D01*
X168209404Y-48494880D01*
X168637976Y-47494880D02*
X168637976Y-48304404D01*
X168685595Y-48399642D01*
X168733214Y-48447261D01*
X168828452Y-48494880D01*
X169018928Y-48494880D01*
X169114166Y-48447261D01*
X169161785Y-48399642D01*
X169209404Y-48304404D01*
X169209404Y-47494880D01*
X170114166Y-47828214D02*
X170114166Y-48494880D01*
X169876071Y-47447261D02*
X169637976Y-48161547D01*
X170257023Y-48161547D01*
X170637976Y-48113928D02*
X171399880Y-48113928D01*
X171828452Y-48209166D02*
X172304642Y-48209166D01*
X171733214Y-48494880D02*
X172066547Y-47494880D01*
X172399880Y-48494880D01*
X172733214Y-47494880D02*
X172733214Y-48304404D01*
X172780833Y-48399642D01*
X172828452Y-48447261D01*
X172923690Y-48494880D01*
X173114166Y-48494880D01*
X173209404Y-48447261D01*
X173257023Y-48399642D01*
X173304642Y-48304404D01*
X173304642Y-47494880D01*
X219785595Y-42494880D02*
X219785595Y-43304404D01*
X219833214Y-43399642D01*
X219880833Y-43447261D01*
X219976071Y-43494880D01*
X220166547Y-43494880D01*
X220261785Y-43447261D01*
X220309404Y-43399642D01*
X220357023Y-43304404D01*
X220357023Y-42494880D01*
X220785595Y-43447261D02*
X220928452Y-43494880D01*
X221166547Y-43494880D01*
X221261785Y-43447261D01*
X221309404Y-43399642D01*
X221357023Y-43304404D01*
X221357023Y-43209166D01*
X221309404Y-43113928D01*
X221261785Y-43066309D01*
X221166547Y-43018690D01*
X220976071Y-42971071D01*
X220880833Y-42923452D01*
X220833214Y-42875833D01*
X220785595Y-42780595D01*
X220785595Y-42685357D01*
X220833214Y-42590119D01*
X220880833Y-42542500D01*
X220976071Y-42494880D01*
X221214166Y-42494880D01*
X221357023Y-42542500D01*
X222118928Y-42971071D02*
X222261785Y-43018690D01*
X222309404Y-43066309D01*
X222357023Y-43161547D01*
X222357023Y-43304404D01*
X222309404Y-43399642D01*
X222261785Y-43447261D01*
X222166547Y-43494880D01*
X221785595Y-43494880D01*
X221785595Y-42494880D01*
X222118928Y-42494880D01*
X222214166Y-42542500D01*
X222261785Y-42590119D01*
X222309404Y-42685357D01*
X222309404Y-42780595D01*
X222261785Y-42875833D01*
X222214166Y-42923452D01*
X222118928Y-42971071D01*
X221785595Y-42971071D01*
X223357023Y-43399642D02*
X223309404Y-43447261D01*
X223166547Y-43494880D01*
X223071309Y-43494880D01*
X222928452Y-43447261D01*
X222833214Y-43352023D01*
X222785595Y-43256785D01*
X222737976Y-43066309D01*
X222737976Y-42923452D01*
X222785595Y-42732976D01*
X222833214Y-42637738D01*
X222928452Y-42542500D01*
X223071309Y-42494880D01*
X223166547Y-42494880D01*
X223309404Y-42542500D01*
X223357023Y-42590119D01*
X167476071Y-40294880D02*
X166904642Y-40294880D01*
X167190357Y-40294880D02*
X167190357Y-39294880D01*
X167095119Y-39437738D01*
X166999880Y-39532976D01*
X166904642Y-39580595D01*
X168333214Y-39294880D02*
X168142738Y-39294880D01*
X168047500Y-39342500D01*
X167999880Y-39390119D01*
X167904642Y-39532976D01*
X167857023Y-39723452D01*
X167857023Y-40104404D01*
X167904642Y-40199642D01*
X167952261Y-40247261D01*
X168047500Y-40294880D01*
X168237976Y-40294880D01*
X168333214Y-40247261D01*
X168380833Y-40199642D01*
X168428452Y-40104404D01*
X168428452Y-39866309D01*
X168380833Y-39771071D01*
X168333214Y-39723452D01*
X168237976Y-39675833D01*
X168047500Y-39675833D01*
X167952261Y-39723452D01*
X167904642Y-39771071D01*
X167857023Y-39866309D01*
X169618928Y-40294880D02*
X169618928Y-39294880D01*
X169952261Y-40009166D01*
X170285595Y-39294880D01*
X170285595Y-40294880D01*
X170761785Y-40294880D02*
X170761785Y-39294880D01*
X170761785Y-39771071D02*
X171333214Y-39771071D01*
X171333214Y-40294880D02*
X171333214Y-39294880D01*
X171714166Y-39628214D02*
X172237976Y-39628214D01*
X171714166Y-40294880D01*
X172237976Y-40294880D01*
%LPC*%
D15*
X214947500Y-140242500D03*
X301447500Y-126942500D03*
X102647500Y-126742500D03*
X214947500Y-78142500D03*
X300697500Y-78142500D03*
X129197500Y-78142500D03*
D16*
X145347500Y-39022500D03*
X139147500Y-39022500D03*
X145347500Y-35322500D03*
X139147500Y-35322500D03*
D17*
X83200000Y-46150000D03*
X79700000Y-46150000D03*
X86600000Y-46150000D03*
X90100000Y-46150000D03*
X87800000Y-50000000D03*
X91300000Y-50000000D03*
X74197500Y-49992500D03*
X70697500Y-49992500D03*
X89800000Y-53750000D03*
X93300000Y-53750000D03*
X72197500Y-53742500D03*
X68697500Y-53742500D03*
X91800000Y-57500000D03*
X95300000Y-57500000D03*
X70200000Y-57512500D03*
X66700000Y-57512500D03*
X76200000Y-46150000D03*
X72700000Y-46150000D03*
D18*
G36*
X198511279Y-40417766D02*
G01*
X198536809Y-40421553D01*
X198561845Y-40427825D01*
X198586146Y-40436520D01*
X198609477Y-40447555D01*
X198631615Y-40460823D01*
X198652345Y-40476198D01*
X198671469Y-40493531D01*
X198688802Y-40512655D01*
X198704177Y-40533385D01*
X198717445Y-40555523D01*
X198728480Y-40578854D01*
X198737175Y-40603155D01*
X198743447Y-40628191D01*
X198747234Y-40653721D01*
X198748500Y-40679500D01*
X198748500Y-41205500D01*
X198747234Y-41231279D01*
X198743447Y-41256809D01*
X198737175Y-41281845D01*
X198728480Y-41306146D01*
X198717445Y-41329477D01*
X198704177Y-41351615D01*
X198688802Y-41372345D01*
X198671469Y-41391469D01*
X198652345Y-41408802D01*
X198631615Y-41424177D01*
X198609477Y-41437445D01*
X198586146Y-41448480D01*
X198561845Y-41457175D01*
X198536809Y-41463447D01*
X198511279Y-41467234D01*
X198485500Y-41468500D01*
X197859500Y-41468500D01*
X197833721Y-41467234D01*
X197808191Y-41463447D01*
X197783155Y-41457175D01*
X197758854Y-41448480D01*
X197735523Y-41437445D01*
X197713385Y-41424177D01*
X197692655Y-41408802D01*
X197673531Y-41391469D01*
X197656198Y-41372345D01*
X197640823Y-41351615D01*
X197627555Y-41329477D01*
X197616520Y-41306146D01*
X197607825Y-41281845D01*
X197601553Y-41256809D01*
X197597766Y-41231279D01*
X197596500Y-41205500D01*
X197596500Y-40679500D01*
X197597766Y-40653721D01*
X197601553Y-40628191D01*
X197607825Y-40603155D01*
X197616520Y-40578854D01*
X197627555Y-40555523D01*
X197640823Y-40533385D01*
X197656198Y-40512655D01*
X197673531Y-40493531D01*
X197692655Y-40476198D01*
X197713385Y-40460823D01*
X197735523Y-40447555D01*
X197758854Y-40436520D01*
X197783155Y-40427825D01*
X197808191Y-40421553D01*
X197833721Y-40417766D01*
X197859500Y-40416500D01*
X198485500Y-40416500D01*
X198511279Y-40417766D01*
G37*
G36*
X200261279Y-40417766D02*
G01*
X200286809Y-40421553D01*
X200311845Y-40427825D01*
X200336146Y-40436520D01*
X200359477Y-40447555D01*
X200381615Y-40460823D01*
X200402345Y-40476198D01*
X200421469Y-40493531D01*
X200438802Y-40512655D01*
X200454177Y-40533385D01*
X200467445Y-40555523D01*
X200478480Y-40578854D01*
X200487175Y-40603155D01*
X200493447Y-40628191D01*
X200497234Y-40653721D01*
X200498500Y-40679500D01*
X200498500Y-41205500D01*
X200497234Y-41231279D01*
X200493447Y-41256809D01*
X200487175Y-41281845D01*
X200478480Y-41306146D01*
X200467445Y-41329477D01*
X200454177Y-41351615D01*
X200438802Y-41372345D01*
X200421469Y-41391469D01*
X200402345Y-41408802D01*
X200381615Y-41424177D01*
X200359477Y-41437445D01*
X200336146Y-41448480D01*
X200311845Y-41457175D01*
X200286809Y-41463447D01*
X200261279Y-41467234D01*
X200235500Y-41468500D01*
X199609500Y-41468500D01*
X199583721Y-41467234D01*
X199558191Y-41463447D01*
X199533155Y-41457175D01*
X199508854Y-41448480D01*
X199485523Y-41437445D01*
X199463385Y-41424177D01*
X199442655Y-41408802D01*
X199423531Y-41391469D01*
X199406198Y-41372345D01*
X199390823Y-41351615D01*
X199377555Y-41329477D01*
X199366520Y-41306146D01*
X199357825Y-41281845D01*
X199351553Y-41256809D01*
X199347766Y-41231279D01*
X199346500Y-41205500D01*
X199346500Y-40679500D01*
X199347766Y-40653721D01*
X199351553Y-40628191D01*
X199357825Y-40603155D01*
X199366520Y-40578854D01*
X199377555Y-40555523D01*
X199390823Y-40533385D01*
X199406198Y-40512655D01*
X199423531Y-40493531D01*
X199442655Y-40476198D01*
X199463385Y-40460823D01*
X199485523Y-40447555D01*
X199508854Y-40436520D01*
X199533155Y-40427825D01*
X199558191Y-40421553D01*
X199583721Y-40417766D01*
X199609500Y-40416500D01*
X200235500Y-40416500D01*
X200261279Y-40417766D01*
G37*
D17*
X315350000Y-53600000D03*
X318850000Y-53600000D03*
D19*
X284162500Y-141287500D03*
X277812500Y-143827500D03*
D20*
X281622500Y-146367500D03*
D21*
X276542500Y-146367500D03*
X286702500Y-146367500D03*
D19*
X265112500Y-141287500D03*
X258762500Y-143827500D03*
D20*
X262572500Y-146367500D03*
D21*
X257492500Y-146367500D03*
X267652500Y-146367500D03*
D17*
X355750000Y-56000000D03*
X352250000Y-56000000D03*
X274750000Y-46050000D03*
X271250000Y-46050000D03*
X328247500Y-57352500D03*
X324747500Y-57352500D03*
X307950000Y-46050000D03*
X304450000Y-46050000D03*
X301050000Y-46050000D03*
X297550000Y-46050000D03*
X267850000Y-46050000D03*
X264350000Y-46050000D03*
X234650000Y-46050000D03*
X231150000Y-46050000D03*
X200800000Y-46050000D03*
X197300000Y-46050000D03*
X115600000Y-46150000D03*
X112100000Y-46150000D03*
X330297500Y-53592500D03*
X326797500Y-53592500D03*
X311350000Y-46050000D03*
X314850000Y-46050000D03*
X299050000Y-49850000D03*
X295550000Y-49850000D03*
X278150000Y-46050000D03*
X281650000Y-46050000D03*
X260950000Y-46050000D03*
X257450000Y-46050000D03*
X238050000Y-46050000D03*
X241550000Y-46050000D03*
X227750000Y-46050000D03*
X224250000Y-46050000D03*
X204200000Y-46050000D03*
X207700000Y-46050000D03*
X193900000Y-46050000D03*
X190400000Y-46050000D03*
X145300000Y-46150000D03*
X148800000Y-46150000D03*
X141900000Y-46150000D03*
X138400000Y-46150000D03*
X119000000Y-46150000D03*
X122500000Y-46150000D03*
X108700000Y-46150000D03*
X105200000Y-46150000D03*
X332297500Y-49852500D03*
X328797500Y-49852500D03*
X313350000Y-49850000D03*
X316850000Y-49850000D03*
X280150000Y-49850000D03*
X283650000Y-49850000D03*
X258950000Y-49850000D03*
X255450000Y-49850000D03*
X240050000Y-49850000D03*
X243550000Y-49850000D03*
X225650000Y-49800000D03*
X222150000Y-49800000D03*
X206200000Y-49800000D03*
X209700000Y-49800000D03*
X191900000Y-49800000D03*
X188400000Y-49800000D03*
X147350000Y-49900000D03*
X150850000Y-49900000D03*
X139900000Y-49900000D03*
X136400000Y-49900000D03*
X121000000Y-49900000D03*
X124500000Y-49900000D03*
X106700000Y-50000000D03*
X103200000Y-50000000D03*
X334297500Y-46042500D03*
X330797500Y-46042500D03*
X297050000Y-53600000D03*
X293550000Y-53600000D03*
X282150000Y-53600000D03*
X285650000Y-53600000D03*
X256950000Y-53600000D03*
X253450000Y-53600000D03*
X242050000Y-53600000D03*
X245550000Y-53600000D03*
X223250000Y-53550000D03*
X219750000Y-53550000D03*
X208200000Y-53550000D03*
X211700000Y-53550000D03*
X189900000Y-53550000D03*
X186400000Y-53550000D03*
X149350000Y-53650000D03*
X152850000Y-53650000D03*
X137900000Y-53650000D03*
X134400000Y-53650000D03*
X123000000Y-53650000D03*
X126500000Y-53650000D03*
X104700000Y-53750000D03*
X101200000Y-53750000D03*
X341697500Y-46042500D03*
X338197500Y-46042500D03*
X317350000Y-57350000D03*
X320850000Y-57350000D03*
X295050000Y-57350000D03*
X291550000Y-57350000D03*
X284150000Y-57350000D03*
X287650000Y-57350000D03*
X254950000Y-57350000D03*
X251450000Y-57350000D03*
X244050000Y-57350000D03*
X247550000Y-57350000D03*
X221050000Y-57300000D03*
X217550000Y-57300000D03*
X210150000Y-57300000D03*
X213650000Y-57300000D03*
X187900000Y-57300000D03*
X184400000Y-57300000D03*
X151350000Y-57400000D03*
X154850000Y-57400000D03*
X135900000Y-57400000D03*
X132400000Y-57400000D03*
X125000000Y-57400000D03*
X128500000Y-57400000D03*
X102700000Y-57500000D03*
X99200000Y-57500000D03*
D22*
X243531250Y-138112500D03*
X129231250Y-138112500D03*
D23*
X243531250Y-153352500D03*
X129231250Y-153352500D03*
X143518750Y-153352500D03*
X243518550Y-153352500D03*
D22*
X143518750Y-138112500D03*
X243518550Y-138112500D03*
D18*
G36*
X164336279Y-37192766D02*
G01*
X164361809Y-37196553D01*
X164386845Y-37202825D01*
X164411146Y-37211520D01*
X164434477Y-37222555D01*
X164456615Y-37235823D01*
X164477345Y-37251198D01*
X164496469Y-37268531D01*
X164513802Y-37287655D01*
X164529177Y-37308385D01*
X164542445Y-37330523D01*
X164553480Y-37353854D01*
X164562175Y-37378155D01*
X164568447Y-37403191D01*
X164572234Y-37428721D01*
X164573500Y-37454500D01*
X164573500Y-38080500D01*
X164572234Y-38106279D01*
X164568447Y-38131809D01*
X164562175Y-38156845D01*
X164553480Y-38181146D01*
X164542445Y-38204477D01*
X164529177Y-38226615D01*
X164513802Y-38247345D01*
X164496469Y-38266469D01*
X164477345Y-38283802D01*
X164456615Y-38299177D01*
X164434477Y-38312445D01*
X164411146Y-38323480D01*
X164386845Y-38332175D01*
X164361809Y-38338447D01*
X164336279Y-38342234D01*
X164310500Y-38343500D01*
X163784500Y-38343500D01*
X163758721Y-38342234D01*
X163733191Y-38338447D01*
X163708155Y-38332175D01*
X163683854Y-38323480D01*
X163660523Y-38312445D01*
X163638385Y-38299177D01*
X163617655Y-38283802D01*
X163598531Y-38266469D01*
X163581198Y-38247345D01*
X163565823Y-38226615D01*
X163552555Y-38204477D01*
X163541520Y-38181146D01*
X163532825Y-38156845D01*
X163526553Y-38131809D01*
X163522766Y-38106279D01*
X163521500Y-38080500D01*
X163521500Y-37454500D01*
X163522766Y-37428721D01*
X163526553Y-37403191D01*
X163532825Y-37378155D01*
X163541520Y-37353854D01*
X163552555Y-37330523D01*
X163565823Y-37308385D01*
X163581198Y-37287655D01*
X163598531Y-37268531D01*
X163617655Y-37251198D01*
X163638385Y-37235823D01*
X163660523Y-37222555D01*
X163683854Y-37211520D01*
X163708155Y-37202825D01*
X163733191Y-37196553D01*
X163758721Y-37192766D01*
X163784500Y-37191500D01*
X164310500Y-37191500D01*
X164336279Y-37192766D01*
G37*
G36*
X164336279Y-35442766D02*
G01*
X164361809Y-35446553D01*
X164386845Y-35452825D01*
X164411146Y-35461520D01*
X164434477Y-35472555D01*
X164456615Y-35485823D01*
X164477345Y-35501198D01*
X164496469Y-35518531D01*
X164513802Y-35537655D01*
X164529177Y-35558385D01*
X164542445Y-35580523D01*
X164553480Y-35603854D01*
X164562175Y-35628155D01*
X164568447Y-35653191D01*
X164572234Y-35678721D01*
X164573500Y-35704500D01*
X164573500Y-36330500D01*
X164572234Y-36356279D01*
X164568447Y-36381809D01*
X164562175Y-36406845D01*
X164553480Y-36431146D01*
X164542445Y-36454477D01*
X164529177Y-36476615D01*
X164513802Y-36497345D01*
X164496469Y-36516469D01*
X164477345Y-36533802D01*
X164456615Y-36549177D01*
X164434477Y-36562445D01*
X164411146Y-36573480D01*
X164386845Y-36582175D01*
X164361809Y-36588447D01*
X164336279Y-36592234D01*
X164310500Y-36593500D01*
X163784500Y-36593500D01*
X163758721Y-36592234D01*
X163733191Y-36588447D01*
X163708155Y-36582175D01*
X163683854Y-36573480D01*
X163660523Y-36562445D01*
X163638385Y-36549177D01*
X163617655Y-36533802D01*
X163598531Y-36516469D01*
X163581198Y-36497345D01*
X163565823Y-36476615D01*
X163552555Y-36454477D01*
X163541520Y-36431146D01*
X163532825Y-36406845D01*
X163526553Y-36381809D01*
X163522766Y-36356279D01*
X163521500Y-36330500D01*
X163521500Y-35704500D01*
X163522766Y-35678721D01*
X163526553Y-35653191D01*
X163532825Y-35628155D01*
X163541520Y-35603854D01*
X163552555Y-35580523D01*
X163565823Y-35558385D01*
X163581198Y-35537655D01*
X163598531Y-35518531D01*
X163617655Y-35501198D01*
X163638385Y-35485823D01*
X163660523Y-35472555D01*
X163683854Y-35461520D01*
X163708155Y-35452825D01*
X163733191Y-35446553D01*
X163758721Y-35442766D01*
X163784500Y-35441500D01*
X164310500Y-35441500D01*
X164336279Y-35442766D01*
G37*
G36*
X182086279Y-38192766D02*
G01*
X182111809Y-38196553D01*
X182136845Y-38202825D01*
X182161146Y-38211520D01*
X182184477Y-38222555D01*
X182206615Y-38235823D01*
X182227345Y-38251198D01*
X182246469Y-38268531D01*
X182263802Y-38287655D01*
X182279177Y-38308385D01*
X182292445Y-38330523D01*
X182303480Y-38353854D01*
X182312175Y-38378155D01*
X182318447Y-38403191D01*
X182322234Y-38428721D01*
X182323500Y-38454500D01*
X182323500Y-39080500D01*
X182322234Y-39106279D01*
X182318447Y-39131809D01*
X182312175Y-39156845D01*
X182303480Y-39181146D01*
X182292445Y-39204477D01*
X182279177Y-39226615D01*
X182263802Y-39247345D01*
X182246469Y-39266469D01*
X182227345Y-39283802D01*
X182206615Y-39299177D01*
X182184477Y-39312445D01*
X182161146Y-39323480D01*
X182136845Y-39332175D01*
X182111809Y-39338447D01*
X182086279Y-39342234D01*
X182060500Y-39343500D01*
X181534500Y-39343500D01*
X181508721Y-39342234D01*
X181483191Y-39338447D01*
X181458155Y-39332175D01*
X181433854Y-39323480D01*
X181410523Y-39312445D01*
X181388385Y-39299177D01*
X181367655Y-39283802D01*
X181348531Y-39266469D01*
X181331198Y-39247345D01*
X181315823Y-39226615D01*
X181302555Y-39204477D01*
X181291520Y-39181146D01*
X181282825Y-39156845D01*
X181276553Y-39131809D01*
X181272766Y-39106279D01*
X181271500Y-39080500D01*
X181271500Y-38454500D01*
X181272766Y-38428721D01*
X181276553Y-38403191D01*
X181282825Y-38378155D01*
X181291520Y-38353854D01*
X181302555Y-38330523D01*
X181315823Y-38308385D01*
X181331198Y-38287655D01*
X181348531Y-38268531D01*
X181367655Y-38251198D01*
X181388385Y-38235823D01*
X181410523Y-38222555D01*
X181433854Y-38211520D01*
X181458155Y-38202825D01*
X181483191Y-38196553D01*
X181508721Y-38192766D01*
X181534500Y-38191500D01*
X182060500Y-38191500D01*
X182086279Y-38192766D01*
G37*
G36*
X182086279Y-39942766D02*
G01*
X182111809Y-39946553D01*
X182136845Y-39952825D01*
X182161146Y-39961520D01*
X182184477Y-39972555D01*
X182206615Y-39985823D01*
X182227345Y-40001198D01*
X182246469Y-40018531D01*
X182263802Y-40037655D01*
X182279177Y-40058385D01*
X182292445Y-40080523D01*
X182303480Y-40103854D01*
X182312175Y-40128155D01*
X182318447Y-40153191D01*
X182322234Y-40178721D01*
X182323500Y-40204500D01*
X182323500Y-40830500D01*
X182322234Y-40856279D01*
X182318447Y-40881809D01*
X182312175Y-40906845D01*
X182303480Y-40931146D01*
X182292445Y-40954477D01*
X182279177Y-40976615D01*
X182263802Y-40997345D01*
X182246469Y-41016469D01*
X182227345Y-41033802D01*
X182206615Y-41049177D01*
X182184477Y-41062445D01*
X182161146Y-41073480D01*
X182136845Y-41082175D01*
X182111809Y-41088447D01*
X182086279Y-41092234D01*
X182060500Y-41093500D01*
X181534500Y-41093500D01*
X181508721Y-41092234D01*
X181483191Y-41088447D01*
X181458155Y-41082175D01*
X181433854Y-41073480D01*
X181410523Y-41062445D01*
X181388385Y-41049177D01*
X181367655Y-41033802D01*
X181348531Y-41016469D01*
X181331198Y-40997345D01*
X181315823Y-40976615D01*
X181302555Y-40954477D01*
X181291520Y-40931146D01*
X181282825Y-40906845D01*
X181276553Y-40881809D01*
X181272766Y-40856279D01*
X181271500Y-40830500D01*
X181271500Y-40204500D01*
X181272766Y-40178721D01*
X181276553Y-40153191D01*
X181282825Y-40128155D01*
X181291520Y-40103854D01*
X181302555Y-40080523D01*
X181315823Y-40058385D01*
X181331198Y-40037655D01*
X181348531Y-40018531D01*
X181367655Y-40001198D01*
X181388385Y-39985823D01*
X181410523Y-39972555D01*
X181433854Y-39961520D01*
X181458155Y-39952825D01*
X181483191Y-39946553D01*
X181508721Y-39942766D01*
X181534500Y-39941500D01*
X182060500Y-39941500D01*
X182086279Y-39942766D01*
G37*
G36*
X165821279Y-59027766D02*
G01*
X165846809Y-59031553D01*
X165871845Y-59037825D01*
X165896146Y-59046520D01*
X165919477Y-59057555D01*
X165941615Y-59070823D01*
X165962345Y-59086198D01*
X165981469Y-59103531D01*
X165998802Y-59122655D01*
X166014177Y-59143385D01*
X166027445Y-59165523D01*
X166038480Y-59188854D01*
X166047175Y-59213155D01*
X166053447Y-59238191D01*
X166057234Y-59263721D01*
X166058500Y-59289500D01*
X166058500Y-59815500D01*
X166057234Y-59841279D01*
X166053447Y-59866809D01*
X166047175Y-59891845D01*
X166038480Y-59916146D01*
X166027445Y-59939477D01*
X166014177Y-59961615D01*
X165998802Y-59982345D01*
X165981469Y-60001469D01*
X165962345Y-60018802D01*
X165941615Y-60034177D01*
X165919477Y-60047445D01*
X165896146Y-60058480D01*
X165871845Y-60067175D01*
X165846809Y-60073447D01*
X165821279Y-60077234D01*
X165795500Y-60078500D01*
X165169500Y-60078500D01*
X165143721Y-60077234D01*
X165118191Y-60073447D01*
X165093155Y-60067175D01*
X165068854Y-60058480D01*
X165045523Y-60047445D01*
X165023385Y-60034177D01*
X165002655Y-60018802D01*
X164983531Y-60001469D01*
X164966198Y-59982345D01*
X164950823Y-59961615D01*
X164937555Y-59939477D01*
X164926520Y-59916146D01*
X164917825Y-59891845D01*
X164911553Y-59866809D01*
X164907766Y-59841279D01*
X164906500Y-59815500D01*
X164906500Y-59289500D01*
X164907766Y-59263721D01*
X164911553Y-59238191D01*
X164917825Y-59213155D01*
X164926520Y-59188854D01*
X164937555Y-59165523D01*
X164950823Y-59143385D01*
X164966198Y-59122655D01*
X164983531Y-59103531D01*
X165002655Y-59086198D01*
X165023385Y-59070823D01*
X165045523Y-59057555D01*
X165068854Y-59046520D01*
X165093155Y-59037825D01*
X165118191Y-59031553D01*
X165143721Y-59027766D01*
X165169500Y-59026500D01*
X165795500Y-59026500D01*
X165821279Y-59027766D01*
G37*
G36*
X164071279Y-59027766D02*
G01*
X164096809Y-59031553D01*
X164121845Y-59037825D01*
X164146146Y-59046520D01*
X164169477Y-59057555D01*
X164191615Y-59070823D01*
X164212345Y-59086198D01*
X164231469Y-59103531D01*
X164248802Y-59122655D01*
X164264177Y-59143385D01*
X164277445Y-59165523D01*
X164288480Y-59188854D01*
X164297175Y-59213155D01*
X164303447Y-59238191D01*
X164307234Y-59263721D01*
X164308500Y-59289500D01*
X164308500Y-59815500D01*
X164307234Y-59841279D01*
X164303447Y-59866809D01*
X164297175Y-59891845D01*
X164288480Y-59916146D01*
X164277445Y-59939477D01*
X164264177Y-59961615D01*
X164248802Y-59982345D01*
X164231469Y-60001469D01*
X164212345Y-60018802D01*
X164191615Y-60034177D01*
X164169477Y-60047445D01*
X164146146Y-60058480D01*
X164121845Y-60067175D01*
X164096809Y-60073447D01*
X164071279Y-60077234D01*
X164045500Y-60078500D01*
X163419500Y-60078500D01*
X163393721Y-60077234D01*
X163368191Y-60073447D01*
X163343155Y-60067175D01*
X163318854Y-60058480D01*
X163295523Y-60047445D01*
X163273385Y-60034177D01*
X163252655Y-60018802D01*
X163233531Y-60001469D01*
X163216198Y-59982345D01*
X163200823Y-59961615D01*
X163187555Y-59939477D01*
X163176520Y-59916146D01*
X163167825Y-59891845D01*
X163161553Y-59866809D01*
X163157766Y-59841279D01*
X163156500Y-59815500D01*
X163156500Y-59289500D01*
X163157766Y-59263721D01*
X163161553Y-59238191D01*
X163167825Y-59213155D01*
X163176520Y-59188854D01*
X163187555Y-59165523D01*
X163200823Y-59143385D01*
X163216198Y-59122655D01*
X163233531Y-59103531D01*
X163252655Y-59086198D01*
X163273385Y-59070823D01*
X163295523Y-59057555D01*
X163318854Y-59046520D01*
X163343155Y-59037825D01*
X163368191Y-59031553D01*
X163393721Y-59027766D01*
X163419500Y-59026500D01*
X164045500Y-59026500D01*
X164071279Y-59027766D01*
G37*
G36*
X156036279Y-42192766D02*
G01*
X156061809Y-42196553D01*
X156086845Y-42202825D01*
X156111146Y-42211520D01*
X156134477Y-42222555D01*
X156156615Y-42235823D01*
X156177345Y-42251198D01*
X156196469Y-42268531D01*
X156213802Y-42287655D01*
X156229177Y-42308385D01*
X156242445Y-42330523D01*
X156253480Y-42353854D01*
X156262175Y-42378155D01*
X156268447Y-42403191D01*
X156272234Y-42428721D01*
X156273500Y-42454500D01*
X156273500Y-43080500D01*
X156272234Y-43106279D01*
X156268447Y-43131809D01*
X156262175Y-43156845D01*
X156253480Y-43181146D01*
X156242445Y-43204477D01*
X156229177Y-43226615D01*
X156213802Y-43247345D01*
X156196469Y-43266469D01*
X156177345Y-43283802D01*
X156156615Y-43299177D01*
X156134477Y-43312445D01*
X156111146Y-43323480D01*
X156086845Y-43332175D01*
X156061809Y-43338447D01*
X156036279Y-43342234D01*
X156010500Y-43343500D01*
X155484500Y-43343500D01*
X155458721Y-43342234D01*
X155433191Y-43338447D01*
X155408155Y-43332175D01*
X155383854Y-43323480D01*
X155360523Y-43312445D01*
X155338385Y-43299177D01*
X155317655Y-43283802D01*
X155298531Y-43266469D01*
X155281198Y-43247345D01*
X155265823Y-43226615D01*
X155252555Y-43204477D01*
X155241520Y-43181146D01*
X155232825Y-43156845D01*
X155226553Y-43131809D01*
X155222766Y-43106279D01*
X155221500Y-43080500D01*
X155221500Y-42454500D01*
X155222766Y-42428721D01*
X155226553Y-42403191D01*
X155232825Y-42378155D01*
X155241520Y-42353854D01*
X155252555Y-42330523D01*
X155265823Y-42308385D01*
X155281198Y-42287655D01*
X155298531Y-42268531D01*
X155317655Y-42251198D01*
X155338385Y-42235823D01*
X155360523Y-42222555D01*
X155383854Y-42211520D01*
X155408155Y-42202825D01*
X155433191Y-42196553D01*
X155458721Y-42192766D01*
X155484500Y-42191500D01*
X156010500Y-42191500D01*
X156036279Y-42192766D01*
G37*
G36*
X156036279Y-43942766D02*
G01*
X156061809Y-43946553D01*
X156086845Y-43952825D01*
X156111146Y-43961520D01*
X156134477Y-43972555D01*
X156156615Y-43985823D01*
X156177345Y-44001198D01*
X156196469Y-44018531D01*
X156213802Y-44037655D01*
X156229177Y-44058385D01*
X156242445Y-44080523D01*
X156253480Y-44103854D01*
X156262175Y-44128155D01*
X156268447Y-44153191D01*
X156272234Y-44178721D01*
X156273500Y-44204500D01*
X156273500Y-44830500D01*
X156272234Y-44856279D01*
X156268447Y-44881809D01*
X156262175Y-44906845D01*
X156253480Y-44931146D01*
X156242445Y-44954477D01*
X156229177Y-44976615D01*
X156213802Y-44997345D01*
X156196469Y-45016469D01*
X156177345Y-45033802D01*
X156156615Y-45049177D01*
X156134477Y-45062445D01*
X156111146Y-45073480D01*
X156086845Y-45082175D01*
X156061809Y-45088447D01*
X156036279Y-45092234D01*
X156010500Y-45093500D01*
X155484500Y-45093500D01*
X155458721Y-45092234D01*
X155433191Y-45088447D01*
X155408155Y-45082175D01*
X155383854Y-45073480D01*
X155360523Y-45062445D01*
X155338385Y-45049177D01*
X155317655Y-45033802D01*
X155298531Y-45016469D01*
X155281198Y-44997345D01*
X155265823Y-44976615D01*
X155252555Y-44954477D01*
X155241520Y-44931146D01*
X155232825Y-44906845D01*
X155226553Y-44881809D01*
X155222766Y-44856279D01*
X155221500Y-44830500D01*
X155221500Y-44204500D01*
X155222766Y-44178721D01*
X155226553Y-44153191D01*
X155232825Y-44128155D01*
X155241520Y-44103854D01*
X155252555Y-44080523D01*
X155265823Y-44058385D01*
X155281198Y-44037655D01*
X155298531Y-44018531D01*
X155317655Y-44001198D01*
X155338385Y-43985823D01*
X155360523Y-43972555D01*
X155383854Y-43961520D01*
X155408155Y-43952825D01*
X155433191Y-43946553D01*
X155458721Y-43942766D01*
X155484500Y-43941500D01*
X156010500Y-43941500D01*
X156036279Y-43942766D01*
G37*
G36*
X175336279Y-37192766D02*
G01*
X175361809Y-37196553D01*
X175386845Y-37202825D01*
X175411146Y-37211520D01*
X175434477Y-37222555D01*
X175456615Y-37235823D01*
X175477345Y-37251198D01*
X175496469Y-37268531D01*
X175513802Y-37287655D01*
X175529177Y-37308385D01*
X175542445Y-37330523D01*
X175553480Y-37353854D01*
X175562175Y-37378155D01*
X175568447Y-37403191D01*
X175572234Y-37428721D01*
X175573500Y-37454500D01*
X175573500Y-38080500D01*
X175572234Y-38106279D01*
X175568447Y-38131809D01*
X175562175Y-38156845D01*
X175553480Y-38181146D01*
X175542445Y-38204477D01*
X175529177Y-38226615D01*
X175513802Y-38247345D01*
X175496469Y-38266469D01*
X175477345Y-38283802D01*
X175456615Y-38299177D01*
X175434477Y-38312445D01*
X175411146Y-38323480D01*
X175386845Y-38332175D01*
X175361809Y-38338447D01*
X175336279Y-38342234D01*
X175310500Y-38343500D01*
X174784500Y-38343500D01*
X174758721Y-38342234D01*
X174733191Y-38338447D01*
X174708155Y-38332175D01*
X174683854Y-38323480D01*
X174660523Y-38312445D01*
X174638385Y-38299177D01*
X174617655Y-38283802D01*
X174598531Y-38266469D01*
X174581198Y-38247345D01*
X174565823Y-38226615D01*
X174552555Y-38204477D01*
X174541520Y-38181146D01*
X174532825Y-38156845D01*
X174526553Y-38131809D01*
X174522766Y-38106279D01*
X174521500Y-38080500D01*
X174521500Y-37454500D01*
X174522766Y-37428721D01*
X174526553Y-37403191D01*
X174532825Y-37378155D01*
X174541520Y-37353854D01*
X174552555Y-37330523D01*
X174565823Y-37308385D01*
X174581198Y-37287655D01*
X174598531Y-37268531D01*
X174617655Y-37251198D01*
X174638385Y-37235823D01*
X174660523Y-37222555D01*
X174683854Y-37211520D01*
X174708155Y-37202825D01*
X174733191Y-37196553D01*
X174758721Y-37192766D01*
X174784500Y-37191500D01*
X175310500Y-37191500D01*
X175336279Y-37192766D01*
G37*
G36*
X175336279Y-35442766D02*
G01*
X175361809Y-35446553D01*
X175386845Y-35452825D01*
X175411146Y-35461520D01*
X175434477Y-35472555D01*
X175456615Y-35485823D01*
X175477345Y-35501198D01*
X175496469Y-35518531D01*
X175513802Y-35537655D01*
X175529177Y-35558385D01*
X175542445Y-35580523D01*
X175553480Y-35603854D01*
X175562175Y-35628155D01*
X175568447Y-35653191D01*
X175572234Y-35678721D01*
X175573500Y-35704500D01*
X175573500Y-36330500D01*
X175572234Y-36356279D01*
X175568447Y-36381809D01*
X175562175Y-36406845D01*
X175553480Y-36431146D01*
X175542445Y-36454477D01*
X175529177Y-36476615D01*
X175513802Y-36497345D01*
X175496469Y-36516469D01*
X175477345Y-36533802D01*
X175456615Y-36549177D01*
X175434477Y-36562445D01*
X175411146Y-36573480D01*
X175386845Y-36582175D01*
X175361809Y-36588447D01*
X175336279Y-36592234D01*
X175310500Y-36593500D01*
X174784500Y-36593500D01*
X174758721Y-36592234D01*
X174733191Y-36588447D01*
X174708155Y-36582175D01*
X174683854Y-36573480D01*
X174660523Y-36562445D01*
X174638385Y-36549177D01*
X174617655Y-36533802D01*
X174598531Y-36516469D01*
X174581198Y-36497345D01*
X174565823Y-36476615D01*
X174552555Y-36454477D01*
X174541520Y-36431146D01*
X174532825Y-36406845D01*
X174526553Y-36381809D01*
X174522766Y-36356279D01*
X174521500Y-36330500D01*
X174521500Y-35704500D01*
X174522766Y-35678721D01*
X174526553Y-35653191D01*
X174532825Y-35628155D01*
X174541520Y-35603854D01*
X174552555Y-35580523D01*
X174565823Y-35558385D01*
X174581198Y-35537655D01*
X174598531Y-35518531D01*
X174617655Y-35501198D01*
X174638385Y-35485823D01*
X174660523Y-35472555D01*
X174683854Y-35461520D01*
X174708155Y-35452825D01*
X174733191Y-35446553D01*
X174758721Y-35442766D01*
X174784500Y-35441500D01*
X175310500Y-35441500D01*
X175336279Y-35442766D01*
G37*
G36*
X178811279Y-52367766D02*
G01*
X178836809Y-52371553D01*
X178861845Y-52377825D01*
X178886146Y-52386520D01*
X178909477Y-52397555D01*
X178931615Y-52410823D01*
X178952345Y-52426198D01*
X178971469Y-52443531D01*
X178988802Y-52462655D01*
X179004177Y-52483385D01*
X179017445Y-52505523D01*
X179028480Y-52528854D01*
X179037175Y-52553155D01*
X179043447Y-52578191D01*
X179047234Y-52603721D01*
X179048500Y-52629500D01*
X179048500Y-53155500D01*
X179047234Y-53181279D01*
X179043447Y-53206809D01*
X179037175Y-53231845D01*
X179028480Y-53256146D01*
X179017445Y-53279477D01*
X179004177Y-53301615D01*
X178988802Y-53322345D01*
X178971469Y-53341469D01*
X178952345Y-53358802D01*
X178931615Y-53374177D01*
X178909477Y-53387445D01*
X178886146Y-53398480D01*
X178861845Y-53407175D01*
X178836809Y-53413447D01*
X178811279Y-53417234D01*
X178785500Y-53418500D01*
X178159500Y-53418500D01*
X178133721Y-53417234D01*
X178108191Y-53413447D01*
X178083155Y-53407175D01*
X178058854Y-53398480D01*
X178035523Y-53387445D01*
X178013385Y-53374177D01*
X177992655Y-53358802D01*
X177973531Y-53341469D01*
X177956198Y-53322345D01*
X177940823Y-53301615D01*
X177927555Y-53279477D01*
X177916520Y-53256146D01*
X177907825Y-53231845D01*
X177901553Y-53206809D01*
X177897766Y-53181279D01*
X177896500Y-53155500D01*
X177896500Y-52629500D01*
X177897766Y-52603721D01*
X177901553Y-52578191D01*
X177907825Y-52553155D01*
X177916520Y-52528854D01*
X177927555Y-52505523D01*
X177940823Y-52483385D01*
X177956198Y-52462655D01*
X177973531Y-52443531D01*
X177992655Y-52426198D01*
X178013385Y-52410823D01*
X178035523Y-52397555D01*
X178058854Y-52386520D01*
X178083155Y-52377825D01*
X178108191Y-52371553D01*
X178133721Y-52367766D01*
X178159500Y-52366500D01*
X178785500Y-52366500D01*
X178811279Y-52367766D01*
G37*
G36*
X180561279Y-52367766D02*
G01*
X180586809Y-52371553D01*
X180611845Y-52377825D01*
X180636146Y-52386520D01*
X180659477Y-52397555D01*
X180681615Y-52410823D01*
X180702345Y-52426198D01*
X180721469Y-52443531D01*
X180738802Y-52462655D01*
X180754177Y-52483385D01*
X180767445Y-52505523D01*
X180778480Y-52528854D01*
X180787175Y-52553155D01*
X180793447Y-52578191D01*
X180797234Y-52603721D01*
X180798500Y-52629500D01*
X180798500Y-53155500D01*
X180797234Y-53181279D01*
X180793447Y-53206809D01*
X180787175Y-53231845D01*
X180778480Y-53256146D01*
X180767445Y-53279477D01*
X180754177Y-53301615D01*
X180738802Y-53322345D01*
X180721469Y-53341469D01*
X180702345Y-53358802D01*
X180681615Y-53374177D01*
X180659477Y-53387445D01*
X180636146Y-53398480D01*
X180611845Y-53407175D01*
X180586809Y-53413447D01*
X180561279Y-53417234D01*
X180535500Y-53418500D01*
X179909500Y-53418500D01*
X179883721Y-53417234D01*
X179858191Y-53413447D01*
X179833155Y-53407175D01*
X179808854Y-53398480D01*
X179785523Y-53387445D01*
X179763385Y-53374177D01*
X179742655Y-53358802D01*
X179723531Y-53341469D01*
X179706198Y-53322345D01*
X179690823Y-53301615D01*
X179677555Y-53279477D01*
X179666520Y-53256146D01*
X179657825Y-53231845D01*
X179651553Y-53206809D01*
X179647766Y-53181279D01*
X179646500Y-53155500D01*
X179646500Y-52629500D01*
X179647766Y-52603721D01*
X179651553Y-52578191D01*
X179657825Y-52553155D01*
X179666520Y-52528854D01*
X179677555Y-52505523D01*
X179690823Y-52483385D01*
X179706198Y-52462655D01*
X179723531Y-52443531D01*
X179742655Y-52426198D01*
X179763385Y-52410823D01*
X179785523Y-52397555D01*
X179808854Y-52386520D01*
X179833155Y-52377825D01*
X179858191Y-52371553D01*
X179883721Y-52367766D01*
X179909500Y-52366500D01*
X180535500Y-52366500D01*
X180561279Y-52367766D01*
G37*
G36*
X182086279Y-44442766D02*
G01*
X182111809Y-44446553D01*
X182136845Y-44452825D01*
X182161146Y-44461520D01*
X182184477Y-44472555D01*
X182206615Y-44485823D01*
X182227345Y-44501198D01*
X182246469Y-44518531D01*
X182263802Y-44537655D01*
X182279177Y-44558385D01*
X182292445Y-44580523D01*
X182303480Y-44603854D01*
X182312175Y-44628155D01*
X182318447Y-44653191D01*
X182322234Y-44678721D01*
X182323500Y-44704500D01*
X182323500Y-45330500D01*
X182322234Y-45356279D01*
X182318447Y-45381809D01*
X182312175Y-45406845D01*
X182303480Y-45431146D01*
X182292445Y-45454477D01*
X182279177Y-45476615D01*
X182263802Y-45497345D01*
X182246469Y-45516469D01*
X182227345Y-45533802D01*
X182206615Y-45549177D01*
X182184477Y-45562445D01*
X182161146Y-45573480D01*
X182136845Y-45582175D01*
X182111809Y-45588447D01*
X182086279Y-45592234D01*
X182060500Y-45593500D01*
X181534500Y-45593500D01*
X181508721Y-45592234D01*
X181483191Y-45588447D01*
X181458155Y-45582175D01*
X181433854Y-45573480D01*
X181410523Y-45562445D01*
X181388385Y-45549177D01*
X181367655Y-45533802D01*
X181348531Y-45516469D01*
X181331198Y-45497345D01*
X181315823Y-45476615D01*
X181302555Y-45454477D01*
X181291520Y-45431146D01*
X181282825Y-45406845D01*
X181276553Y-45381809D01*
X181272766Y-45356279D01*
X181271500Y-45330500D01*
X181271500Y-44704500D01*
X181272766Y-44678721D01*
X181276553Y-44653191D01*
X181282825Y-44628155D01*
X181291520Y-44603854D01*
X181302555Y-44580523D01*
X181315823Y-44558385D01*
X181331198Y-44537655D01*
X181348531Y-44518531D01*
X181367655Y-44501198D01*
X181388385Y-44485823D01*
X181410523Y-44472555D01*
X181433854Y-44461520D01*
X181458155Y-44452825D01*
X181483191Y-44446553D01*
X181508721Y-44442766D01*
X181534500Y-44441500D01*
X182060500Y-44441500D01*
X182086279Y-44442766D01*
G37*
G36*
X182086279Y-42692766D02*
G01*
X182111809Y-42696553D01*
X182136845Y-42702825D01*
X182161146Y-42711520D01*
X182184477Y-42722555D01*
X182206615Y-42735823D01*
X182227345Y-42751198D01*
X182246469Y-42768531D01*
X182263802Y-42787655D01*
X182279177Y-42808385D01*
X182292445Y-42830523D01*
X182303480Y-42853854D01*
X182312175Y-42878155D01*
X182318447Y-42903191D01*
X182322234Y-42928721D01*
X182323500Y-42954500D01*
X182323500Y-43580500D01*
X182322234Y-43606279D01*
X182318447Y-43631809D01*
X182312175Y-43656845D01*
X182303480Y-43681146D01*
X182292445Y-43704477D01*
X182279177Y-43726615D01*
X182263802Y-43747345D01*
X182246469Y-43766469D01*
X182227345Y-43783802D01*
X182206615Y-43799177D01*
X182184477Y-43812445D01*
X182161146Y-43823480D01*
X182136845Y-43832175D01*
X182111809Y-43838447D01*
X182086279Y-43842234D01*
X182060500Y-43843500D01*
X181534500Y-43843500D01*
X181508721Y-43842234D01*
X181483191Y-43838447D01*
X181458155Y-43832175D01*
X181433854Y-43823480D01*
X181410523Y-43812445D01*
X181388385Y-43799177D01*
X181367655Y-43783802D01*
X181348531Y-43766469D01*
X181331198Y-43747345D01*
X181315823Y-43726615D01*
X181302555Y-43704477D01*
X181291520Y-43681146D01*
X181282825Y-43656845D01*
X181276553Y-43631809D01*
X181272766Y-43606279D01*
X181271500Y-43580500D01*
X181271500Y-42954500D01*
X181272766Y-42928721D01*
X181276553Y-42903191D01*
X181282825Y-42878155D01*
X181291520Y-42853854D01*
X181302555Y-42830523D01*
X181315823Y-42808385D01*
X181331198Y-42787655D01*
X181348531Y-42768531D01*
X181367655Y-42751198D01*
X181388385Y-42735823D01*
X181410523Y-42722555D01*
X181433854Y-42711520D01*
X181458155Y-42702825D01*
X181483191Y-42696553D01*
X181508721Y-42692766D01*
X181534500Y-42691500D01*
X182060500Y-42691500D01*
X182086279Y-42692766D01*
G37*
G36*
X189394363Y-36217790D02*
G01*
X189420369Y-36221648D01*
X189445871Y-36228035D01*
X189470624Y-36236892D01*
X189494390Y-36248133D01*
X189516939Y-36261648D01*
X189538056Y-36277309D01*
X189557535Y-36294965D01*
X189575191Y-36314444D01*
X189590852Y-36335561D01*
X189604367Y-36358110D01*
X189615608Y-36381876D01*
X189624465Y-36406629D01*
X189630852Y-36432131D01*
X189634710Y-36458137D01*
X189636000Y-36484395D01*
X189636000Y-37800605D01*
X189634710Y-37826863D01*
X189630852Y-37852869D01*
X189624465Y-37878371D01*
X189615608Y-37903124D01*
X189604367Y-37926890D01*
X189590852Y-37949439D01*
X189575191Y-37970556D01*
X189557535Y-37990035D01*
X189538056Y-38007691D01*
X189516939Y-38023352D01*
X189494390Y-38036867D01*
X189470624Y-38048108D01*
X189445871Y-38056965D01*
X189420369Y-38063352D01*
X189394363Y-38067210D01*
X189368105Y-38068500D01*
X188376895Y-38068500D01*
X188350637Y-38067210D01*
X188324631Y-38063352D01*
X188299129Y-38056965D01*
X188274376Y-38048108D01*
X188250610Y-38036867D01*
X188228061Y-38023352D01*
X188206944Y-38007691D01*
X188187465Y-37990035D01*
X188169809Y-37970556D01*
X188154148Y-37949439D01*
X188140633Y-37926890D01*
X188129392Y-37903124D01*
X188120535Y-37878371D01*
X188114148Y-37852869D01*
X188110290Y-37826863D01*
X188109000Y-37800605D01*
X188109000Y-36484395D01*
X188110290Y-36458137D01*
X188114148Y-36432131D01*
X188120535Y-36406629D01*
X188129392Y-36381876D01*
X188140633Y-36358110D01*
X188154148Y-36335561D01*
X188169809Y-36314444D01*
X188187465Y-36294965D01*
X188206944Y-36277309D01*
X188228061Y-36261648D01*
X188250610Y-36248133D01*
X188274376Y-36236892D01*
X188299129Y-36228035D01*
X188324631Y-36221648D01*
X188350637Y-36217790D01*
X188376895Y-36216500D01*
X189368105Y-36216500D01*
X189394363Y-36217790D01*
G37*
G36*
X192369363Y-36217790D02*
G01*
X192395369Y-36221648D01*
X192420871Y-36228035D01*
X192445624Y-36236892D01*
X192469390Y-36248133D01*
X192491939Y-36261648D01*
X192513056Y-36277309D01*
X192532535Y-36294965D01*
X192550191Y-36314444D01*
X192565852Y-36335561D01*
X192579367Y-36358110D01*
X192590608Y-36381876D01*
X192599465Y-36406629D01*
X192605852Y-36432131D01*
X192609710Y-36458137D01*
X192611000Y-36484395D01*
X192611000Y-37800605D01*
X192609710Y-37826863D01*
X192605852Y-37852869D01*
X192599465Y-37878371D01*
X192590608Y-37903124D01*
X192579367Y-37926890D01*
X192565852Y-37949439D01*
X192550191Y-37970556D01*
X192532535Y-37990035D01*
X192513056Y-38007691D01*
X192491939Y-38023352D01*
X192469390Y-38036867D01*
X192445624Y-38048108D01*
X192420871Y-38056965D01*
X192395369Y-38063352D01*
X192369363Y-38067210D01*
X192343105Y-38068500D01*
X191351895Y-38068500D01*
X191325637Y-38067210D01*
X191299631Y-38063352D01*
X191274129Y-38056965D01*
X191249376Y-38048108D01*
X191225610Y-38036867D01*
X191203061Y-38023352D01*
X191181944Y-38007691D01*
X191162465Y-37990035D01*
X191144809Y-37970556D01*
X191129148Y-37949439D01*
X191115633Y-37926890D01*
X191104392Y-37903124D01*
X191095535Y-37878371D01*
X191089148Y-37852869D01*
X191085290Y-37826863D01*
X191084000Y-37800605D01*
X191084000Y-36484395D01*
X191085290Y-36458137D01*
X191089148Y-36432131D01*
X191095535Y-36406629D01*
X191104392Y-36381876D01*
X191115633Y-36358110D01*
X191129148Y-36335561D01*
X191144809Y-36314444D01*
X191162465Y-36294965D01*
X191181944Y-36277309D01*
X191203061Y-36261648D01*
X191225610Y-36248133D01*
X191249376Y-36236892D01*
X191274129Y-36228035D01*
X191299631Y-36221648D01*
X191325637Y-36217790D01*
X191351895Y-36216500D01*
X192343105Y-36216500D01*
X192369363Y-36217790D01*
G37*
G36*
X202081863Y-35017790D02*
G01*
X202107869Y-35021648D01*
X202133371Y-35028035D01*
X202158124Y-35036892D01*
X202181890Y-35048133D01*
X202204439Y-35061648D01*
X202225556Y-35077309D01*
X202245035Y-35094965D01*
X202262691Y-35114444D01*
X202278352Y-35135561D01*
X202291867Y-35158110D01*
X202303108Y-35181876D01*
X202311965Y-35206629D01*
X202318352Y-35232131D01*
X202322210Y-35258137D01*
X202323500Y-35284395D01*
X202323500Y-36600605D01*
X202322210Y-36626863D01*
X202318352Y-36652869D01*
X202311965Y-36678371D01*
X202303108Y-36703124D01*
X202291867Y-36726890D01*
X202278352Y-36749439D01*
X202262691Y-36770556D01*
X202245035Y-36790035D01*
X202225556Y-36807691D01*
X202204439Y-36823352D01*
X202181890Y-36836867D01*
X202158124Y-36848108D01*
X202133371Y-36856965D01*
X202107869Y-36863352D01*
X202081863Y-36867210D01*
X202055605Y-36868500D01*
X201064395Y-36868500D01*
X201038137Y-36867210D01*
X201012131Y-36863352D01*
X200986629Y-36856965D01*
X200961876Y-36848108D01*
X200938110Y-36836867D01*
X200915561Y-36823352D01*
X200894444Y-36807691D01*
X200874965Y-36790035D01*
X200857309Y-36770556D01*
X200841648Y-36749439D01*
X200828133Y-36726890D01*
X200816892Y-36703124D01*
X200808035Y-36678371D01*
X200801648Y-36652869D01*
X200797790Y-36626863D01*
X200796500Y-36600605D01*
X200796500Y-35284395D01*
X200797790Y-35258137D01*
X200801648Y-35232131D01*
X200808035Y-35206629D01*
X200816892Y-35181876D01*
X200828133Y-35158110D01*
X200841648Y-35135561D01*
X200857309Y-35114444D01*
X200874965Y-35094965D01*
X200894444Y-35077309D01*
X200915561Y-35061648D01*
X200938110Y-35048133D01*
X200961876Y-35036892D01*
X200986629Y-35028035D01*
X201012131Y-35021648D01*
X201038137Y-35017790D01*
X201064395Y-35016500D01*
X202055605Y-35016500D01*
X202081863Y-35017790D01*
G37*
G36*
X205056863Y-35017790D02*
G01*
X205082869Y-35021648D01*
X205108371Y-35028035D01*
X205133124Y-35036892D01*
X205156890Y-35048133D01*
X205179439Y-35061648D01*
X205200556Y-35077309D01*
X205220035Y-35094965D01*
X205237691Y-35114444D01*
X205253352Y-35135561D01*
X205266867Y-35158110D01*
X205278108Y-35181876D01*
X205286965Y-35206629D01*
X205293352Y-35232131D01*
X205297210Y-35258137D01*
X205298500Y-35284395D01*
X205298500Y-36600605D01*
X205297210Y-36626863D01*
X205293352Y-36652869D01*
X205286965Y-36678371D01*
X205278108Y-36703124D01*
X205266867Y-36726890D01*
X205253352Y-36749439D01*
X205237691Y-36770556D01*
X205220035Y-36790035D01*
X205200556Y-36807691D01*
X205179439Y-36823352D01*
X205156890Y-36836867D01*
X205133124Y-36848108D01*
X205108371Y-36856965D01*
X205082869Y-36863352D01*
X205056863Y-36867210D01*
X205030605Y-36868500D01*
X204039395Y-36868500D01*
X204013137Y-36867210D01*
X203987131Y-36863352D01*
X203961629Y-36856965D01*
X203936876Y-36848108D01*
X203913110Y-36836867D01*
X203890561Y-36823352D01*
X203869444Y-36807691D01*
X203849965Y-36790035D01*
X203832309Y-36770556D01*
X203816648Y-36749439D01*
X203803133Y-36726890D01*
X203791892Y-36703124D01*
X203783035Y-36678371D01*
X203776648Y-36652869D01*
X203772790Y-36626863D01*
X203771500Y-36600605D01*
X203771500Y-35284395D01*
X203772790Y-35258137D01*
X203776648Y-35232131D01*
X203783035Y-35206629D01*
X203791892Y-35181876D01*
X203803133Y-35158110D01*
X203816648Y-35135561D01*
X203832309Y-35114444D01*
X203849965Y-35094965D01*
X203869444Y-35077309D01*
X203890561Y-35061648D01*
X203913110Y-35048133D01*
X203936876Y-35036892D01*
X203961629Y-35028035D01*
X203987131Y-35021648D01*
X204013137Y-35017790D01*
X204039395Y-35016500D01*
X205030605Y-35016500D01*
X205056863Y-35017790D01*
G37*
G36*
X223586279Y-35942766D02*
G01*
X223611809Y-35946553D01*
X223636845Y-35952825D01*
X223661146Y-35961520D01*
X223684477Y-35972555D01*
X223706615Y-35985823D01*
X223727345Y-36001198D01*
X223746469Y-36018531D01*
X223763802Y-36037655D01*
X223779177Y-36058385D01*
X223792445Y-36080523D01*
X223803480Y-36103854D01*
X223812175Y-36128155D01*
X223818447Y-36153191D01*
X223822234Y-36178721D01*
X223823500Y-36204500D01*
X223823500Y-36830500D01*
X223822234Y-36856279D01*
X223818447Y-36881809D01*
X223812175Y-36906845D01*
X223803480Y-36931146D01*
X223792445Y-36954477D01*
X223779177Y-36976615D01*
X223763802Y-36997345D01*
X223746469Y-37016469D01*
X223727345Y-37033802D01*
X223706615Y-37049177D01*
X223684477Y-37062445D01*
X223661146Y-37073480D01*
X223636845Y-37082175D01*
X223611809Y-37088447D01*
X223586279Y-37092234D01*
X223560500Y-37093500D01*
X223034500Y-37093500D01*
X223008721Y-37092234D01*
X222983191Y-37088447D01*
X222958155Y-37082175D01*
X222933854Y-37073480D01*
X222910523Y-37062445D01*
X222888385Y-37049177D01*
X222867655Y-37033802D01*
X222848531Y-37016469D01*
X222831198Y-36997345D01*
X222815823Y-36976615D01*
X222802555Y-36954477D01*
X222791520Y-36931146D01*
X222782825Y-36906845D01*
X222776553Y-36881809D01*
X222772766Y-36856279D01*
X222771500Y-36830500D01*
X222771500Y-36204500D01*
X222772766Y-36178721D01*
X222776553Y-36153191D01*
X222782825Y-36128155D01*
X222791520Y-36103854D01*
X222802555Y-36080523D01*
X222815823Y-36058385D01*
X222831198Y-36037655D01*
X222848531Y-36018531D01*
X222867655Y-36001198D01*
X222888385Y-35985823D01*
X222910523Y-35972555D01*
X222933854Y-35961520D01*
X222958155Y-35952825D01*
X222983191Y-35946553D01*
X223008721Y-35942766D01*
X223034500Y-35941500D01*
X223560500Y-35941500D01*
X223586279Y-35942766D01*
G37*
G36*
X223586279Y-37692766D02*
G01*
X223611809Y-37696553D01*
X223636845Y-37702825D01*
X223661146Y-37711520D01*
X223684477Y-37722555D01*
X223706615Y-37735823D01*
X223727345Y-37751198D01*
X223746469Y-37768531D01*
X223763802Y-37787655D01*
X223779177Y-37808385D01*
X223792445Y-37830523D01*
X223803480Y-37853854D01*
X223812175Y-37878155D01*
X223818447Y-37903191D01*
X223822234Y-37928721D01*
X223823500Y-37954500D01*
X223823500Y-38580500D01*
X223822234Y-38606279D01*
X223818447Y-38631809D01*
X223812175Y-38656845D01*
X223803480Y-38681146D01*
X223792445Y-38704477D01*
X223779177Y-38726615D01*
X223763802Y-38747345D01*
X223746469Y-38766469D01*
X223727345Y-38783802D01*
X223706615Y-38799177D01*
X223684477Y-38812445D01*
X223661146Y-38823480D01*
X223636845Y-38832175D01*
X223611809Y-38838447D01*
X223586279Y-38842234D01*
X223560500Y-38843500D01*
X223034500Y-38843500D01*
X223008721Y-38842234D01*
X222983191Y-38838447D01*
X222958155Y-38832175D01*
X222933854Y-38823480D01*
X222910523Y-38812445D01*
X222888385Y-38799177D01*
X222867655Y-38783802D01*
X222848531Y-38766469D01*
X222831198Y-38747345D01*
X222815823Y-38726615D01*
X222802555Y-38704477D01*
X222791520Y-38681146D01*
X222782825Y-38656845D01*
X222776553Y-38631809D01*
X222772766Y-38606279D01*
X222771500Y-38580500D01*
X222771500Y-37954500D01*
X222772766Y-37928721D01*
X222776553Y-37903191D01*
X222782825Y-37878155D01*
X222791520Y-37853854D01*
X222802555Y-37830523D01*
X222815823Y-37808385D01*
X222831198Y-37787655D01*
X222848531Y-37768531D01*
X222867655Y-37751198D01*
X222888385Y-37735823D01*
X222910523Y-37722555D01*
X222933854Y-37711520D01*
X222958155Y-37702825D01*
X222983191Y-37696553D01*
X223008721Y-37692766D01*
X223034500Y-37691500D01*
X223560500Y-37691500D01*
X223586279Y-37692766D01*
G37*
G36*
X208336279Y-35942766D02*
G01*
X208361809Y-35946553D01*
X208386845Y-35952825D01*
X208411146Y-35961520D01*
X208434477Y-35972555D01*
X208456615Y-35985823D01*
X208477345Y-36001198D01*
X208496469Y-36018531D01*
X208513802Y-36037655D01*
X208529177Y-36058385D01*
X208542445Y-36080523D01*
X208553480Y-36103854D01*
X208562175Y-36128155D01*
X208568447Y-36153191D01*
X208572234Y-36178721D01*
X208573500Y-36204500D01*
X208573500Y-36830500D01*
X208572234Y-36856279D01*
X208568447Y-36881809D01*
X208562175Y-36906845D01*
X208553480Y-36931146D01*
X208542445Y-36954477D01*
X208529177Y-36976615D01*
X208513802Y-36997345D01*
X208496469Y-37016469D01*
X208477345Y-37033802D01*
X208456615Y-37049177D01*
X208434477Y-37062445D01*
X208411146Y-37073480D01*
X208386845Y-37082175D01*
X208361809Y-37088447D01*
X208336279Y-37092234D01*
X208310500Y-37093500D01*
X207784500Y-37093500D01*
X207758721Y-37092234D01*
X207733191Y-37088447D01*
X207708155Y-37082175D01*
X207683854Y-37073480D01*
X207660523Y-37062445D01*
X207638385Y-37049177D01*
X207617655Y-37033802D01*
X207598531Y-37016469D01*
X207581198Y-36997345D01*
X207565823Y-36976615D01*
X207552555Y-36954477D01*
X207541520Y-36931146D01*
X207532825Y-36906845D01*
X207526553Y-36881809D01*
X207522766Y-36856279D01*
X207521500Y-36830500D01*
X207521500Y-36204500D01*
X207522766Y-36178721D01*
X207526553Y-36153191D01*
X207532825Y-36128155D01*
X207541520Y-36103854D01*
X207552555Y-36080523D01*
X207565823Y-36058385D01*
X207581198Y-36037655D01*
X207598531Y-36018531D01*
X207617655Y-36001198D01*
X207638385Y-35985823D01*
X207660523Y-35972555D01*
X207683854Y-35961520D01*
X207708155Y-35952825D01*
X207733191Y-35946553D01*
X207758721Y-35942766D01*
X207784500Y-35941500D01*
X208310500Y-35941500D01*
X208336279Y-35942766D01*
G37*
G36*
X208336279Y-37692766D02*
G01*
X208361809Y-37696553D01*
X208386845Y-37702825D01*
X208411146Y-37711520D01*
X208434477Y-37722555D01*
X208456615Y-37735823D01*
X208477345Y-37751198D01*
X208496469Y-37768531D01*
X208513802Y-37787655D01*
X208529177Y-37808385D01*
X208542445Y-37830523D01*
X208553480Y-37853854D01*
X208562175Y-37878155D01*
X208568447Y-37903191D01*
X208572234Y-37928721D01*
X208573500Y-37954500D01*
X208573500Y-38580500D01*
X208572234Y-38606279D01*
X208568447Y-38631809D01*
X208562175Y-38656845D01*
X208553480Y-38681146D01*
X208542445Y-38704477D01*
X208529177Y-38726615D01*
X208513802Y-38747345D01*
X208496469Y-38766469D01*
X208477345Y-38783802D01*
X208456615Y-38799177D01*
X208434477Y-38812445D01*
X208411146Y-38823480D01*
X208386845Y-38832175D01*
X208361809Y-38838447D01*
X208336279Y-38842234D01*
X208310500Y-38843500D01*
X207784500Y-38843500D01*
X207758721Y-38842234D01*
X207733191Y-38838447D01*
X207708155Y-38832175D01*
X207683854Y-38823480D01*
X207660523Y-38812445D01*
X207638385Y-38799177D01*
X207617655Y-38783802D01*
X207598531Y-38766469D01*
X207581198Y-38747345D01*
X207565823Y-38726615D01*
X207552555Y-38704477D01*
X207541520Y-38681146D01*
X207532825Y-38656845D01*
X207526553Y-38631809D01*
X207522766Y-38606279D01*
X207521500Y-38580500D01*
X207521500Y-37954500D01*
X207522766Y-37928721D01*
X207526553Y-37903191D01*
X207532825Y-37878155D01*
X207541520Y-37853854D01*
X207552555Y-37830523D01*
X207565823Y-37808385D01*
X207581198Y-37787655D01*
X207598531Y-37768531D01*
X207617655Y-37751198D01*
X207638385Y-37735823D01*
X207660523Y-37722555D01*
X207683854Y-37711520D01*
X207708155Y-37702825D01*
X207733191Y-37696553D01*
X207758721Y-37692766D01*
X207784500Y-37691500D01*
X208310500Y-37691500D01*
X208336279Y-37692766D01*
G37*
G36*
X198061279Y-35417766D02*
G01*
X198086809Y-35421553D01*
X198111845Y-35427825D01*
X198136146Y-35436520D01*
X198159477Y-35447555D01*
X198181615Y-35460823D01*
X198202345Y-35476198D01*
X198221469Y-35493531D01*
X198238802Y-35512655D01*
X198254177Y-35533385D01*
X198267445Y-35555523D01*
X198278480Y-35578854D01*
X198287175Y-35603155D01*
X198293447Y-35628191D01*
X198297234Y-35653721D01*
X198298500Y-35679500D01*
X198298500Y-36205500D01*
X198297234Y-36231279D01*
X198293447Y-36256809D01*
X198287175Y-36281845D01*
X198278480Y-36306146D01*
X198267445Y-36329477D01*
X198254177Y-36351615D01*
X198238802Y-36372345D01*
X198221469Y-36391469D01*
X198202345Y-36408802D01*
X198181615Y-36424177D01*
X198159477Y-36437445D01*
X198136146Y-36448480D01*
X198111845Y-36457175D01*
X198086809Y-36463447D01*
X198061279Y-36467234D01*
X198035500Y-36468500D01*
X197409500Y-36468500D01*
X197383721Y-36467234D01*
X197358191Y-36463447D01*
X197333155Y-36457175D01*
X197308854Y-36448480D01*
X197285523Y-36437445D01*
X197263385Y-36424177D01*
X197242655Y-36408802D01*
X197223531Y-36391469D01*
X197206198Y-36372345D01*
X197190823Y-36351615D01*
X197177555Y-36329477D01*
X197166520Y-36306146D01*
X197157825Y-36281845D01*
X197151553Y-36256809D01*
X197147766Y-36231279D01*
X197146500Y-36205500D01*
X197146500Y-35679500D01*
X197147766Y-35653721D01*
X197151553Y-35628191D01*
X197157825Y-35603155D01*
X197166520Y-35578854D01*
X197177555Y-35555523D01*
X197190823Y-35533385D01*
X197206198Y-35512655D01*
X197223531Y-35493531D01*
X197242655Y-35476198D01*
X197263385Y-35460823D01*
X197285523Y-35447555D01*
X197308854Y-35436520D01*
X197333155Y-35427825D01*
X197358191Y-35421553D01*
X197383721Y-35417766D01*
X197409500Y-35416500D01*
X198035500Y-35416500D01*
X198061279Y-35417766D01*
G37*
G36*
X196311279Y-35417766D02*
G01*
X196336809Y-35421553D01*
X196361845Y-35427825D01*
X196386146Y-35436520D01*
X196409477Y-35447555D01*
X196431615Y-35460823D01*
X196452345Y-35476198D01*
X196471469Y-35493531D01*
X196488802Y-35512655D01*
X196504177Y-35533385D01*
X196517445Y-35555523D01*
X196528480Y-35578854D01*
X196537175Y-35603155D01*
X196543447Y-35628191D01*
X196547234Y-35653721D01*
X196548500Y-35679500D01*
X196548500Y-36205500D01*
X196547234Y-36231279D01*
X196543447Y-36256809D01*
X196537175Y-36281845D01*
X196528480Y-36306146D01*
X196517445Y-36329477D01*
X196504177Y-36351615D01*
X196488802Y-36372345D01*
X196471469Y-36391469D01*
X196452345Y-36408802D01*
X196431615Y-36424177D01*
X196409477Y-36437445D01*
X196386146Y-36448480D01*
X196361845Y-36457175D01*
X196336809Y-36463447D01*
X196311279Y-36467234D01*
X196285500Y-36468500D01*
X195659500Y-36468500D01*
X195633721Y-36467234D01*
X195608191Y-36463447D01*
X195583155Y-36457175D01*
X195558854Y-36448480D01*
X195535523Y-36437445D01*
X195513385Y-36424177D01*
X195492655Y-36408802D01*
X195473531Y-36391469D01*
X195456198Y-36372345D01*
X195440823Y-36351615D01*
X195427555Y-36329477D01*
X195416520Y-36306146D01*
X195407825Y-36281845D01*
X195401553Y-36256809D01*
X195397766Y-36231279D01*
X195396500Y-36205500D01*
X195396500Y-35679500D01*
X195397766Y-35653721D01*
X195401553Y-35628191D01*
X195407825Y-35603155D01*
X195416520Y-35578854D01*
X195427555Y-35555523D01*
X195440823Y-35533385D01*
X195456198Y-35512655D01*
X195473531Y-35493531D01*
X195492655Y-35476198D01*
X195513385Y-35460823D01*
X195535523Y-35447555D01*
X195558854Y-35436520D01*
X195583155Y-35427825D01*
X195608191Y-35421553D01*
X195633721Y-35417766D01*
X195659500Y-35416500D01*
X196285500Y-35416500D01*
X196311279Y-35417766D01*
G37*
G36*
X151146279Y-37402766D02*
G01*
X151171809Y-37406553D01*
X151196845Y-37412825D01*
X151221146Y-37421520D01*
X151244477Y-37432555D01*
X151266615Y-37445823D01*
X151287345Y-37461198D01*
X151306469Y-37478531D01*
X151323802Y-37497655D01*
X151339177Y-37518385D01*
X151352445Y-37540523D01*
X151363480Y-37563854D01*
X151372175Y-37588155D01*
X151378447Y-37613191D01*
X151382234Y-37638721D01*
X151383500Y-37664500D01*
X151383500Y-38290500D01*
X151382234Y-38316279D01*
X151378447Y-38341809D01*
X151372175Y-38366845D01*
X151363480Y-38391146D01*
X151352445Y-38414477D01*
X151339177Y-38436615D01*
X151323802Y-38457345D01*
X151306469Y-38476469D01*
X151287345Y-38493802D01*
X151266615Y-38509177D01*
X151244477Y-38522445D01*
X151221146Y-38533480D01*
X151196845Y-38542175D01*
X151171809Y-38548447D01*
X151146279Y-38552234D01*
X151120500Y-38553500D01*
X150594500Y-38553500D01*
X150568721Y-38552234D01*
X150543191Y-38548447D01*
X150518155Y-38542175D01*
X150493854Y-38533480D01*
X150470523Y-38522445D01*
X150448385Y-38509177D01*
X150427655Y-38493802D01*
X150408531Y-38476469D01*
X150391198Y-38457345D01*
X150375823Y-38436615D01*
X150362555Y-38414477D01*
X150351520Y-38391146D01*
X150342825Y-38366845D01*
X150336553Y-38341809D01*
X150332766Y-38316279D01*
X150331500Y-38290500D01*
X150331500Y-37664500D01*
X150332766Y-37638721D01*
X150336553Y-37613191D01*
X150342825Y-37588155D01*
X150351520Y-37563854D01*
X150362555Y-37540523D01*
X150375823Y-37518385D01*
X150391198Y-37497655D01*
X150408531Y-37478531D01*
X150427655Y-37461198D01*
X150448385Y-37445823D01*
X150470523Y-37432555D01*
X150493854Y-37421520D01*
X150518155Y-37412825D01*
X150543191Y-37406553D01*
X150568721Y-37402766D01*
X150594500Y-37401500D01*
X151120500Y-37401500D01*
X151146279Y-37402766D01*
G37*
G36*
X151146279Y-35652766D02*
G01*
X151171809Y-35656553D01*
X151196845Y-35662825D01*
X151221146Y-35671520D01*
X151244477Y-35682555D01*
X151266615Y-35695823D01*
X151287345Y-35711198D01*
X151306469Y-35728531D01*
X151323802Y-35747655D01*
X151339177Y-35768385D01*
X151352445Y-35790523D01*
X151363480Y-35813854D01*
X151372175Y-35838155D01*
X151378447Y-35863191D01*
X151382234Y-35888721D01*
X151383500Y-35914500D01*
X151383500Y-36540500D01*
X151382234Y-36566279D01*
X151378447Y-36591809D01*
X151372175Y-36616845D01*
X151363480Y-36641146D01*
X151352445Y-36664477D01*
X151339177Y-36686615D01*
X151323802Y-36707345D01*
X151306469Y-36726469D01*
X151287345Y-36743802D01*
X151266615Y-36759177D01*
X151244477Y-36772445D01*
X151221146Y-36783480D01*
X151196845Y-36792175D01*
X151171809Y-36798447D01*
X151146279Y-36802234D01*
X151120500Y-36803500D01*
X150594500Y-36803500D01*
X150568721Y-36802234D01*
X150543191Y-36798447D01*
X150518155Y-36792175D01*
X150493854Y-36783480D01*
X150470523Y-36772445D01*
X150448385Y-36759177D01*
X150427655Y-36743802D01*
X150408531Y-36726469D01*
X150391198Y-36707345D01*
X150375823Y-36686615D01*
X150362555Y-36664477D01*
X150351520Y-36641146D01*
X150342825Y-36616845D01*
X150336553Y-36591809D01*
X150332766Y-36566279D01*
X150331500Y-36540500D01*
X150331500Y-35914500D01*
X150332766Y-35888721D01*
X150336553Y-35863191D01*
X150342825Y-35838155D01*
X150351520Y-35813854D01*
X150362555Y-35790523D01*
X150375823Y-35768385D01*
X150391198Y-35747655D01*
X150408531Y-35728531D01*
X150427655Y-35711198D01*
X150448385Y-35695823D01*
X150470523Y-35682555D01*
X150493854Y-35671520D01*
X150518155Y-35662825D01*
X150543191Y-35656553D01*
X150568721Y-35652766D01*
X150594500Y-35651500D01*
X151120500Y-35651500D01*
X151146279Y-35652766D01*
G37*
G36*
X200236279Y-42417766D02*
G01*
X200261809Y-42421553D01*
X200286845Y-42427825D01*
X200311146Y-42436520D01*
X200334477Y-42447555D01*
X200356615Y-42460823D01*
X200377345Y-42476198D01*
X200396469Y-42493531D01*
X200413802Y-42512655D01*
X200429177Y-42533385D01*
X200442445Y-42555523D01*
X200453480Y-42578854D01*
X200462175Y-42603155D01*
X200468447Y-42628191D01*
X200472234Y-42653721D01*
X200473500Y-42679500D01*
X200473500Y-43205500D01*
X200472234Y-43231279D01*
X200468447Y-43256809D01*
X200462175Y-43281845D01*
X200453480Y-43306146D01*
X200442445Y-43329477D01*
X200429177Y-43351615D01*
X200413802Y-43372345D01*
X200396469Y-43391469D01*
X200377345Y-43408802D01*
X200356615Y-43424177D01*
X200334477Y-43437445D01*
X200311146Y-43448480D01*
X200286845Y-43457175D01*
X200261809Y-43463447D01*
X200236279Y-43467234D01*
X200210500Y-43468500D01*
X199584500Y-43468500D01*
X199558721Y-43467234D01*
X199533191Y-43463447D01*
X199508155Y-43457175D01*
X199483854Y-43448480D01*
X199460523Y-43437445D01*
X199438385Y-43424177D01*
X199417655Y-43408802D01*
X199398531Y-43391469D01*
X199381198Y-43372345D01*
X199365823Y-43351615D01*
X199352555Y-43329477D01*
X199341520Y-43306146D01*
X199332825Y-43281845D01*
X199326553Y-43256809D01*
X199322766Y-43231279D01*
X199321500Y-43205500D01*
X199321500Y-42679500D01*
X199322766Y-42653721D01*
X199326553Y-42628191D01*
X199332825Y-42603155D01*
X199341520Y-42578854D01*
X199352555Y-42555523D01*
X199365823Y-42533385D01*
X199381198Y-42512655D01*
X199398531Y-42493531D01*
X199417655Y-42476198D01*
X199438385Y-42460823D01*
X199460523Y-42447555D01*
X199483854Y-42436520D01*
X199508155Y-42427825D01*
X199533191Y-42421553D01*
X199558721Y-42417766D01*
X199584500Y-42416500D01*
X200210500Y-42416500D01*
X200236279Y-42417766D01*
G37*
G36*
X198486279Y-42417766D02*
G01*
X198511809Y-42421553D01*
X198536845Y-42427825D01*
X198561146Y-42436520D01*
X198584477Y-42447555D01*
X198606615Y-42460823D01*
X198627345Y-42476198D01*
X198646469Y-42493531D01*
X198663802Y-42512655D01*
X198679177Y-42533385D01*
X198692445Y-42555523D01*
X198703480Y-42578854D01*
X198712175Y-42603155D01*
X198718447Y-42628191D01*
X198722234Y-42653721D01*
X198723500Y-42679500D01*
X198723500Y-43205500D01*
X198722234Y-43231279D01*
X198718447Y-43256809D01*
X198712175Y-43281845D01*
X198703480Y-43306146D01*
X198692445Y-43329477D01*
X198679177Y-43351615D01*
X198663802Y-43372345D01*
X198646469Y-43391469D01*
X198627345Y-43408802D01*
X198606615Y-43424177D01*
X198584477Y-43437445D01*
X198561146Y-43448480D01*
X198536845Y-43457175D01*
X198511809Y-43463447D01*
X198486279Y-43467234D01*
X198460500Y-43468500D01*
X197834500Y-43468500D01*
X197808721Y-43467234D01*
X197783191Y-43463447D01*
X197758155Y-43457175D01*
X197733854Y-43448480D01*
X197710523Y-43437445D01*
X197688385Y-43424177D01*
X197667655Y-43408802D01*
X197648531Y-43391469D01*
X197631198Y-43372345D01*
X197615823Y-43351615D01*
X197602555Y-43329477D01*
X197591520Y-43306146D01*
X197582825Y-43281845D01*
X197576553Y-43256809D01*
X197572766Y-43231279D01*
X197571500Y-43205500D01*
X197571500Y-42679500D01*
X197572766Y-42653721D01*
X197576553Y-42628191D01*
X197582825Y-42603155D01*
X197591520Y-42578854D01*
X197602555Y-42555523D01*
X197615823Y-42533385D01*
X197631198Y-42512655D01*
X197648531Y-42493531D01*
X197667655Y-42476198D01*
X197688385Y-42460823D01*
X197710523Y-42447555D01*
X197733854Y-42436520D01*
X197758155Y-42427825D01*
X197783191Y-42421553D01*
X197808721Y-42417766D01*
X197834500Y-42416500D01*
X198460500Y-42416500D01*
X198486279Y-42417766D01*
G37*
G36*
X160761279Y-52517766D02*
G01*
X160786809Y-52521553D01*
X160811845Y-52527825D01*
X160836146Y-52536520D01*
X160859477Y-52547555D01*
X160881615Y-52560823D01*
X160902345Y-52576198D01*
X160921469Y-52593531D01*
X160938802Y-52612655D01*
X160954177Y-52633385D01*
X160967445Y-52655523D01*
X160978480Y-52678854D01*
X160987175Y-52703155D01*
X160993447Y-52728191D01*
X160997234Y-52753721D01*
X160998500Y-52779500D01*
X160998500Y-53305500D01*
X160997234Y-53331279D01*
X160993447Y-53356809D01*
X160987175Y-53381845D01*
X160978480Y-53406146D01*
X160967445Y-53429477D01*
X160954177Y-53451615D01*
X160938802Y-53472345D01*
X160921469Y-53491469D01*
X160902345Y-53508802D01*
X160881615Y-53524177D01*
X160859477Y-53537445D01*
X160836146Y-53548480D01*
X160811845Y-53557175D01*
X160786809Y-53563447D01*
X160761279Y-53567234D01*
X160735500Y-53568500D01*
X160109500Y-53568500D01*
X160083721Y-53567234D01*
X160058191Y-53563447D01*
X160033155Y-53557175D01*
X160008854Y-53548480D01*
X159985523Y-53537445D01*
X159963385Y-53524177D01*
X159942655Y-53508802D01*
X159923531Y-53491469D01*
X159906198Y-53472345D01*
X159890823Y-53451615D01*
X159877555Y-53429477D01*
X159866520Y-53406146D01*
X159857825Y-53381845D01*
X159851553Y-53356809D01*
X159847766Y-53331279D01*
X159846500Y-53305500D01*
X159846500Y-52779500D01*
X159847766Y-52753721D01*
X159851553Y-52728191D01*
X159857825Y-52703155D01*
X159866520Y-52678854D01*
X159877555Y-52655523D01*
X159890823Y-52633385D01*
X159906198Y-52612655D01*
X159923531Y-52593531D01*
X159942655Y-52576198D01*
X159963385Y-52560823D01*
X159985523Y-52547555D01*
X160008854Y-52536520D01*
X160033155Y-52527825D01*
X160058191Y-52521553D01*
X160083721Y-52517766D01*
X160109500Y-52516500D01*
X160735500Y-52516500D01*
X160761279Y-52517766D01*
G37*
G36*
X159011279Y-52517766D02*
G01*
X159036809Y-52521553D01*
X159061845Y-52527825D01*
X159086146Y-52536520D01*
X159109477Y-52547555D01*
X159131615Y-52560823D01*
X159152345Y-52576198D01*
X159171469Y-52593531D01*
X159188802Y-52612655D01*
X159204177Y-52633385D01*
X159217445Y-52655523D01*
X159228480Y-52678854D01*
X159237175Y-52703155D01*
X159243447Y-52728191D01*
X159247234Y-52753721D01*
X159248500Y-52779500D01*
X159248500Y-53305500D01*
X159247234Y-53331279D01*
X159243447Y-53356809D01*
X159237175Y-53381845D01*
X159228480Y-53406146D01*
X159217445Y-53429477D01*
X159204177Y-53451615D01*
X159188802Y-53472345D01*
X159171469Y-53491469D01*
X159152345Y-53508802D01*
X159131615Y-53524177D01*
X159109477Y-53537445D01*
X159086146Y-53548480D01*
X159061845Y-53557175D01*
X159036809Y-53563447D01*
X159011279Y-53567234D01*
X158985500Y-53568500D01*
X158359500Y-53568500D01*
X158333721Y-53567234D01*
X158308191Y-53563447D01*
X158283155Y-53557175D01*
X158258854Y-53548480D01*
X158235523Y-53537445D01*
X158213385Y-53524177D01*
X158192655Y-53508802D01*
X158173531Y-53491469D01*
X158156198Y-53472345D01*
X158140823Y-53451615D01*
X158127555Y-53429477D01*
X158116520Y-53406146D01*
X158107825Y-53381845D01*
X158101553Y-53356809D01*
X158097766Y-53331279D01*
X158096500Y-53305500D01*
X158096500Y-52779500D01*
X158097766Y-52753721D01*
X158101553Y-52728191D01*
X158107825Y-52703155D01*
X158116520Y-52678854D01*
X158127555Y-52655523D01*
X158140823Y-52633385D01*
X158156198Y-52612655D01*
X158173531Y-52593531D01*
X158192655Y-52576198D01*
X158213385Y-52560823D01*
X158235523Y-52547555D01*
X158258854Y-52536520D01*
X158283155Y-52527825D01*
X158308191Y-52521553D01*
X158333721Y-52517766D01*
X158359500Y-52516500D01*
X158985500Y-52516500D01*
X159011279Y-52517766D01*
G37*
D19*
X74612500Y-65087500D03*
X68262500Y-67627500D03*
D20*
X72072500Y-70167500D03*
D21*
X66992500Y-70167500D03*
X77152500Y-70167500D03*
X96202500Y-70167500D03*
X86042500Y-70167500D03*
D20*
X91122500Y-70167500D03*
D19*
X87312500Y-67627500D03*
X93662500Y-65087500D03*
X112712500Y-65087500D03*
X106362500Y-67627500D03*
D20*
X110172500Y-70167500D03*
D21*
X105092500Y-70167500D03*
X115252500Y-70167500D03*
X134302500Y-70167500D03*
X124142500Y-70167500D03*
D20*
X129222500Y-70167500D03*
D19*
X125412500Y-67627500D03*
X131762500Y-65087500D03*
X150812500Y-65087500D03*
X144462500Y-67627500D03*
D20*
X148272500Y-70167500D03*
D21*
X143192500Y-70167500D03*
X153352500Y-70167500D03*
X172402500Y-70167500D03*
X162242500Y-70167500D03*
D20*
X167322500Y-70167500D03*
D19*
X163512500Y-67627500D03*
X169862500Y-65087500D03*
D21*
X191452500Y-70167500D03*
X181292500Y-70167500D03*
D20*
X186372500Y-70167500D03*
D19*
X182562500Y-67627500D03*
X188912500Y-65087500D03*
X207962500Y-65087500D03*
X201612500Y-67627500D03*
D20*
X205422500Y-70167500D03*
D21*
X200342500Y-70167500D03*
X210502500Y-70167500D03*
X229552500Y-70167500D03*
X219392500Y-70167500D03*
D20*
X224472500Y-70167500D03*
D19*
X220662500Y-67627500D03*
X227012500Y-65087500D03*
X246062500Y-65087500D03*
X239712500Y-67627500D03*
D20*
X243522500Y-70167500D03*
D21*
X238442500Y-70167500D03*
X248602500Y-70167500D03*
D19*
X265112500Y-65087500D03*
X258762500Y-67627500D03*
D20*
X262572500Y-70167500D03*
D21*
X257492500Y-70167500D03*
X267652500Y-70167500D03*
X286702500Y-70167500D03*
X276542500Y-70167500D03*
D20*
X281622500Y-70167500D03*
D19*
X277812500Y-67627500D03*
X284162500Y-65087500D03*
D21*
X305752500Y-70167500D03*
X295592500Y-70167500D03*
D20*
X300672500Y-70167500D03*
D19*
X296862500Y-67627500D03*
X303212500Y-65087500D03*
D24*
X341147500Y-63167500D03*
X317347500Y-63167500D03*
D20*
X317347500Y-78407500D03*
X341147500Y-78407500D03*
D21*
X334327500Y-70167500D03*
X324167500Y-70167500D03*
D20*
X329247500Y-70167500D03*
D19*
X325437500Y-67627500D03*
X331787500Y-65087500D03*
D21*
X362902500Y-70167500D03*
X352742500Y-70167500D03*
D20*
X357822500Y-70167500D03*
D19*
X354012500Y-67627500D03*
X360362500Y-65087500D03*
X79375000Y-84137500D03*
X73025000Y-86677500D03*
D20*
X76835000Y-89217500D03*
D21*
X71755000Y-89217500D03*
X81915000Y-89217500D03*
X105727500Y-89217500D03*
X95567500Y-89217500D03*
D20*
X100647500Y-89217500D03*
D19*
X96837500Y-86677500D03*
X103187500Y-84137500D03*
X122237500Y-84137500D03*
X115887500Y-86677500D03*
D20*
X119697500Y-89217500D03*
D21*
X114617500Y-89217500D03*
X124777500Y-89217500D03*
X143827500Y-89217500D03*
X133667500Y-89217500D03*
D20*
X138747500Y-89217500D03*
D19*
X134937500Y-86677500D03*
X141287500Y-84137500D03*
X160337500Y-84137500D03*
X153987500Y-86677500D03*
D20*
X157797500Y-89217500D03*
D21*
X152717500Y-89217500D03*
X162877500Y-89217500D03*
X181927500Y-89217500D03*
X171767500Y-89217500D03*
D20*
X176847500Y-89217500D03*
D19*
X173037500Y-86677500D03*
X179387500Y-84137500D03*
D21*
X200977500Y-89217500D03*
X190817500Y-89217500D03*
D20*
X195897500Y-89217500D03*
D19*
X192087500Y-86677500D03*
X198437500Y-84137500D03*
X217487500Y-84137500D03*
X211137500Y-86677500D03*
D20*
X214947500Y-89217500D03*
D21*
X209867500Y-89217500D03*
X220027500Y-89217500D03*
D19*
X236537500Y-84137500D03*
X230187500Y-86677500D03*
D20*
X233997500Y-89217500D03*
D21*
X228917500Y-89217500D03*
X239077500Y-89217500D03*
D19*
X255587500Y-84137500D03*
X249237500Y-86677500D03*
D20*
X253047500Y-89217500D03*
D21*
X247967500Y-89217500D03*
X258127500Y-89217500D03*
D19*
X274637500Y-84137500D03*
X268287500Y-86677500D03*
D20*
X272097500Y-89217500D03*
D21*
X267017500Y-89217500D03*
X277177500Y-89217500D03*
D19*
X293687500Y-84137500D03*
X287337500Y-86677500D03*
D20*
X291147500Y-89217500D03*
D21*
X286067500Y-89217500D03*
X296227500Y-89217500D03*
D19*
X312737500Y-84137500D03*
X306387500Y-86677500D03*
D20*
X310197500Y-89217500D03*
D21*
X305117500Y-89217500D03*
X315277500Y-89217500D03*
X339090000Y-89217500D03*
X328930000Y-89217500D03*
D20*
X334010000Y-89217500D03*
D19*
X330200000Y-86677500D03*
X336550000Y-84137500D03*
D21*
X362902500Y-89217500D03*
X352742500Y-89217500D03*
D20*
X357822500Y-89217500D03*
D19*
X354012500Y-86677500D03*
X360362500Y-84137500D03*
D21*
X84296250Y-108267500D03*
X74136250Y-108267500D03*
D20*
X79216250Y-108267500D03*
D19*
X75406250Y-105727500D03*
X81756250Y-103187500D03*
X107950000Y-103187500D03*
X101600000Y-105727500D03*
D20*
X105410000Y-108267500D03*
D21*
X100330000Y-108267500D03*
X110490000Y-108267500D03*
D19*
X127000000Y-103187500D03*
X120650000Y-105727500D03*
D20*
X124460000Y-108267500D03*
D21*
X119380000Y-108267500D03*
X129540000Y-108267500D03*
X148590000Y-108267500D03*
X138430000Y-108267500D03*
D20*
X143510000Y-108267500D03*
D19*
X139700000Y-105727500D03*
X146050000Y-103187500D03*
D21*
X167640000Y-108267500D03*
X157480000Y-108267500D03*
D20*
X162560000Y-108267500D03*
D19*
X158750000Y-105727500D03*
X165100000Y-103187500D03*
X184150000Y-103187500D03*
X177800000Y-105727500D03*
D20*
X181610000Y-108267500D03*
D21*
X176530000Y-108267500D03*
X186690000Y-108267500D03*
D19*
X203200000Y-103187500D03*
X196850000Y-105727500D03*
D20*
X200660000Y-108267500D03*
D21*
X195580000Y-108267500D03*
X205740000Y-108267500D03*
D19*
X222250000Y-103187500D03*
X215900000Y-105727500D03*
D20*
X219710000Y-108267500D03*
D21*
X214630000Y-108267500D03*
X224790000Y-108267500D03*
D19*
X241300000Y-103187500D03*
X234950000Y-105727500D03*
D20*
X238760000Y-108267500D03*
D21*
X233680000Y-108267500D03*
X243840000Y-108267500D03*
X262890000Y-108267500D03*
X252730000Y-108267500D03*
D20*
X257810000Y-108267500D03*
D19*
X254000000Y-105727500D03*
X260350000Y-103187500D03*
D21*
X281940000Y-108267500D03*
X271780000Y-108267500D03*
D20*
X276860000Y-108267500D03*
D19*
X273050000Y-105727500D03*
X279400000Y-103187500D03*
D21*
X300990000Y-108267500D03*
X290830000Y-108267500D03*
D20*
X295910000Y-108267500D03*
D19*
X292100000Y-105727500D03*
X298450000Y-103187500D03*
D24*
X338766250Y-101267500D03*
X314966250Y-101267500D03*
D20*
X314966250Y-116507500D03*
X338766250Y-116507500D03*
D21*
X331946250Y-108267500D03*
X321786250Y-108267500D03*
D20*
X326866250Y-108267500D03*
D19*
X323056250Y-105727500D03*
X329406250Y-103187500D03*
X360362500Y-103187500D03*
X354012500Y-105727500D03*
D20*
X357822500Y-108267500D03*
D21*
X352742500Y-108267500D03*
X362902500Y-108267500D03*
D19*
X86518750Y-122237500D03*
X80168750Y-124777500D03*
D20*
X83978750Y-127317500D03*
D21*
X78898750Y-127317500D03*
X89058750Y-127317500D03*
D20*
X95878750Y-135557500D03*
X72078750Y-135557500D03*
D24*
X72078750Y-120317500D03*
X95878750Y-120317500D03*
D21*
X120015000Y-127317500D03*
X109855000Y-127317500D03*
D20*
X114935000Y-127317500D03*
D19*
X111125000Y-124777500D03*
X117475000Y-122237500D03*
D21*
X139065000Y-127317500D03*
X128905000Y-127317500D03*
D20*
X133985000Y-127317500D03*
D19*
X130175000Y-124777500D03*
X136525000Y-122237500D03*
X155575000Y-122237500D03*
X149225000Y-124777500D03*
D20*
X153035000Y-127317500D03*
D21*
X147955000Y-127317500D03*
X158115000Y-127317500D03*
D19*
X174625000Y-122237500D03*
X168275000Y-124777500D03*
D20*
X172085000Y-127317500D03*
D21*
X167005000Y-127317500D03*
X177165000Y-127317500D03*
X196215000Y-127317500D03*
X186055000Y-127317500D03*
D20*
X191135000Y-127317500D03*
D19*
X187325000Y-124777500D03*
X193675000Y-122237500D03*
D21*
X215265000Y-127317500D03*
X205105000Y-127317500D03*
D20*
X210185000Y-127317500D03*
D19*
X206375000Y-124777500D03*
X212725000Y-122237500D03*
D21*
X234315000Y-127317500D03*
X224155000Y-127317500D03*
D20*
X229235000Y-127317500D03*
D19*
X225425000Y-124777500D03*
X231775000Y-122237500D03*
D21*
X253365000Y-127317500D03*
X243205000Y-127317500D03*
D20*
X248285000Y-127317500D03*
D19*
X244475000Y-124777500D03*
X250825000Y-122237500D03*
D21*
X272415000Y-127317500D03*
X262255000Y-127317500D03*
D20*
X267335000Y-127317500D03*
D19*
X263525000Y-124777500D03*
X269875000Y-122237500D03*
D21*
X291465000Y-127317500D03*
X281305000Y-127317500D03*
D20*
X286385000Y-127317500D03*
D19*
X282575000Y-124777500D03*
X288925000Y-122237500D03*
X315118750Y-122237500D03*
X308768750Y-124777500D03*
D20*
X312578750Y-127317500D03*
D21*
X307498750Y-127317500D03*
X317658750Y-127317500D03*
X343852500Y-127317500D03*
X333692500Y-127317500D03*
D20*
X338772500Y-127317500D03*
D19*
X334962500Y-124777500D03*
X341312500Y-122237500D03*
D21*
X362902500Y-127317500D03*
X352742500Y-127317500D03*
D20*
X357822500Y-127317500D03*
D19*
X354012500Y-124777500D03*
X360362500Y-122237500D03*
X76993750Y-141287500D03*
X70643750Y-143827500D03*
D20*
X74453750Y-146367500D03*
D21*
X69373750Y-146367500D03*
X79533750Y-146367500D03*
X103346250Y-146367500D03*
X93186250Y-146367500D03*
D20*
X98266250Y-146367500D03*
D19*
X94456250Y-143827500D03*
X100806250Y-141287500D03*
D21*
X127158750Y-146367500D03*
X116998750Y-146367500D03*
D20*
X122078750Y-146367500D03*
D19*
X118268750Y-143827500D03*
X124618750Y-141287500D03*
X188912500Y-141287500D03*
X182562500Y-143827500D03*
D20*
X186372500Y-146367500D03*
D21*
X181292500Y-146367500D03*
X191452500Y-146367500D03*
D19*
X322262500Y-141287500D03*
X315912500Y-143827500D03*
D20*
X319722500Y-146367500D03*
D21*
X314642500Y-146367500D03*
X324802500Y-146367500D03*
D19*
X341312500Y-141287500D03*
X334962500Y-143827500D03*
D20*
X338772500Y-146367500D03*
D21*
X333692500Y-146367500D03*
X343852500Y-146367500D03*
D19*
X360362500Y-141287500D03*
X354012500Y-143827500D03*
D20*
X357822500Y-146367500D03*
D21*
X352742500Y-146367500D03*
X362902500Y-146367500D03*
X305752500Y-146367500D03*
X295592500Y-146367500D03*
D20*
X300672500Y-146367500D03*
D19*
X296862500Y-143827500D03*
X303212500Y-141287500D03*
X76993750Y-103187500D03*
X70643750Y-105727500D03*
D20*
X74453750Y-108267500D03*
D21*
X69373750Y-108267500D03*
X79533750Y-108267500D03*
D19*
X79375000Y-141287500D03*
X73025000Y-143827500D03*
D20*
X76835000Y-146367500D03*
D21*
X71755000Y-146367500D03*
X81915000Y-146367500D03*
X110490000Y-146367500D03*
X100330000Y-146367500D03*
D20*
X105410000Y-146367500D03*
D19*
X101600000Y-143827500D03*
X107950000Y-141287500D03*
X196056250Y-141287500D03*
X189706250Y-143827500D03*
D20*
X193516250Y-146367500D03*
D21*
X188436250Y-146367500D03*
X198596250Y-146367500D03*
D19*
X269875000Y-141287500D03*
X263525000Y-143827500D03*
D20*
X267335000Y-146367500D03*
D21*
X262255000Y-146367500D03*
X272415000Y-146367500D03*
X300990000Y-146367500D03*
X290830000Y-146367500D03*
D20*
X295910000Y-146367500D03*
D19*
X292100000Y-143827500D03*
X298450000Y-141287500D03*
D25*
X361250000Y-48243750D03*
X361250000Y-43243750D03*
D26*
X354250000Y-51343750D03*
X354250000Y-40143750D03*
D25*
X346750000Y-48243750D03*
X346750000Y-45743750D03*
D27*
X346750000Y-43243750D03*
D28*
X175147500Y-52092500D03*
X175147500Y-51292500D03*
X175147500Y-50492500D03*
X175147500Y-49692500D03*
X175147500Y-48892500D03*
X175147500Y-48092500D03*
X175147500Y-47292500D03*
X175147500Y-46492500D03*
X175147500Y-45692500D03*
X175147500Y-44892500D03*
X175147500Y-44092500D03*
D29*
X173447500Y-42392500D03*
X172647500Y-42392500D03*
X171847500Y-42392500D03*
X171047500Y-42392500D03*
X170247500Y-42392500D03*
X169447500Y-42392500D03*
X168647500Y-42392500D03*
X167847500Y-42392500D03*
X167047500Y-42392500D03*
X166247500Y-42392500D03*
X165447500Y-42392500D03*
D28*
X163747500Y-44092500D03*
X163747500Y-44892500D03*
X163747500Y-45692500D03*
X163747500Y-46492500D03*
X163747500Y-47292500D03*
X163747500Y-48092500D03*
X163747500Y-48892500D03*
X163747500Y-49692500D03*
X163747500Y-50492500D03*
X163747500Y-51292500D03*
X163747500Y-52092500D03*
D29*
X165447500Y-53792500D03*
X166247500Y-53792500D03*
X167047500Y-53792500D03*
X167847500Y-53792500D03*
X168647500Y-53792500D03*
X169447500Y-53792500D03*
X170247500Y-53792500D03*
X171047500Y-53792500D03*
X171847500Y-53792500D03*
X172647500Y-53792500D03*
X173447500Y-53792500D03*
D30*
X218312500Y-42873750D03*
X217812500Y-42873750D03*
X217312500Y-42873750D03*
X216812500Y-42873750D03*
X216312500Y-42873750D03*
X215812500Y-42873750D03*
X215312500Y-42873750D03*
X214812500Y-42873750D03*
X214312500Y-42873750D03*
X213812500Y-42873750D03*
X213312500Y-42873750D03*
X212812500Y-42873750D03*
D31*
X167897500Y-37892500D03*
X171197500Y-37892500D03*
X171197500Y-35892500D03*
X167897500Y-35892500D03*
M02*
