M48
; DRILL file {KiCad (5.1.5)-3} date 10/07/2020 10:22:57
; FORMAT={-:-/ absolute / metric / decimal}
; #@! TF.CreationDate,2020-07-10T10:22:57+02:00
; #@! TF.GenerationSoftware,Kicad,Pcbnew,(5.1.5)-3
FMAT,2
METRIC
T1C0.400
T2C0.600
T3C1.000
T4C1.500
T5C3.200
T6C1.700
T7C3.048
T8C3.050
T9C3.988
T10C4.000
%
G90
G05
T1
X64.477Y-57.512
X66.447Y-53.742
X68.647Y-49.992
X70.555Y-46.15
X97.337Y-46.102
X97.347Y-49.992
X97.347Y-53.742
X97.347Y-57.492
X109.547Y-43.642
X130.477Y-53.642
X130.48Y-57.4
X130.49Y-49.9
X130.51Y-46.15
X150.64Y-46.15
X152.74Y-49.9
X154.697Y-53.642
X155.647Y-55.498
X156.547Y-45.692
X157.347Y-46.492
X157.577Y-39.152
X158.147Y-47.292
X158.167Y-38.362
X158.947Y-48.093
X159.748Y-48.892
X160.547Y-49.692
X161.347Y-50.492
X162.197Y-51.292
X163.748Y-53.642
X163.748Y-57.542
X167.047Y-59.242
X167.847Y-58.442
X168.647Y-57.742
X169.447Y-57.042
X170.248Y-56.242
X171.047Y-55.442
X174.627Y-41.133
X175.147Y-53.617
X176.697Y-47.292
X176.738Y-40.102
X178.397Y-46.492
X178.472Y-51.517
X179.697Y-45.692
X182.397Y-57.292
X184.447Y-53.542
X186.49Y-49.8
X188.355Y-46.05
X197.3Y-48.595
X212.547Y-47.442
X213.297Y-46.442
X213.718Y-44.972
X215.047Y-46.442
X215.54Y-49.8
X215.54Y-53.55
X215.54Y-57.3
X216.047Y-47.442
X217.748Y-45.042
X222.248Y-46.042
X231.147Y-48.642
X244.397Y-120.718
X249.547Y-46.042
X249.547Y-49.843
X249.547Y-53.592
X249.547Y-57.35
X269.548Y-51.843
X269.572Y-48.542
X289.54Y-46.05
X289.54Y-49.85
X289.54Y-53.6
X289.54Y-57.35
X302.147Y-42.642
X317.49Y-46.05
X319.548Y-49.85
X320.847Y-59.542
X321.248Y-51.343
X321.39Y-53.6
X324.748Y-55.142
X328.397Y-46.042
X338.197Y-47.942
X212.762Y-40.874
X213.162Y-40.174
X213.562Y-40.874
X213.962Y-40.174
X214.362Y-40.874
X214.762Y-40.174
X215.162Y-40.874
X215.962Y-40.874
X216.362Y-40.164
X216.762Y-40.874
X217.162Y-40.174
X217.562Y-40.874
X217.962Y-40.174
X218.362Y-40.874
T3
X346.75Y-43.244
X346.75Y-45.744
X346.75Y-48.244
X361.25Y-43.244
X361.25Y-48.244
T4
X139.7Y-105.727
X146.05Y-103.188
X354.012Y-105.727
X360.363Y-103.188
X315.912Y-143.827
X322.262Y-141.287
X101.6Y-143.827
X107.95Y-141.287
X144.463Y-67.627
X150.812Y-65.087
X153.987Y-86.677
X160.338Y-84.138
X163.512Y-67.627
X169.862Y-65.087
X101.6Y-105.727
X107.95Y-103.188
X273.05Y-105.727
X279.4Y-103.188
X306.387Y-86.677
X312.738Y-84.138
X308.769Y-124.777
X315.119Y-122.237
X80.169Y-124.777
X86.519Y-122.237
X189.706Y-143.827
X196.056Y-141.287
X296.863Y-143.827
X303.212Y-141.287
X258.762Y-67.627
X265.113Y-65.087
X134.938Y-86.677
X141.287Y-84.138
X287.337Y-86.677
X293.688Y-84.138
X187.325Y-124.777
X193.675Y-122.237
X230.188Y-86.677
X236.537Y-84.138
X225.425Y-124.777
X231.775Y-122.237
X334.962Y-143.827
X341.312Y-141.287
X354.012Y-143.827
X360.363Y-141.287
X201.612Y-67.627
X207.962Y-65.087
X239.712Y-67.627
X246.062Y-65.087
X254.0Y-105.727
X260.35Y-103.188
X206.375Y-124.777
X212.725Y-122.237
X75.406Y-105.727
X81.756Y-103.188
X111.125Y-124.777
X117.475Y-122.237
X118.269Y-143.827
X124.619Y-141.287
X94.456Y-143.827
X100.806Y-141.287
X325.438Y-67.627
X331.787Y-65.087
X115.887Y-86.677
X122.237Y-84.138
X354.012Y-86.677
X360.363Y-84.138
X234.95Y-105.727
X241.3Y-103.188
X323.056Y-105.727
X329.406Y-103.188
X125.412Y-67.627
X131.762Y-65.087
X268.287Y-86.677
X274.637Y-84.138
X168.275Y-124.777
X174.625Y-122.237
X292.1Y-143.827
X298.45Y-141.287
X182.562Y-143.827
X188.912Y-141.287
X182.562Y-67.627
X188.912Y-65.087
X192.087Y-86.677
X198.438Y-84.138
X96.837Y-86.677
X103.188Y-84.138
X211.137Y-86.677
X217.487Y-84.138
X244.475Y-124.777
X250.825Y-122.237
X215.9Y-105.727
X222.25Y-103.188
X149.225Y-124.777
X155.575Y-122.237
X106.362Y-67.627
X112.712Y-65.087
X330.2Y-86.677
X336.55Y-84.138
X282.575Y-124.777
X288.925Y-122.237
X263.525Y-143.827
X269.875Y-141.287
X70.644Y-105.727
X76.994Y-103.188
X296.863Y-67.627
X303.212Y-65.087
X354.012Y-67.627
X360.363Y-65.087
X220.662Y-67.627
X227.012Y-65.087
X249.237Y-86.677
X255.587Y-84.138
X130.175Y-124.777
X136.525Y-122.237
X196.85Y-105.727
X203.2Y-103.188
X354.012Y-124.777
X360.363Y-122.237
X87.312Y-67.627
X93.662Y-65.087
X158.75Y-105.727
X165.1Y-103.188
X277.812Y-143.827
X284.162Y-141.287
X263.525Y-124.777
X269.875Y-122.237
X73.025Y-143.827
X79.375Y-141.287
X258.762Y-143.827
X265.113Y-141.287
X70.644Y-143.827
X76.994Y-141.287
X277.812Y-67.627
X284.162Y-65.087
X173.037Y-86.677
X179.387Y-84.138
X73.025Y-86.677
X79.375Y-84.138
X120.65Y-105.727
X127.0Y-103.188
X292.1Y-105.727
X298.45Y-103.188
X177.8Y-105.727
X184.15Y-103.188
X334.962Y-124.777
X341.312Y-122.237
X68.263Y-67.627
X74.612Y-65.087
T5
X214.947Y-78.142
X102.647Y-126.742
X214.947Y-140.243
X300.697Y-78.142
X301.447Y-126.942
X129.197Y-78.142
T6
X328.93Y-89.218
X339.09Y-89.218
X281.305Y-127.317
X291.465Y-127.317
X262.255Y-146.368
X272.415Y-146.368
X69.374Y-108.267
X79.534Y-108.267
X295.592Y-70.167
X305.752Y-70.167
X352.743Y-70.167
X362.902Y-70.167
X219.392Y-70.167
X229.552Y-70.167
X247.968Y-89.218
X258.127Y-89.218
X128.905Y-127.317
X139.065Y-127.317
X195.58Y-108.267
X205.74Y-108.267
X352.743Y-127.317
X362.902Y-127.317
X86.042Y-70.167
X96.203Y-70.167
X157.48Y-108.267
X167.64Y-108.267
X276.542Y-146.368
X286.702Y-146.368
X262.255Y-127.317
X272.415Y-127.317
X71.755Y-146.368
X81.915Y-146.368
X257.493Y-146.368
X267.652Y-146.368
X69.374Y-146.368
X79.534Y-146.368
X276.542Y-70.167
X286.702Y-70.167
X171.767Y-89.218
X181.927Y-89.218
X71.755Y-89.218
X81.915Y-89.218
X119.38Y-108.267
X129.54Y-108.267
X290.83Y-108.267
X300.99Y-108.267
X176.53Y-108.267
X186.69Y-108.267
X333.692Y-127.317
X343.852Y-127.317
X66.992Y-70.167
X77.153Y-70.167
X138.43Y-108.267
X148.59Y-108.267
X352.743Y-108.267
X362.902Y-108.267
X314.642Y-146.368
X324.803Y-146.368
X100.33Y-146.368
X110.49Y-146.368
X143.192Y-70.167
X153.352Y-70.167
X152.718Y-89.218
X162.877Y-89.218
X162.243Y-70.167
X172.403Y-70.167
X100.33Y-108.267
X110.49Y-108.267
X271.78Y-108.267
X281.94Y-108.267
X305.118Y-89.218
X315.277Y-89.218
X307.499Y-127.317
X317.659Y-127.317
X78.899Y-127.317
X89.059Y-127.317
X188.436Y-146.368
X198.596Y-146.368
X295.592Y-146.368
X305.752Y-146.368
X257.493Y-70.167
X267.652Y-70.167
X133.667Y-89.218
X143.827Y-89.218
X286.067Y-89.218
X296.227Y-89.218
X186.055Y-127.317
X196.215Y-127.317
X228.917Y-89.218
X239.077Y-89.218
X224.155Y-127.317
X234.315Y-127.317
X333.692Y-146.368
X343.852Y-146.368
X352.743Y-146.368
X362.902Y-146.368
X200.343Y-70.167
X210.502Y-70.167
X238.442Y-70.167
X248.602Y-70.167
X252.73Y-108.267
X262.89Y-108.267
X205.105Y-127.317
X215.265Y-127.317
X74.136Y-108.267
X84.296Y-108.267
X109.855Y-127.317
X120.015Y-127.317
X116.999Y-146.368
X127.159Y-146.368
X93.186Y-146.368
X103.346Y-146.368
X324.167Y-70.167
X334.327Y-70.167
X114.617Y-89.218
X124.777Y-89.218
X352.743Y-89.218
X362.902Y-89.218
X233.68Y-108.267
X243.84Y-108.267
X321.786Y-108.267
X331.946Y-108.267
X124.142Y-70.167
X134.302Y-70.167
X267.017Y-89.218
X277.178Y-89.218
X167.005Y-127.317
X177.165Y-127.317
X290.83Y-146.368
X300.99Y-146.368
X181.292Y-146.368
X191.452Y-146.368
X181.292Y-70.167
X191.452Y-70.167
X190.817Y-89.218
X200.977Y-89.218
X95.567Y-89.218
X105.727Y-89.218
X209.867Y-89.218
X220.028Y-89.218
X243.205Y-127.317
X253.365Y-127.317
X214.63Y-108.267
X224.79Y-108.267
X147.955Y-127.317
X158.115Y-127.317
X105.093Y-70.167
X115.252Y-70.167
T7
X143.519Y-153.352
X243.519Y-153.352
X129.231Y-153.352
X243.531Y-153.352
T8
X72.079Y-120.317
X95.879Y-120.317
X317.347Y-63.167
X341.147Y-63.167
X314.966Y-101.267
X338.766Y-101.267
T9
X143.519Y-138.112
X243.519Y-138.112
X129.231Y-138.112
X243.531Y-138.112
T10
X124.46Y-108.267
X295.91Y-108.267
X181.61Y-108.267
X338.772Y-127.317
X72.072Y-70.167
X143.51Y-108.267
X357.822Y-108.267
X319.722Y-146.368
X105.41Y-146.368
X148.272Y-70.167
X157.797Y-89.218
X167.322Y-70.167
X105.41Y-108.267
X276.86Y-108.267
X310.197Y-89.218
X312.579Y-127.317
X72.079Y-135.558
X83.979Y-127.317
X95.879Y-135.558
X193.516Y-146.368
X300.673Y-146.368
X262.572Y-70.167
X138.748Y-89.218
X291.147Y-89.218
X191.135Y-127.317
X233.998Y-89.218
X229.235Y-127.317
X338.772Y-146.368
X357.822Y-146.368
X205.422Y-70.167
X243.522Y-70.167
X257.81Y-108.267
X210.185Y-127.317
X79.216Y-108.267
X114.935Y-127.317
X122.079Y-146.368
X98.266Y-146.368
X317.347Y-78.407
X329.248Y-70.167
X341.147Y-78.407
X119.697Y-89.218
X357.822Y-89.218
X238.76Y-108.267
X314.966Y-116.507
X326.866Y-108.267
X338.766Y-116.507
X129.222Y-70.167
X272.097Y-89.218
X172.085Y-127.317
X295.91Y-146.368
X186.373Y-146.368
X186.373Y-70.167
X195.897Y-89.218
X100.647Y-89.218
X214.947Y-89.218
X248.285Y-127.317
X219.71Y-108.267
X153.035Y-127.317
X110.172Y-70.167
X334.01Y-89.218
X286.385Y-127.317
X267.335Y-146.368
X74.454Y-108.267
X300.673Y-70.167
X357.822Y-70.167
X224.472Y-70.167
X253.047Y-89.218
X133.985Y-127.317
X200.66Y-108.267
X357.822Y-127.317
X91.123Y-70.167
X162.56Y-108.267
X281.623Y-146.368
X267.335Y-127.317
X76.835Y-146.368
X262.572Y-146.368
X74.454Y-146.368
X281.623Y-70.167
X176.847Y-89.218
X76.835Y-89.218
T2
G00X211.292Y-35.294
M15
G01X211.292Y-34.694
M16
G05
G00X211.292Y-40.024
M15
G01X211.292Y-39.424
M16
G05
G00X219.832Y-35.294
M15
G01X219.832Y-34.694
M16
G05
G00X219.832Y-40.024
M15
G01X219.832Y-39.424
M16
G05
T4
G00X353.6Y-40.144
M15
G01X354.9Y-40.144
M16
G05
G00X353.6Y-51.344
M15
G01X354.9Y-51.344
M16
G05
T0
M30
