G04 #@! TF.GenerationSoftware,KiCad,Pcbnew,(5.1.5)-3*
G04 #@! TF.CreationDate,2020-07-10T10:23:01+02:00*
G04 #@! TF.ProjectId,65_keyboard_pcb,36355f6b-6579-4626-9f61-72645f706362,rev?*
G04 #@! TF.SameCoordinates,Original*
G04 #@! TF.FileFunction,Legend,Bot*
G04 #@! TF.FilePolarity,Positive*
%FSLAX46Y46*%
G04 Gerber Fmt 4.6, Leading zero omitted, Abs format (unit mm)*
G04 Created by KiCad (PCBNEW (5.1.5)-3) date 2020-07-10 10:23:01*
%MOMM*%
%LPD*%
G04 APERTURE LIST*
%ADD10C,6.502000*%
%ADD11C,2.302000*%
%ADD12C,4.102000*%
%ADD13C,1.802000*%
%ADD14C,4.089800*%
%ADD15C,3.150000*%
%ADD16C,3.152000*%
%ADD17C,2.102000*%
%ADD18R,3.302000X2.102000*%
%ADD19R,2.102000X2.102000*%
%ADD20C,0.752000*%
%ADD21O,1.102000X1.702000*%
G04 APERTURE END LIST*
%LPC*%
D10*
X214947500Y-140242500D03*
X301447500Y-126942500D03*
X102647500Y-126742500D03*
X214947500Y-78142500D03*
X300697500Y-78142500D03*
X129197500Y-78142500D03*
D11*
X284162500Y-141287500D03*
X277812500Y-143827500D03*
D12*
X281622500Y-146367500D03*
D13*
X276542500Y-146367500D03*
X286702500Y-146367500D03*
D11*
X265112500Y-141287500D03*
X258762500Y-143827500D03*
D12*
X262572500Y-146367500D03*
D13*
X257492500Y-146367500D03*
X267652500Y-146367500D03*
D14*
X243531250Y-138112500D03*
X129231250Y-138112500D03*
D15*
X243531250Y-153352500D03*
X129231250Y-153352500D03*
X143518750Y-153352500D03*
X243518550Y-153352500D03*
D14*
X143518750Y-138112500D03*
X243518550Y-138112500D03*
D11*
X74612500Y-65087500D03*
X68262500Y-67627500D03*
D12*
X72072500Y-70167500D03*
D13*
X66992500Y-70167500D03*
X77152500Y-70167500D03*
X96202500Y-70167500D03*
X86042500Y-70167500D03*
D12*
X91122500Y-70167500D03*
D11*
X87312500Y-67627500D03*
X93662500Y-65087500D03*
X112712500Y-65087500D03*
X106362500Y-67627500D03*
D12*
X110172500Y-70167500D03*
D13*
X105092500Y-70167500D03*
X115252500Y-70167500D03*
X134302500Y-70167500D03*
X124142500Y-70167500D03*
D12*
X129222500Y-70167500D03*
D11*
X125412500Y-67627500D03*
X131762500Y-65087500D03*
X150812500Y-65087500D03*
X144462500Y-67627500D03*
D12*
X148272500Y-70167500D03*
D13*
X143192500Y-70167500D03*
X153352500Y-70167500D03*
X172402500Y-70167500D03*
X162242500Y-70167500D03*
D12*
X167322500Y-70167500D03*
D11*
X163512500Y-67627500D03*
X169862500Y-65087500D03*
D13*
X191452500Y-70167500D03*
X181292500Y-70167500D03*
D12*
X186372500Y-70167500D03*
D11*
X182562500Y-67627500D03*
X188912500Y-65087500D03*
X207962500Y-65087500D03*
X201612500Y-67627500D03*
D12*
X205422500Y-70167500D03*
D13*
X200342500Y-70167500D03*
X210502500Y-70167500D03*
X229552500Y-70167500D03*
X219392500Y-70167500D03*
D12*
X224472500Y-70167500D03*
D11*
X220662500Y-67627500D03*
X227012500Y-65087500D03*
X246062500Y-65087500D03*
X239712500Y-67627500D03*
D12*
X243522500Y-70167500D03*
D13*
X238442500Y-70167500D03*
X248602500Y-70167500D03*
D11*
X265112500Y-65087500D03*
X258762500Y-67627500D03*
D12*
X262572500Y-70167500D03*
D13*
X257492500Y-70167500D03*
X267652500Y-70167500D03*
X286702500Y-70167500D03*
X276542500Y-70167500D03*
D12*
X281622500Y-70167500D03*
D11*
X277812500Y-67627500D03*
X284162500Y-65087500D03*
D13*
X305752500Y-70167500D03*
X295592500Y-70167500D03*
D12*
X300672500Y-70167500D03*
D11*
X296862500Y-67627500D03*
X303212500Y-65087500D03*
D16*
X341147500Y-63167500D03*
X317347500Y-63167500D03*
D12*
X317347500Y-78407500D03*
X341147500Y-78407500D03*
D13*
X334327500Y-70167500D03*
X324167500Y-70167500D03*
D12*
X329247500Y-70167500D03*
D11*
X325437500Y-67627500D03*
X331787500Y-65087500D03*
D13*
X362902500Y-70167500D03*
X352742500Y-70167500D03*
D12*
X357822500Y-70167500D03*
D11*
X354012500Y-67627500D03*
X360362500Y-65087500D03*
X79375000Y-84137500D03*
X73025000Y-86677500D03*
D12*
X76835000Y-89217500D03*
D13*
X71755000Y-89217500D03*
X81915000Y-89217500D03*
X105727500Y-89217500D03*
X95567500Y-89217500D03*
D12*
X100647500Y-89217500D03*
D11*
X96837500Y-86677500D03*
X103187500Y-84137500D03*
X122237500Y-84137500D03*
X115887500Y-86677500D03*
D12*
X119697500Y-89217500D03*
D13*
X114617500Y-89217500D03*
X124777500Y-89217500D03*
X143827500Y-89217500D03*
X133667500Y-89217500D03*
D12*
X138747500Y-89217500D03*
D11*
X134937500Y-86677500D03*
X141287500Y-84137500D03*
X160337500Y-84137500D03*
X153987500Y-86677500D03*
D12*
X157797500Y-89217500D03*
D13*
X152717500Y-89217500D03*
X162877500Y-89217500D03*
X181927500Y-89217500D03*
X171767500Y-89217500D03*
D12*
X176847500Y-89217500D03*
D11*
X173037500Y-86677500D03*
X179387500Y-84137500D03*
D13*
X200977500Y-89217500D03*
X190817500Y-89217500D03*
D12*
X195897500Y-89217500D03*
D11*
X192087500Y-86677500D03*
X198437500Y-84137500D03*
X217487500Y-84137500D03*
X211137500Y-86677500D03*
D12*
X214947500Y-89217500D03*
D13*
X209867500Y-89217500D03*
X220027500Y-89217500D03*
D11*
X236537500Y-84137500D03*
X230187500Y-86677500D03*
D12*
X233997500Y-89217500D03*
D13*
X228917500Y-89217500D03*
X239077500Y-89217500D03*
D11*
X255587500Y-84137500D03*
X249237500Y-86677500D03*
D12*
X253047500Y-89217500D03*
D13*
X247967500Y-89217500D03*
X258127500Y-89217500D03*
D11*
X274637500Y-84137500D03*
X268287500Y-86677500D03*
D12*
X272097500Y-89217500D03*
D13*
X267017500Y-89217500D03*
X277177500Y-89217500D03*
D11*
X293687500Y-84137500D03*
X287337500Y-86677500D03*
D12*
X291147500Y-89217500D03*
D13*
X286067500Y-89217500D03*
X296227500Y-89217500D03*
D11*
X312737500Y-84137500D03*
X306387500Y-86677500D03*
D12*
X310197500Y-89217500D03*
D13*
X305117500Y-89217500D03*
X315277500Y-89217500D03*
X339090000Y-89217500D03*
X328930000Y-89217500D03*
D12*
X334010000Y-89217500D03*
D11*
X330200000Y-86677500D03*
X336550000Y-84137500D03*
D13*
X362902500Y-89217500D03*
X352742500Y-89217500D03*
D12*
X357822500Y-89217500D03*
D11*
X354012500Y-86677500D03*
X360362500Y-84137500D03*
D13*
X84296250Y-108267500D03*
X74136250Y-108267500D03*
D12*
X79216250Y-108267500D03*
D11*
X75406250Y-105727500D03*
X81756250Y-103187500D03*
X107950000Y-103187500D03*
X101600000Y-105727500D03*
D12*
X105410000Y-108267500D03*
D13*
X100330000Y-108267500D03*
X110490000Y-108267500D03*
D11*
X127000000Y-103187500D03*
X120650000Y-105727500D03*
D12*
X124460000Y-108267500D03*
D13*
X119380000Y-108267500D03*
X129540000Y-108267500D03*
X148590000Y-108267500D03*
X138430000Y-108267500D03*
D12*
X143510000Y-108267500D03*
D11*
X139700000Y-105727500D03*
X146050000Y-103187500D03*
D13*
X167640000Y-108267500D03*
X157480000Y-108267500D03*
D12*
X162560000Y-108267500D03*
D11*
X158750000Y-105727500D03*
X165100000Y-103187500D03*
X184150000Y-103187500D03*
X177800000Y-105727500D03*
D12*
X181610000Y-108267500D03*
D13*
X176530000Y-108267500D03*
X186690000Y-108267500D03*
D11*
X203200000Y-103187500D03*
X196850000Y-105727500D03*
D12*
X200660000Y-108267500D03*
D13*
X195580000Y-108267500D03*
X205740000Y-108267500D03*
D11*
X222250000Y-103187500D03*
X215900000Y-105727500D03*
D12*
X219710000Y-108267500D03*
D13*
X214630000Y-108267500D03*
X224790000Y-108267500D03*
D11*
X241300000Y-103187500D03*
X234950000Y-105727500D03*
D12*
X238760000Y-108267500D03*
D13*
X233680000Y-108267500D03*
X243840000Y-108267500D03*
X262890000Y-108267500D03*
X252730000Y-108267500D03*
D12*
X257810000Y-108267500D03*
D11*
X254000000Y-105727500D03*
X260350000Y-103187500D03*
D13*
X281940000Y-108267500D03*
X271780000Y-108267500D03*
D12*
X276860000Y-108267500D03*
D11*
X273050000Y-105727500D03*
X279400000Y-103187500D03*
D13*
X300990000Y-108267500D03*
X290830000Y-108267500D03*
D12*
X295910000Y-108267500D03*
D11*
X292100000Y-105727500D03*
X298450000Y-103187500D03*
D16*
X338766250Y-101267500D03*
X314966250Y-101267500D03*
D12*
X314966250Y-116507500D03*
X338766250Y-116507500D03*
D13*
X331946250Y-108267500D03*
X321786250Y-108267500D03*
D12*
X326866250Y-108267500D03*
D11*
X323056250Y-105727500D03*
X329406250Y-103187500D03*
X360362500Y-103187500D03*
X354012500Y-105727500D03*
D12*
X357822500Y-108267500D03*
D13*
X352742500Y-108267500D03*
X362902500Y-108267500D03*
D11*
X86518750Y-122237500D03*
X80168750Y-124777500D03*
D12*
X83978750Y-127317500D03*
D13*
X78898750Y-127317500D03*
X89058750Y-127317500D03*
D12*
X95878750Y-135557500D03*
X72078750Y-135557500D03*
D16*
X72078750Y-120317500D03*
X95878750Y-120317500D03*
D13*
X120015000Y-127317500D03*
X109855000Y-127317500D03*
D12*
X114935000Y-127317500D03*
D11*
X111125000Y-124777500D03*
X117475000Y-122237500D03*
D13*
X139065000Y-127317500D03*
X128905000Y-127317500D03*
D12*
X133985000Y-127317500D03*
D11*
X130175000Y-124777500D03*
X136525000Y-122237500D03*
X155575000Y-122237500D03*
X149225000Y-124777500D03*
D12*
X153035000Y-127317500D03*
D13*
X147955000Y-127317500D03*
X158115000Y-127317500D03*
D11*
X174625000Y-122237500D03*
X168275000Y-124777500D03*
D12*
X172085000Y-127317500D03*
D13*
X167005000Y-127317500D03*
X177165000Y-127317500D03*
X196215000Y-127317500D03*
X186055000Y-127317500D03*
D12*
X191135000Y-127317500D03*
D11*
X187325000Y-124777500D03*
X193675000Y-122237500D03*
D13*
X215265000Y-127317500D03*
X205105000Y-127317500D03*
D12*
X210185000Y-127317500D03*
D11*
X206375000Y-124777500D03*
X212725000Y-122237500D03*
D13*
X234315000Y-127317500D03*
X224155000Y-127317500D03*
D12*
X229235000Y-127317500D03*
D11*
X225425000Y-124777500D03*
X231775000Y-122237500D03*
D13*
X253365000Y-127317500D03*
X243205000Y-127317500D03*
D12*
X248285000Y-127317500D03*
D11*
X244475000Y-124777500D03*
X250825000Y-122237500D03*
D13*
X272415000Y-127317500D03*
X262255000Y-127317500D03*
D12*
X267335000Y-127317500D03*
D11*
X263525000Y-124777500D03*
X269875000Y-122237500D03*
D13*
X291465000Y-127317500D03*
X281305000Y-127317500D03*
D12*
X286385000Y-127317500D03*
D11*
X282575000Y-124777500D03*
X288925000Y-122237500D03*
X315118750Y-122237500D03*
X308768750Y-124777500D03*
D12*
X312578750Y-127317500D03*
D13*
X307498750Y-127317500D03*
X317658750Y-127317500D03*
X343852500Y-127317500D03*
X333692500Y-127317500D03*
D12*
X338772500Y-127317500D03*
D11*
X334962500Y-124777500D03*
X341312500Y-122237500D03*
D13*
X362902500Y-127317500D03*
X352742500Y-127317500D03*
D12*
X357822500Y-127317500D03*
D11*
X354012500Y-124777500D03*
X360362500Y-122237500D03*
X76993750Y-141287500D03*
X70643750Y-143827500D03*
D12*
X74453750Y-146367500D03*
D13*
X69373750Y-146367500D03*
X79533750Y-146367500D03*
X103346250Y-146367500D03*
X93186250Y-146367500D03*
D12*
X98266250Y-146367500D03*
D11*
X94456250Y-143827500D03*
X100806250Y-141287500D03*
D13*
X127158750Y-146367500D03*
X116998750Y-146367500D03*
D12*
X122078750Y-146367500D03*
D11*
X118268750Y-143827500D03*
X124618750Y-141287500D03*
X188912500Y-141287500D03*
X182562500Y-143827500D03*
D12*
X186372500Y-146367500D03*
D13*
X181292500Y-146367500D03*
X191452500Y-146367500D03*
D11*
X322262500Y-141287500D03*
X315912500Y-143827500D03*
D12*
X319722500Y-146367500D03*
D13*
X314642500Y-146367500D03*
X324802500Y-146367500D03*
D11*
X341312500Y-141287500D03*
X334962500Y-143827500D03*
D12*
X338772500Y-146367500D03*
D13*
X333692500Y-146367500D03*
X343852500Y-146367500D03*
D11*
X360362500Y-141287500D03*
X354012500Y-143827500D03*
D12*
X357822500Y-146367500D03*
D13*
X352742500Y-146367500D03*
X362902500Y-146367500D03*
X305752500Y-146367500D03*
X295592500Y-146367500D03*
D12*
X300672500Y-146367500D03*
D11*
X296862500Y-143827500D03*
X303212500Y-141287500D03*
X76993750Y-103187500D03*
X70643750Y-105727500D03*
D12*
X74453750Y-108267500D03*
D13*
X69373750Y-108267500D03*
X79533750Y-108267500D03*
D11*
X79375000Y-141287500D03*
X73025000Y-143827500D03*
D12*
X76835000Y-146367500D03*
D13*
X71755000Y-146367500D03*
X81915000Y-146367500D03*
X110490000Y-146367500D03*
X100330000Y-146367500D03*
D12*
X105410000Y-146367500D03*
D11*
X101600000Y-143827500D03*
X107950000Y-141287500D03*
X196056250Y-141287500D03*
X189706250Y-143827500D03*
D12*
X193516250Y-146367500D03*
D13*
X188436250Y-146367500D03*
X198596250Y-146367500D03*
D11*
X269875000Y-141287500D03*
X263525000Y-143827500D03*
D12*
X267335000Y-146367500D03*
D13*
X262255000Y-146367500D03*
X272415000Y-146367500D03*
X300990000Y-146367500D03*
X290830000Y-146367500D03*
D12*
X295910000Y-146367500D03*
D11*
X292100000Y-143827500D03*
X298450000Y-141287500D03*
D17*
X361250000Y-48243750D03*
X361250000Y-43243750D03*
D18*
X354250000Y-51343750D03*
X354250000Y-40143750D03*
D17*
X346750000Y-48243750D03*
X346750000Y-45743750D03*
D19*
X346750000Y-43243750D03*
D20*
X212762500Y-40873750D03*
X213162500Y-40173750D03*
X213562500Y-40873750D03*
X213962500Y-40173750D03*
X214362500Y-40873750D03*
X214762500Y-40173750D03*
X215162500Y-40873750D03*
X215962500Y-40873750D03*
X216362500Y-40163750D03*
X216762500Y-40873750D03*
X217162500Y-40173750D03*
X217962500Y-40173750D03*
X218362500Y-40873750D03*
X217562500Y-40873750D03*
D21*
X211292500Y-39723750D03*
X211292500Y-34993750D03*
X219832500Y-39723750D03*
X219832500Y-34993750D03*
M02*
