G04 #@! TF.GenerationSoftware,KiCad,Pcbnew,(5.1.5)-3*
G04 #@! TF.CreationDate,2020-07-10T10:23:00+02:00*
G04 #@! TF.ProjectId,65_keyboard_pcb,36355f6b-6579-4626-9f61-72645f706362,rev?*
G04 #@! TF.SameCoordinates,Original*
G04 #@! TF.FileFunction,Paste,Top*
G04 #@! TF.FilePolarity,Positive*
%FSLAX46Y46*%
G04 Gerber Fmt 4.6, Leading zero omitted, Abs format (unit mm)*
G04 Created by KiCad (PCBNEW (5.1.5)-3) date 2020-07-10 10:23:00*
%MOMM*%
%LPD*%
G04 APERTURE LIST*
%ADD10R,1.800000X1.100000*%
%ADD11R,1.300000X1.700000*%
%ADD12C,0.100000*%
%ADD13R,1.500000X0.550000*%
%ADD14R,0.550000X1.500000*%
%ADD15R,0.300000X2.700000*%
%ADD16R,1.600000X1.300000*%
G04 APERTURE END LIST*
D10*
X145347500Y-39022500D03*
X139147500Y-39022500D03*
X145347500Y-35322500D03*
X139147500Y-35322500D03*
D11*
X83200000Y-46150000D03*
X79700000Y-46150000D03*
X86600000Y-46150000D03*
X90100000Y-46150000D03*
X87800000Y-50000000D03*
X91300000Y-50000000D03*
X74197500Y-49992500D03*
X70697500Y-49992500D03*
X89800000Y-53750000D03*
X93300000Y-53750000D03*
X72197500Y-53742500D03*
X68697500Y-53742500D03*
X91800000Y-57500000D03*
X95300000Y-57500000D03*
X70200000Y-57512500D03*
X66700000Y-57512500D03*
X76200000Y-46150000D03*
X72700000Y-46150000D03*
D12*
G36*
X198483279Y-40468644D02*
G01*
X198506334Y-40472063D01*
X198528943Y-40477727D01*
X198550887Y-40485579D01*
X198571957Y-40495544D01*
X198591948Y-40507526D01*
X198610668Y-40521410D01*
X198627938Y-40537062D01*
X198643590Y-40554332D01*
X198657474Y-40573052D01*
X198669456Y-40593043D01*
X198679421Y-40614113D01*
X198687273Y-40636057D01*
X198692937Y-40658666D01*
X198696356Y-40681721D01*
X198697500Y-40705000D01*
X198697500Y-41180000D01*
X198696356Y-41203279D01*
X198692937Y-41226334D01*
X198687273Y-41248943D01*
X198679421Y-41270887D01*
X198669456Y-41291957D01*
X198657474Y-41311948D01*
X198643590Y-41330668D01*
X198627938Y-41347938D01*
X198610668Y-41363590D01*
X198591948Y-41377474D01*
X198571957Y-41389456D01*
X198550887Y-41399421D01*
X198528943Y-41407273D01*
X198506334Y-41412937D01*
X198483279Y-41416356D01*
X198460000Y-41417500D01*
X197885000Y-41417500D01*
X197861721Y-41416356D01*
X197838666Y-41412937D01*
X197816057Y-41407273D01*
X197794113Y-41399421D01*
X197773043Y-41389456D01*
X197753052Y-41377474D01*
X197734332Y-41363590D01*
X197717062Y-41347938D01*
X197701410Y-41330668D01*
X197687526Y-41311948D01*
X197675544Y-41291957D01*
X197665579Y-41270887D01*
X197657727Y-41248943D01*
X197652063Y-41226334D01*
X197648644Y-41203279D01*
X197647500Y-41180000D01*
X197647500Y-40705000D01*
X197648644Y-40681721D01*
X197652063Y-40658666D01*
X197657727Y-40636057D01*
X197665579Y-40614113D01*
X197675544Y-40593043D01*
X197687526Y-40573052D01*
X197701410Y-40554332D01*
X197717062Y-40537062D01*
X197734332Y-40521410D01*
X197753052Y-40507526D01*
X197773043Y-40495544D01*
X197794113Y-40485579D01*
X197816057Y-40477727D01*
X197838666Y-40472063D01*
X197861721Y-40468644D01*
X197885000Y-40467500D01*
X198460000Y-40467500D01*
X198483279Y-40468644D01*
G37*
G36*
X200233279Y-40468644D02*
G01*
X200256334Y-40472063D01*
X200278943Y-40477727D01*
X200300887Y-40485579D01*
X200321957Y-40495544D01*
X200341948Y-40507526D01*
X200360668Y-40521410D01*
X200377938Y-40537062D01*
X200393590Y-40554332D01*
X200407474Y-40573052D01*
X200419456Y-40593043D01*
X200429421Y-40614113D01*
X200437273Y-40636057D01*
X200442937Y-40658666D01*
X200446356Y-40681721D01*
X200447500Y-40705000D01*
X200447500Y-41180000D01*
X200446356Y-41203279D01*
X200442937Y-41226334D01*
X200437273Y-41248943D01*
X200429421Y-41270887D01*
X200419456Y-41291957D01*
X200407474Y-41311948D01*
X200393590Y-41330668D01*
X200377938Y-41347938D01*
X200360668Y-41363590D01*
X200341948Y-41377474D01*
X200321957Y-41389456D01*
X200300887Y-41399421D01*
X200278943Y-41407273D01*
X200256334Y-41412937D01*
X200233279Y-41416356D01*
X200210000Y-41417500D01*
X199635000Y-41417500D01*
X199611721Y-41416356D01*
X199588666Y-41412937D01*
X199566057Y-41407273D01*
X199544113Y-41399421D01*
X199523043Y-41389456D01*
X199503052Y-41377474D01*
X199484332Y-41363590D01*
X199467062Y-41347938D01*
X199451410Y-41330668D01*
X199437526Y-41311948D01*
X199425544Y-41291957D01*
X199415579Y-41270887D01*
X199407727Y-41248943D01*
X199402063Y-41226334D01*
X199398644Y-41203279D01*
X199397500Y-41180000D01*
X199397500Y-40705000D01*
X199398644Y-40681721D01*
X199402063Y-40658666D01*
X199407727Y-40636057D01*
X199415579Y-40614113D01*
X199425544Y-40593043D01*
X199437526Y-40573052D01*
X199451410Y-40554332D01*
X199467062Y-40537062D01*
X199484332Y-40521410D01*
X199503052Y-40507526D01*
X199523043Y-40495544D01*
X199544113Y-40485579D01*
X199566057Y-40477727D01*
X199588666Y-40472063D01*
X199611721Y-40468644D01*
X199635000Y-40467500D01*
X200210000Y-40467500D01*
X200233279Y-40468644D01*
G37*
D11*
X315350000Y-53600000D03*
X318850000Y-53600000D03*
X355750000Y-56000000D03*
X352250000Y-56000000D03*
X274750000Y-46050000D03*
X271250000Y-46050000D03*
X328247500Y-57352500D03*
X324747500Y-57352500D03*
X307950000Y-46050000D03*
X304450000Y-46050000D03*
X301050000Y-46050000D03*
X297550000Y-46050000D03*
X267850000Y-46050000D03*
X264350000Y-46050000D03*
X234650000Y-46050000D03*
X231150000Y-46050000D03*
X200800000Y-46050000D03*
X197300000Y-46050000D03*
X115600000Y-46150000D03*
X112100000Y-46150000D03*
X330297500Y-53592500D03*
X326797500Y-53592500D03*
X311350000Y-46050000D03*
X314850000Y-46050000D03*
X299050000Y-49850000D03*
X295550000Y-49850000D03*
X278150000Y-46050000D03*
X281650000Y-46050000D03*
X260950000Y-46050000D03*
X257450000Y-46050000D03*
X238050000Y-46050000D03*
X241550000Y-46050000D03*
X227750000Y-46050000D03*
X224250000Y-46050000D03*
X204200000Y-46050000D03*
X207700000Y-46050000D03*
X193900000Y-46050000D03*
X190400000Y-46050000D03*
X145300000Y-46150000D03*
X148800000Y-46150000D03*
X141900000Y-46150000D03*
X138400000Y-46150000D03*
X119000000Y-46150000D03*
X122500000Y-46150000D03*
X108700000Y-46150000D03*
X105200000Y-46150000D03*
X332297500Y-49852500D03*
X328797500Y-49852500D03*
X313350000Y-49850000D03*
X316850000Y-49850000D03*
X280150000Y-49850000D03*
X283650000Y-49850000D03*
X258950000Y-49850000D03*
X255450000Y-49850000D03*
X240050000Y-49850000D03*
X243550000Y-49850000D03*
X225650000Y-49800000D03*
X222150000Y-49800000D03*
X206200000Y-49800000D03*
X209700000Y-49800000D03*
X191900000Y-49800000D03*
X188400000Y-49800000D03*
X147350000Y-49900000D03*
X150850000Y-49900000D03*
X139900000Y-49900000D03*
X136400000Y-49900000D03*
X121000000Y-49900000D03*
X124500000Y-49900000D03*
X106700000Y-50000000D03*
X103200000Y-50000000D03*
X334297500Y-46042500D03*
X330797500Y-46042500D03*
X297050000Y-53600000D03*
X293550000Y-53600000D03*
X282150000Y-53600000D03*
X285650000Y-53600000D03*
X256950000Y-53600000D03*
X253450000Y-53600000D03*
X242050000Y-53600000D03*
X245550000Y-53600000D03*
X223250000Y-53550000D03*
X219750000Y-53550000D03*
X208200000Y-53550000D03*
X211700000Y-53550000D03*
X189900000Y-53550000D03*
X186400000Y-53550000D03*
X149350000Y-53650000D03*
X152850000Y-53650000D03*
X137900000Y-53650000D03*
X134400000Y-53650000D03*
X123000000Y-53650000D03*
X126500000Y-53650000D03*
X104700000Y-53750000D03*
X101200000Y-53750000D03*
X341697500Y-46042500D03*
X338197500Y-46042500D03*
X317350000Y-57350000D03*
X320850000Y-57350000D03*
X295050000Y-57350000D03*
X291550000Y-57350000D03*
X284150000Y-57350000D03*
X287650000Y-57350000D03*
X254950000Y-57350000D03*
X251450000Y-57350000D03*
X244050000Y-57350000D03*
X247550000Y-57350000D03*
X221050000Y-57300000D03*
X217550000Y-57300000D03*
X210150000Y-57300000D03*
X213650000Y-57300000D03*
X187900000Y-57300000D03*
X184400000Y-57300000D03*
X151350000Y-57400000D03*
X154850000Y-57400000D03*
X135900000Y-57400000D03*
X132400000Y-57400000D03*
X125000000Y-57400000D03*
X128500000Y-57400000D03*
X102700000Y-57500000D03*
X99200000Y-57500000D03*
D12*
G36*
X164308279Y-37243644D02*
G01*
X164331334Y-37247063D01*
X164353943Y-37252727D01*
X164375887Y-37260579D01*
X164396957Y-37270544D01*
X164416948Y-37282526D01*
X164435668Y-37296410D01*
X164452938Y-37312062D01*
X164468590Y-37329332D01*
X164482474Y-37348052D01*
X164494456Y-37368043D01*
X164504421Y-37389113D01*
X164512273Y-37411057D01*
X164517937Y-37433666D01*
X164521356Y-37456721D01*
X164522500Y-37480000D01*
X164522500Y-38055000D01*
X164521356Y-38078279D01*
X164517937Y-38101334D01*
X164512273Y-38123943D01*
X164504421Y-38145887D01*
X164494456Y-38166957D01*
X164482474Y-38186948D01*
X164468590Y-38205668D01*
X164452938Y-38222938D01*
X164435668Y-38238590D01*
X164416948Y-38252474D01*
X164396957Y-38264456D01*
X164375887Y-38274421D01*
X164353943Y-38282273D01*
X164331334Y-38287937D01*
X164308279Y-38291356D01*
X164285000Y-38292500D01*
X163810000Y-38292500D01*
X163786721Y-38291356D01*
X163763666Y-38287937D01*
X163741057Y-38282273D01*
X163719113Y-38274421D01*
X163698043Y-38264456D01*
X163678052Y-38252474D01*
X163659332Y-38238590D01*
X163642062Y-38222938D01*
X163626410Y-38205668D01*
X163612526Y-38186948D01*
X163600544Y-38166957D01*
X163590579Y-38145887D01*
X163582727Y-38123943D01*
X163577063Y-38101334D01*
X163573644Y-38078279D01*
X163572500Y-38055000D01*
X163572500Y-37480000D01*
X163573644Y-37456721D01*
X163577063Y-37433666D01*
X163582727Y-37411057D01*
X163590579Y-37389113D01*
X163600544Y-37368043D01*
X163612526Y-37348052D01*
X163626410Y-37329332D01*
X163642062Y-37312062D01*
X163659332Y-37296410D01*
X163678052Y-37282526D01*
X163698043Y-37270544D01*
X163719113Y-37260579D01*
X163741057Y-37252727D01*
X163763666Y-37247063D01*
X163786721Y-37243644D01*
X163810000Y-37242500D01*
X164285000Y-37242500D01*
X164308279Y-37243644D01*
G37*
G36*
X164308279Y-35493644D02*
G01*
X164331334Y-35497063D01*
X164353943Y-35502727D01*
X164375887Y-35510579D01*
X164396957Y-35520544D01*
X164416948Y-35532526D01*
X164435668Y-35546410D01*
X164452938Y-35562062D01*
X164468590Y-35579332D01*
X164482474Y-35598052D01*
X164494456Y-35618043D01*
X164504421Y-35639113D01*
X164512273Y-35661057D01*
X164517937Y-35683666D01*
X164521356Y-35706721D01*
X164522500Y-35730000D01*
X164522500Y-36305000D01*
X164521356Y-36328279D01*
X164517937Y-36351334D01*
X164512273Y-36373943D01*
X164504421Y-36395887D01*
X164494456Y-36416957D01*
X164482474Y-36436948D01*
X164468590Y-36455668D01*
X164452938Y-36472938D01*
X164435668Y-36488590D01*
X164416948Y-36502474D01*
X164396957Y-36514456D01*
X164375887Y-36524421D01*
X164353943Y-36532273D01*
X164331334Y-36537937D01*
X164308279Y-36541356D01*
X164285000Y-36542500D01*
X163810000Y-36542500D01*
X163786721Y-36541356D01*
X163763666Y-36537937D01*
X163741057Y-36532273D01*
X163719113Y-36524421D01*
X163698043Y-36514456D01*
X163678052Y-36502474D01*
X163659332Y-36488590D01*
X163642062Y-36472938D01*
X163626410Y-36455668D01*
X163612526Y-36436948D01*
X163600544Y-36416957D01*
X163590579Y-36395887D01*
X163582727Y-36373943D01*
X163577063Y-36351334D01*
X163573644Y-36328279D01*
X163572500Y-36305000D01*
X163572500Y-35730000D01*
X163573644Y-35706721D01*
X163577063Y-35683666D01*
X163582727Y-35661057D01*
X163590579Y-35639113D01*
X163600544Y-35618043D01*
X163612526Y-35598052D01*
X163626410Y-35579332D01*
X163642062Y-35562062D01*
X163659332Y-35546410D01*
X163678052Y-35532526D01*
X163698043Y-35520544D01*
X163719113Y-35510579D01*
X163741057Y-35502727D01*
X163763666Y-35497063D01*
X163786721Y-35493644D01*
X163810000Y-35492500D01*
X164285000Y-35492500D01*
X164308279Y-35493644D01*
G37*
G36*
X182058279Y-38243644D02*
G01*
X182081334Y-38247063D01*
X182103943Y-38252727D01*
X182125887Y-38260579D01*
X182146957Y-38270544D01*
X182166948Y-38282526D01*
X182185668Y-38296410D01*
X182202938Y-38312062D01*
X182218590Y-38329332D01*
X182232474Y-38348052D01*
X182244456Y-38368043D01*
X182254421Y-38389113D01*
X182262273Y-38411057D01*
X182267937Y-38433666D01*
X182271356Y-38456721D01*
X182272500Y-38480000D01*
X182272500Y-39055000D01*
X182271356Y-39078279D01*
X182267937Y-39101334D01*
X182262273Y-39123943D01*
X182254421Y-39145887D01*
X182244456Y-39166957D01*
X182232474Y-39186948D01*
X182218590Y-39205668D01*
X182202938Y-39222938D01*
X182185668Y-39238590D01*
X182166948Y-39252474D01*
X182146957Y-39264456D01*
X182125887Y-39274421D01*
X182103943Y-39282273D01*
X182081334Y-39287937D01*
X182058279Y-39291356D01*
X182035000Y-39292500D01*
X181560000Y-39292500D01*
X181536721Y-39291356D01*
X181513666Y-39287937D01*
X181491057Y-39282273D01*
X181469113Y-39274421D01*
X181448043Y-39264456D01*
X181428052Y-39252474D01*
X181409332Y-39238590D01*
X181392062Y-39222938D01*
X181376410Y-39205668D01*
X181362526Y-39186948D01*
X181350544Y-39166957D01*
X181340579Y-39145887D01*
X181332727Y-39123943D01*
X181327063Y-39101334D01*
X181323644Y-39078279D01*
X181322500Y-39055000D01*
X181322500Y-38480000D01*
X181323644Y-38456721D01*
X181327063Y-38433666D01*
X181332727Y-38411057D01*
X181340579Y-38389113D01*
X181350544Y-38368043D01*
X181362526Y-38348052D01*
X181376410Y-38329332D01*
X181392062Y-38312062D01*
X181409332Y-38296410D01*
X181428052Y-38282526D01*
X181448043Y-38270544D01*
X181469113Y-38260579D01*
X181491057Y-38252727D01*
X181513666Y-38247063D01*
X181536721Y-38243644D01*
X181560000Y-38242500D01*
X182035000Y-38242500D01*
X182058279Y-38243644D01*
G37*
G36*
X182058279Y-39993644D02*
G01*
X182081334Y-39997063D01*
X182103943Y-40002727D01*
X182125887Y-40010579D01*
X182146957Y-40020544D01*
X182166948Y-40032526D01*
X182185668Y-40046410D01*
X182202938Y-40062062D01*
X182218590Y-40079332D01*
X182232474Y-40098052D01*
X182244456Y-40118043D01*
X182254421Y-40139113D01*
X182262273Y-40161057D01*
X182267937Y-40183666D01*
X182271356Y-40206721D01*
X182272500Y-40230000D01*
X182272500Y-40805000D01*
X182271356Y-40828279D01*
X182267937Y-40851334D01*
X182262273Y-40873943D01*
X182254421Y-40895887D01*
X182244456Y-40916957D01*
X182232474Y-40936948D01*
X182218590Y-40955668D01*
X182202938Y-40972938D01*
X182185668Y-40988590D01*
X182166948Y-41002474D01*
X182146957Y-41014456D01*
X182125887Y-41024421D01*
X182103943Y-41032273D01*
X182081334Y-41037937D01*
X182058279Y-41041356D01*
X182035000Y-41042500D01*
X181560000Y-41042500D01*
X181536721Y-41041356D01*
X181513666Y-41037937D01*
X181491057Y-41032273D01*
X181469113Y-41024421D01*
X181448043Y-41014456D01*
X181428052Y-41002474D01*
X181409332Y-40988590D01*
X181392062Y-40972938D01*
X181376410Y-40955668D01*
X181362526Y-40936948D01*
X181350544Y-40916957D01*
X181340579Y-40895887D01*
X181332727Y-40873943D01*
X181327063Y-40851334D01*
X181323644Y-40828279D01*
X181322500Y-40805000D01*
X181322500Y-40230000D01*
X181323644Y-40206721D01*
X181327063Y-40183666D01*
X181332727Y-40161057D01*
X181340579Y-40139113D01*
X181350544Y-40118043D01*
X181362526Y-40098052D01*
X181376410Y-40079332D01*
X181392062Y-40062062D01*
X181409332Y-40046410D01*
X181428052Y-40032526D01*
X181448043Y-40020544D01*
X181469113Y-40010579D01*
X181491057Y-40002727D01*
X181513666Y-39997063D01*
X181536721Y-39993644D01*
X181560000Y-39992500D01*
X182035000Y-39992500D01*
X182058279Y-39993644D01*
G37*
G36*
X165793279Y-59078644D02*
G01*
X165816334Y-59082063D01*
X165838943Y-59087727D01*
X165860887Y-59095579D01*
X165881957Y-59105544D01*
X165901948Y-59117526D01*
X165920668Y-59131410D01*
X165937938Y-59147062D01*
X165953590Y-59164332D01*
X165967474Y-59183052D01*
X165979456Y-59203043D01*
X165989421Y-59224113D01*
X165997273Y-59246057D01*
X166002937Y-59268666D01*
X166006356Y-59291721D01*
X166007500Y-59315000D01*
X166007500Y-59790000D01*
X166006356Y-59813279D01*
X166002937Y-59836334D01*
X165997273Y-59858943D01*
X165989421Y-59880887D01*
X165979456Y-59901957D01*
X165967474Y-59921948D01*
X165953590Y-59940668D01*
X165937938Y-59957938D01*
X165920668Y-59973590D01*
X165901948Y-59987474D01*
X165881957Y-59999456D01*
X165860887Y-60009421D01*
X165838943Y-60017273D01*
X165816334Y-60022937D01*
X165793279Y-60026356D01*
X165770000Y-60027500D01*
X165195000Y-60027500D01*
X165171721Y-60026356D01*
X165148666Y-60022937D01*
X165126057Y-60017273D01*
X165104113Y-60009421D01*
X165083043Y-59999456D01*
X165063052Y-59987474D01*
X165044332Y-59973590D01*
X165027062Y-59957938D01*
X165011410Y-59940668D01*
X164997526Y-59921948D01*
X164985544Y-59901957D01*
X164975579Y-59880887D01*
X164967727Y-59858943D01*
X164962063Y-59836334D01*
X164958644Y-59813279D01*
X164957500Y-59790000D01*
X164957500Y-59315000D01*
X164958644Y-59291721D01*
X164962063Y-59268666D01*
X164967727Y-59246057D01*
X164975579Y-59224113D01*
X164985544Y-59203043D01*
X164997526Y-59183052D01*
X165011410Y-59164332D01*
X165027062Y-59147062D01*
X165044332Y-59131410D01*
X165063052Y-59117526D01*
X165083043Y-59105544D01*
X165104113Y-59095579D01*
X165126057Y-59087727D01*
X165148666Y-59082063D01*
X165171721Y-59078644D01*
X165195000Y-59077500D01*
X165770000Y-59077500D01*
X165793279Y-59078644D01*
G37*
G36*
X164043279Y-59078644D02*
G01*
X164066334Y-59082063D01*
X164088943Y-59087727D01*
X164110887Y-59095579D01*
X164131957Y-59105544D01*
X164151948Y-59117526D01*
X164170668Y-59131410D01*
X164187938Y-59147062D01*
X164203590Y-59164332D01*
X164217474Y-59183052D01*
X164229456Y-59203043D01*
X164239421Y-59224113D01*
X164247273Y-59246057D01*
X164252937Y-59268666D01*
X164256356Y-59291721D01*
X164257500Y-59315000D01*
X164257500Y-59790000D01*
X164256356Y-59813279D01*
X164252937Y-59836334D01*
X164247273Y-59858943D01*
X164239421Y-59880887D01*
X164229456Y-59901957D01*
X164217474Y-59921948D01*
X164203590Y-59940668D01*
X164187938Y-59957938D01*
X164170668Y-59973590D01*
X164151948Y-59987474D01*
X164131957Y-59999456D01*
X164110887Y-60009421D01*
X164088943Y-60017273D01*
X164066334Y-60022937D01*
X164043279Y-60026356D01*
X164020000Y-60027500D01*
X163445000Y-60027500D01*
X163421721Y-60026356D01*
X163398666Y-60022937D01*
X163376057Y-60017273D01*
X163354113Y-60009421D01*
X163333043Y-59999456D01*
X163313052Y-59987474D01*
X163294332Y-59973590D01*
X163277062Y-59957938D01*
X163261410Y-59940668D01*
X163247526Y-59921948D01*
X163235544Y-59901957D01*
X163225579Y-59880887D01*
X163217727Y-59858943D01*
X163212063Y-59836334D01*
X163208644Y-59813279D01*
X163207500Y-59790000D01*
X163207500Y-59315000D01*
X163208644Y-59291721D01*
X163212063Y-59268666D01*
X163217727Y-59246057D01*
X163225579Y-59224113D01*
X163235544Y-59203043D01*
X163247526Y-59183052D01*
X163261410Y-59164332D01*
X163277062Y-59147062D01*
X163294332Y-59131410D01*
X163313052Y-59117526D01*
X163333043Y-59105544D01*
X163354113Y-59095579D01*
X163376057Y-59087727D01*
X163398666Y-59082063D01*
X163421721Y-59078644D01*
X163445000Y-59077500D01*
X164020000Y-59077500D01*
X164043279Y-59078644D01*
G37*
G36*
X156008279Y-42243644D02*
G01*
X156031334Y-42247063D01*
X156053943Y-42252727D01*
X156075887Y-42260579D01*
X156096957Y-42270544D01*
X156116948Y-42282526D01*
X156135668Y-42296410D01*
X156152938Y-42312062D01*
X156168590Y-42329332D01*
X156182474Y-42348052D01*
X156194456Y-42368043D01*
X156204421Y-42389113D01*
X156212273Y-42411057D01*
X156217937Y-42433666D01*
X156221356Y-42456721D01*
X156222500Y-42480000D01*
X156222500Y-43055000D01*
X156221356Y-43078279D01*
X156217937Y-43101334D01*
X156212273Y-43123943D01*
X156204421Y-43145887D01*
X156194456Y-43166957D01*
X156182474Y-43186948D01*
X156168590Y-43205668D01*
X156152938Y-43222938D01*
X156135668Y-43238590D01*
X156116948Y-43252474D01*
X156096957Y-43264456D01*
X156075887Y-43274421D01*
X156053943Y-43282273D01*
X156031334Y-43287937D01*
X156008279Y-43291356D01*
X155985000Y-43292500D01*
X155510000Y-43292500D01*
X155486721Y-43291356D01*
X155463666Y-43287937D01*
X155441057Y-43282273D01*
X155419113Y-43274421D01*
X155398043Y-43264456D01*
X155378052Y-43252474D01*
X155359332Y-43238590D01*
X155342062Y-43222938D01*
X155326410Y-43205668D01*
X155312526Y-43186948D01*
X155300544Y-43166957D01*
X155290579Y-43145887D01*
X155282727Y-43123943D01*
X155277063Y-43101334D01*
X155273644Y-43078279D01*
X155272500Y-43055000D01*
X155272500Y-42480000D01*
X155273644Y-42456721D01*
X155277063Y-42433666D01*
X155282727Y-42411057D01*
X155290579Y-42389113D01*
X155300544Y-42368043D01*
X155312526Y-42348052D01*
X155326410Y-42329332D01*
X155342062Y-42312062D01*
X155359332Y-42296410D01*
X155378052Y-42282526D01*
X155398043Y-42270544D01*
X155419113Y-42260579D01*
X155441057Y-42252727D01*
X155463666Y-42247063D01*
X155486721Y-42243644D01*
X155510000Y-42242500D01*
X155985000Y-42242500D01*
X156008279Y-42243644D01*
G37*
G36*
X156008279Y-43993644D02*
G01*
X156031334Y-43997063D01*
X156053943Y-44002727D01*
X156075887Y-44010579D01*
X156096957Y-44020544D01*
X156116948Y-44032526D01*
X156135668Y-44046410D01*
X156152938Y-44062062D01*
X156168590Y-44079332D01*
X156182474Y-44098052D01*
X156194456Y-44118043D01*
X156204421Y-44139113D01*
X156212273Y-44161057D01*
X156217937Y-44183666D01*
X156221356Y-44206721D01*
X156222500Y-44230000D01*
X156222500Y-44805000D01*
X156221356Y-44828279D01*
X156217937Y-44851334D01*
X156212273Y-44873943D01*
X156204421Y-44895887D01*
X156194456Y-44916957D01*
X156182474Y-44936948D01*
X156168590Y-44955668D01*
X156152938Y-44972938D01*
X156135668Y-44988590D01*
X156116948Y-45002474D01*
X156096957Y-45014456D01*
X156075887Y-45024421D01*
X156053943Y-45032273D01*
X156031334Y-45037937D01*
X156008279Y-45041356D01*
X155985000Y-45042500D01*
X155510000Y-45042500D01*
X155486721Y-45041356D01*
X155463666Y-45037937D01*
X155441057Y-45032273D01*
X155419113Y-45024421D01*
X155398043Y-45014456D01*
X155378052Y-45002474D01*
X155359332Y-44988590D01*
X155342062Y-44972938D01*
X155326410Y-44955668D01*
X155312526Y-44936948D01*
X155300544Y-44916957D01*
X155290579Y-44895887D01*
X155282727Y-44873943D01*
X155277063Y-44851334D01*
X155273644Y-44828279D01*
X155272500Y-44805000D01*
X155272500Y-44230000D01*
X155273644Y-44206721D01*
X155277063Y-44183666D01*
X155282727Y-44161057D01*
X155290579Y-44139113D01*
X155300544Y-44118043D01*
X155312526Y-44098052D01*
X155326410Y-44079332D01*
X155342062Y-44062062D01*
X155359332Y-44046410D01*
X155378052Y-44032526D01*
X155398043Y-44020544D01*
X155419113Y-44010579D01*
X155441057Y-44002727D01*
X155463666Y-43997063D01*
X155486721Y-43993644D01*
X155510000Y-43992500D01*
X155985000Y-43992500D01*
X156008279Y-43993644D01*
G37*
G36*
X175308279Y-37243644D02*
G01*
X175331334Y-37247063D01*
X175353943Y-37252727D01*
X175375887Y-37260579D01*
X175396957Y-37270544D01*
X175416948Y-37282526D01*
X175435668Y-37296410D01*
X175452938Y-37312062D01*
X175468590Y-37329332D01*
X175482474Y-37348052D01*
X175494456Y-37368043D01*
X175504421Y-37389113D01*
X175512273Y-37411057D01*
X175517937Y-37433666D01*
X175521356Y-37456721D01*
X175522500Y-37480000D01*
X175522500Y-38055000D01*
X175521356Y-38078279D01*
X175517937Y-38101334D01*
X175512273Y-38123943D01*
X175504421Y-38145887D01*
X175494456Y-38166957D01*
X175482474Y-38186948D01*
X175468590Y-38205668D01*
X175452938Y-38222938D01*
X175435668Y-38238590D01*
X175416948Y-38252474D01*
X175396957Y-38264456D01*
X175375887Y-38274421D01*
X175353943Y-38282273D01*
X175331334Y-38287937D01*
X175308279Y-38291356D01*
X175285000Y-38292500D01*
X174810000Y-38292500D01*
X174786721Y-38291356D01*
X174763666Y-38287937D01*
X174741057Y-38282273D01*
X174719113Y-38274421D01*
X174698043Y-38264456D01*
X174678052Y-38252474D01*
X174659332Y-38238590D01*
X174642062Y-38222938D01*
X174626410Y-38205668D01*
X174612526Y-38186948D01*
X174600544Y-38166957D01*
X174590579Y-38145887D01*
X174582727Y-38123943D01*
X174577063Y-38101334D01*
X174573644Y-38078279D01*
X174572500Y-38055000D01*
X174572500Y-37480000D01*
X174573644Y-37456721D01*
X174577063Y-37433666D01*
X174582727Y-37411057D01*
X174590579Y-37389113D01*
X174600544Y-37368043D01*
X174612526Y-37348052D01*
X174626410Y-37329332D01*
X174642062Y-37312062D01*
X174659332Y-37296410D01*
X174678052Y-37282526D01*
X174698043Y-37270544D01*
X174719113Y-37260579D01*
X174741057Y-37252727D01*
X174763666Y-37247063D01*
X174786721Y-37243644D01*
X174810000Y-37242500D01*
X175285000Y-37242500D01*
X175308279Y-37243644D01*
G37*
G36*
X175308279Y-35493644D02*
G01*
X175331334Y-35497063D01*
X175353943Y-35502727D01*
X175375887Y-35510579D01*
X175396957Y-35520544D01*
X175416948Y-35532526D01*
X175435668Y-35546410D01*
X175452938Y-35562062D01*
X175468590Y-35579332D01*
X175482474Y-35598052D01*
X175494456Y-35618043D01*
X175504421Y-35639113D01*
X175512273Y-35661057D01*
X175517937Y-35683666D01*
X175521356Y-35706721D01*
X175522500Y-35730000D01*
X175522500Y-36305000D01*
X175521356Y-36328279D01*
X175517937Y-36351334D01*
X175512273Y-36373943D01*
X175504421Y-36395887D01*
X175494456Y-36416957D01*
X175482474Y-36436948D01*
X175468590Y-36455668D01*
X175452938Y-36472938D01*
X175435668Y-36488590D01*
X175416948Y-36502474D01*
X175396957Y-36514456D01*
X175375887Y-36524421D01*
X175353943Y-36532273D01*
X175331334Y-36537937D01*
X175308279Y-36541356D01*
X175285000Y-36542500D01*
X174810000Y-36542500D01*
X174786721Y-36541356D01*
X174763666Y-36537937D01*
X174741057Y-36532273D01*
X174719113Y-36524421D01*
X174698043Y-36514456D01*
X174678052Y-36502474D01*
X174659332Y-36488590D01*
X174642062Y-36472938D01*
X174626410Y-36455668D01*
X174612526Y-36436948D01*
X174600544Y-36416957D01*
X174590579Y-36395887D01*
X174582727Y-36373943D01*
X174577063Y-36351334D01*
X174573644Y-36328279D01*
X174572500Y-36305000D01*
X174572500Y-35730000D01*
X174573644Y-35706721D01*
X174577063Y-35683666D01*
X174582727Y-35661057D01*
X174590579Y-35639113D01*
X174600544Y-35618043D01*
X174612526Y-35598052D01*
X174626410Y-35579332D01*
X174642062Y-35562062D01*
X174659332Y-35546410D01*
X174678052Y-35532526D01*
X174698043Y-35520544D01*
X174719113Y-35510579D01*
X174741057Y-35502727D01*
X174763666Y-35497063D01*
X174786721Y-35493644D01*
X174810000Y-35492500D01*
X175285000Y-35492500D01*
X175308279Y-35493644D01*
G37*
G36*
X178783279Y-52418644D02*
G01*
X178806334Y-52422063D01*
X178828943Y-52427727D01*
X178850887Y-52435579D01*
X178871957Y-52445544D01*
X178891948Y-52457526D01*
X178910668Y-52471410D01*
X178927938Y-52487062D01*
X178943590Y-52504332D01*
X178957474Y-52523052D01*
X178969456Y-52543043D01*
X178979421Y-52564113D01*
X178987273Y-52586057D01*
X178992937Y-52608666D01*
X178996356Y-52631721D01*
X178997500Y-52655000D01*
X178997500Y-53130000D01*
X178996356Y-53153279D01*
X178992937Y-53176334D01*
X178987273Y-53198943D01*
X178979421Y-53220887D01*
X178969456Y-53241957D01*
X178957474Y-53261948D01*
X178943590Y-53280668D01*
X178927938Y-53297938D01*
X178910668Y-53313590D01*
X178891948Y-53327474D01*
X178871957Y-53339456D01*
X178850887Y-53349421D01*
X178828943Y-53357273D01*
X178806334Y-53362937D01*
X178783279Y-53366356D01*
X178760000Y-53367500D01*
X178185000Y-53367500D01*
X178161721Y-53366356D01*
X178138666Y-53362937D01*
X178116057Y-53357273D01*
X178094113Y-53349421D01*
X178073043Y-53339456D01*
X178053052Y-53327474D01*
X178034332Y-53313590D01*
X178017062Y-53297938D01*
X178001410Y-53280668D01*
X177987526Y-53261948D01*
X177975544Y-53241957D01*
X177965579Y-53220887D01*
X177957727Y-53198943D01*
X177952063Y-53176334D01*
X177948644Y-53153279D01*
X177947500Y-53130000D01*
X177947500Y-52655000D01*
X177948644Y-52631721D01*
X177952063Y-52608666D01*
X177957727Y-52586057D01*
X177965579Y-52564113D01*
X177975544Y-52543043D01*
X177987526Y-52523052D01*
X178001410Y-52504332D01*
X178017062Y-52487062D01*
X178034332Y-52471410D01*
X178053052Y-52457526D01*
X178073043Y-52445544D01*
X178094113Y-52435579D01*
X178116057Y-52427727D01*
X178138666Y-52422063D01*
X178161721Y-52418644D01*
X178185000Y-52417500D01*
X178760000Y-52417500D01*
X178783279Y-52418644D01*
G37*
G36*
X180533279Y-52418644D02*
G01*
X180556334Y-52422063D01*
X180578943Y-52427727D01*
X180600887Y-52435579D01*
X180621957Y-52445544D01*
X180641948Y-52457526D01*
X180660668Y-52471410D01*
X180677938Y-52487062D01*
X180693590Y-52504332D01*
X180707474Y-52523052D01*
X180719456Y-52543043D01*
X180729421Y-52564113D01*
X180737273Y-52586057D01*
X180742937Y-52608666D01*
X180746356Y-52631721D01*
X180747500Y-52655000D01*
X180747500Y-53130000D01*
X180746356Y-53153279D01*
X180742937Y-53176334D01*
X180737273Y-53198943D01*
X180729421Y-53220887D01*
X180719456Y-53241957D01*
X180707474Y-53261948D01*
X180693590Y-53280668D01*
X180677938Y-53297938D01*
X180660668Y-53313590D01*
X180641948Y-53327474D01*
X180621957Y-53339456D01*
X180600887Y-53349421D01*
X180578943Y-53357273D01*
X180556334Y-53362937D01*
X180533279Y-53366356D01*
X180510000Y-53367500D01*
X179935000Y-53367500D01*
X179911721Y-53366356D01*
X179888666Y-53362937D01*
X179866057Y-53357273D01*
X179844113Y-53349421D01*
X179823043Y-53339456D01*
X179803052Y-53327474D01*
X179784332Y-53313590D01*
X179767062Y-53297938D01*
X179751410Y-53280668D01*
X179737526Y-53261948D01*
X179725544Y-53241957D01*
X179715579Y-53220887D01*
X179707727Y-53198943D01*
X179702063Y-53176334D01*
X179698644Y-53153279D01*
X179697500Y-53130000D01*
X179697500Y-52655000D01*
X179698644Y-52631721D01*
X179702063Y-52608666D01*
X179707727Y-52586057D01*
X179715579Y-52564113D01*
X179725544Y-52543043D01*
X179737526Y-52523052D01*
X179751410Y-52504332D01*
X179767062Y-52487062D01*
X179784332Y-52471410D01*
X179803052Y-52457526D01*
X179823043Y-52445544D01*
X179844113Y-52435579D01*
X179866057Y-52427727D01*
X179888666Y-52422063D01*
X179911721Y-52418644D01*
X179935000Y-52417500D01*
X180510000Y-52417500D01*
X180533279Y-52418644D01*
G37*
G36*
X182058279Y-44493644D02*
G01*
X182081334Y-44497063D01*
X182103943Y-44502727D01*
X182125887Y-44510579D01*
X182146957Y-44520544D01*
X182166948Y-44532526D01*
X182185668Y-44546410D01*
X182202938Y-44562062D01*
X182218590Y-44579332D01*
X182232474Y-44598052D01*
X182244456Y-44618043D01*
X182254421Y-44639113D01*
X182262273Y-44661057D01*
X182267937Y-44683666D01*
X182271356Y-44706721D01*
X182272500Y-44730000D01*
X182272500Y-45305000D01*
X182271356Y-45328279D01*
X182267937Y-45351334D01*
X182262273Y-45373943D01*
X182254421Y-45395887D01*
X182244456Y-45416957D01*
X182232474Y-45436948D01*
X182218590Y-45455668D01*
X182202938Y-45472938D01*
X182185668Y-45488590D01*
X182166948Y-45502474D01*
X182146957Y-45514456D01*
X182125887Y-45524421D01*
X182103943Y-45532273D01*
X182081334Y-45537937D01*
X182058279Y-45541356D01*
X182035000Y-45542500D01*
X181560000Y-45542500D01*
X181536721Y-45541356D01*
X181513666Y-45537937D01*
X181491057Y-45532273D01*
X181469113Y-45524421D01*
X181448043Y-45514456D01*
X181428052Y-45502474D01*
X181409332Y-45488590D01*
X181392062Y-45472938D01*
X181376410Y-45455668D01*
X181362526Y-45436948D01*
X181350544Y-45416957D01*
X181340579Y-45395887D01*
X181332727Y-45373943D01*
X181327063Y-45351334D01*
X181323644Y-45328279D01*
X181322500Y-45305000D01*
X181322500Y-44730000D01*
X181323644Y-44706721D01*
X181327063Y-44683666D01*
X181332727Y-44661057D01*
X181340579Y-44639113D01*
X181350544Y-44618043D01*
X181362526Y-44598052D01*
X181376410Y-44579332D01*
X181392062Y-44562062D01*
X181409332Y-44546410D01*
X181428052Y-44532526D01*
X181448043Y-44520544D01*
X181469113Y-44510579D01*
X181491057Y-44502727D01*
X181513666Y-44497063D01*
X181536721Y-44493644D01*
X181560000Y-44492500D01*
X182035000Y-44492500D01*
X182058279Y-44493644D01*
G37*
G36*
X182058279Y-42743644D02*
G01*
X182081334Y-42747063D01*
X182103943Y-42752727D01*
X182125887Y-42760579D01*
X182146957Y-42770544D01*
X182166948Y-42782526D01*
X182185668Y-42796410D01*
X182202938Y-42812062D01*
X182218590Y-42829332D01*
X182232474Y-42848052D01*
X182244456Y-42868043D01*
X182254421Y-42889113D01*
X182262273Y-42911057D01*
X182267937Y-42933666D01*
X182271356Y-42956721D01*
X182272500Y-42980000D01*
X182272500Y-43555000D01*
X182271356Y-43578279D01*
X182267937Y-43601334D01*
X182262273Y-43623943D01*
X182254421Y-43645887D01*
X182244456Y-43666957D01*
X182232474Y-43686948D01*
X182218590Y-43705668D01*
X182202938Y-43722938D01*
X182185668Y-43738590D01*
X182166948Y-43752474D01*
X182146957Y-43764456D01*
X182125887Y-43774421D01*
X182103943Y-43782273D01*
X182081334Y-43787937D01*
X182058279Y-43791356D01*
X182035000Y-43792500D01*
X181560000Y-43792500D01*
X181536721Y-43791356D01*
X181513666Y-43787937D01*
X181491057Y-43782273D01*
X181469113Y-43774421D01*
X181448043Y-43764456D01*
X181428052Y-43752474D01*
X181409332Y-43738590D01*
X181392062Y-43722938D01*
X181376410Y-43705668D01*
X181362526Y-43686948D01*
X181350544Y-43666957D01*
X181340579Y-43645887D01*
X181332727Y-43623943D01*
X181327063Y-43601334D01*
X181323644Y-43578279D01*
X181322500Y-43555000D01*
X181322500Y-42980000D01*
X181323644Y-42956721D01*
X181327063Y-42933666D01*
X181332727Y-42911057D01*
X181340579Y-42889113D01*
X181350544Y-42868043D01*
X181362526Y-42848052D01*
X181376410Y-42829332D01*
X181392062Y-42812062D01*
X181409332Y-42796410D01*
X181428052Y-42782526D01*
X181448043Y-42770544D01*
X181469113Y-42760579D01*
X181491057Y-42752727D01*
X181513666Y-42747063D01*
X181536721Y-42743644D01*
X181560000Y-42742500D01*
X182035000Y-42742500D01*
X182058279Y-42743644D01*
G37*
G36*
X189359504Y-36268704D02*
G01*
X189383773Y-36272304D01*
X189407571Y-36278265D01*
X189430671Y-36286530D01*
X189452849Y-36297020D01*
X189473893Y-36309633D01*
X189493598Y-36324247D01*
X189511777Y-36340723D01*
X189528253Y-36358902D01*
X189542867Y-36378607D01*
X189555480Y-36399651D01*
X189565970Y-36421829D01*
X189574235Y-36444929D01*
X189580196Y-36468727D01*
X189583796Y-36492996D01*
X189585000Y-36517500D01*
X189585000Y-37767500D01*
X189583796Y-37792004D01*
X189580196Y-37816273D01*
X189574235Y-37840071D01*
X189565970Y-37863171D01*
X189555480Y-37885349D01*
X189542867Y-37906393D01*
X189528253Y-37926098D01*
X189511777Y-37944277D01*
X189493598Y-37960753D01*
X189473893Y-37975367D01*
X189452849Y-37987980D01*
X189430671Y-37998470D01*
X189407571Y-38006735D01*
X189383773Y-38012696D01*
X189359504Y-38016296D01*
X189335000Y-38017500D01*
X188410000Y-38017500D01*
X188385496Y-38016296D01*
X188361227Y-38012696D01*
X188337429Y-38006735D01*
X188314329Y-37998470D01*
X188292151Y-37987980D01*
X188271107Y-37975367D01*
X188251402Y-37960753D01*
X188233223Y-37944277D01*
X188216747Y-37926098D01*
X188202133Y-37906393D01*
X188189520Y-37885349D01*
X188179030Y-37863171D01*
X188170765Y-37840071D01*
X188164804Y-37816273D01*
X188161204Y-37792004D01*
X188160000Y-37767500D01*
X188160000Y-36517500D01*
X188161204Y-36492996D01*
X188164804Y-36468727D01*
X188170765Y-36444929D01*
X188179030Y-36421829D01*
X188189520Y-36399651D01*
X188202133Y-36378607D01*
X188216747Y-36358902D01*
X188233223Y-36340723D01*
X188251402Y-36324247D01*
X188271107Y-36309633D01*
X188292151Y-36297020D01*
X188314329Y-36286530D01*
X188337429Y-36278265D01*
X188361227Y-36272304D01*
X188385496Y-36268704D01*
X188410000Y-36267500D01*
X189335000Y-36267500D01*
X189359504Y-36268704D01*
G37*
G36*
X192334504Y-36268704D02*
G01*
X192358773Y-36272304D01*
X192382571Y-36278265D01*
X192405671Y-36286530D01*
X192427849Y-36297020D01*
X192448893Y-36309633D01*
X192468598Y-36324247D01*
X192486777Y-36340723D01*
X192503253Y-36358902D01*
X192517867Y-36378607D01*
X192530480Y-36399651D01*
X192540970Y-36421829D01*
X192549235Y-36444929D01*
X192555196Y-36468727D01*
X192558796Y-36492996D01*
X192560000Y-36517500D01*
X192560000Y-37767500D01*
X192558796Y-37792004D01*
X192555196Y-37816273D01*
X192549235Y-37840071D01*
X192540970Y-37863171D01*
X192530480Y-37885349D01*
X192517867Y-37906393D01*
X192503253Y-37926098D01*
X192486777Y-37944277D01*
X192468598Y-37960753D01*
X192448893Y-37975367D01*
X192427849Y-37987980D01*
X192405671Y-37998470D01*
X192382571Y-38006735D01*
X192358773Y-38012696D01*
X192334504Y-38016296D01*
X192310000Y-38017500D01*
X191385000Y-38017500D01*
X191360496Y-38016296D01*
X191336227Y-38012696D01*
X191312429Y-38006735D01*
X191289329Y-37998470D01*
X191267151Y-37987980D01*
X191246107Y-37975367D01*
X191226402Y-37960753D01*
X191208223Y-37944277D01*
X191191747Y-37926098D01*
X191177133Y-37906393D01*
X191164520Y-37885349D01*
X191154030Y-37863171D01*
X191145765Y-37840071D01*
X191139804Y-37816273D01*
X191136204Y-37792004D01*
X191135000Y-37767500D01*
X191135000Y-36517500D01*
X191136204Y-36492996D01*
X191139804Y-36468727D01*
X191145765Y-36444929D01*
X191154030Y-36421829D01*
X191164520Y-36399651D01*
X191177133Y-36378607D01*
X191191747Y-36358902D01*
X191208223Y-36340723D01*
X191226402Y-36324247D01*
X191246107Y-36309633D01*
X191267151Y-36297020D01*
X191289329Y-36286530D01*
X191312429Y-36278265D01*
X191336227Y-36272304D01*
X191360496Y-36268704D01*
X191385000Y-36267500D01*
X192310000Y-36267500D01*
X192334504Y-36268704D01*
G37*
G36*
X202047004Y-35068704D02*
G01*
X202071273Y-35072304D01*
X202095071Y-35078265D01*
X202118171Y-35086530D01*
X202140349Y-35097020D01*
X202161393Y-35109633D01*
X202181098Y-35124247D01*
X202199277Y-35140723D01*
X202215753Y-35158902D01*
X202230367Y-35178607D01*
X202242980Y-35199651D01*
X202253470Y-35221829D01*
X202261735Y-35244929D01*
X202267696Y-35268727D01*
X202271296Y-35292996D01*
X202272500Y-35317500D01*
X202272500Y-36567500D01*
X202271296Y-36592004D01*
X202267696Y-36616273D01*
X202261735Y-36640071D01*
X202253470Y-36663171D01*
X202242980Y-36685349D01*
X202230367Y-36706393D01*
X202215753Y-36726098D01*
X202199277Y-36744277D01*
X202181098Y-36760753D01*
X202161393Y-36775367D01*
X202140349Y-36787980D01*
X202118171Y-36798470D01*
X202095071Y-36806735D01*
X202071273Y-36812696D01*
X202047004Y-36816296D01*
X202022500Y-36817500D01*
X201097500Y-36817500D01*
X201072996Y-36816296D01*
X201048727Y-36812696D01*
X201024929Y-36806735D01*
X201001829Y-36798470D01*
X200979651Y-36787980D01*
X200958607Y-36775367D01*
X200938902Y-36760753D01*
X200920723Y-36744277D01*
X200904247Y-36726098D01*
X200889633Y-36706393D01*
X200877020Y-36685349D01*
X200866530Y-36663171D01*
X200858265Y-36640071D01*
X200852304Y-36616273D01*
X200848704Y-36592004D01*
X200847500Y-36567500D01*
X200847500Y-35317500D01*
X200848704Y-35292996D01*
X200852304Y-35268727D01*
X200858265Y-35244929D01*
X200866530Y-35221829D01*
X200877020Y-35199651D01*
X200889633Y-35178607D01*
X200904247Y-35158902D01*
X200920723Y-35140723D01*
X200938902Y-35124247D01*
X200958607Y-35109633D01*
X200979651Y-35097020D01*
X201001829Y-35086530D01*
X201024929Y-35078265D01*
X201048727Y-35072304D01*
X201072996Y-35068704D01*
X201097500Y-35067500D01*
X202022500Y-35067500D01*
X202047004Y-35068704D01*
G37*
G36*
X205022004Y-35068704D02*
G01*
X205046273Y-35072304D01*
X205070071Y-35078265D01*
X205093171Y-35086530D01*
X205115349Y-35097020D01*
X205136393Y-35109633D01*
X205156098Y-35124247D01*
X205174277Y-35140723D01*
X205190753Y-35158902D01*
X205205367Y-35178607D01*
X205217980Y-35199651D01*
X205228470Y-35221829D01*
X205236735Y-35244929D01*
X205242696Y-35268727D01*
X205246296Y-35292996D01*
X205247500Y-35317500D01*
X205247500Y-36567500D01*
X205246296Y-36592004D01*
X205242696Y-36616273D01*
X205236735Y-36640071D01*
X205228470Y-36663171D01*
X205217980Y-36685349D01*
X205205367Y-36706393D01*
X205190753Y-36726098D01*
X205174277Y-36744277D01*
X205156098Y-36760753D01*
X205136393Y-36775367D01*
X205115349Y-36787980D01*
X205093171Y-36798470D01*
X205070071Y-36806735D01*
X205046273Y-36812696D01*
X205022004Y-36816296D01*
X204997500Y-36817500D01*
X204072500Y-36817500D01*
X204047996Y-36816296D01*
X204023727Y-36812696D01*
X203999929Y-36806735D01*
X203976829Y-36798470D01*
X203954651Y-36787980D01*
X203933607Y-36775367D01*
X203913902Y-36760753D01*
X203895723Y-36744277D01*
X203879247Y-36726098D01*
X203864633Y-36706393D01*
X203852020Y-36685349D01*
X203841530Y-36663171D01*
X203833265Y-36640071D01*
X203827304Y-36616273D01*
X203823704Y-36592004D01*
X203822500Y-36567500D01*
X203822500Y-35317500D01*
X203823704Y-35292996D01*
X203827304Y-35268727D01*
X203833265Y-35244929D01*
X203841530Y-35221829D01*
X203852020Y-35199651D01*
X203864633Y-35178607D01*
X203879247Y-35158902D01*
X203895723Y-35140723D01*
X203913902Y-35124247D01*
X203933607Y-35109633D01*
X203954651Y-35097020D01*
X203976829Y-35086530D01*
X203999929Y-35078265D01*
X204023727Y-35072304D01*
X204047996Y-35068704D01*
X204072500Y-35067500D01*
X204997500Y-35067500D01*
X205022004Y-35068704D01*
G37*
G36*
X223558279Y-35993644D02*
G01*
X223581334Y-35997063D01*
X223603943Y-36002727D01*
X223625887Y-36010579D01*
X223646957Y-36020544D01*
X223666948Y-36032526D01*
X223685668Y-36046410D01*
X223702938Y-36062062D01*
X223718590Y-36079332D01*
X223732474Y-36098052D01*
X223744456Y-36118043D01*
X223754421Y-36139113D01*
X223762273Y-36161057D01*
X223767937Y-36183666D01*
X223771356Y-36206721D01*
X223772500Y-36230000D01*
X223772500Y-36805000D01*
X223771356Y-36828279D01*
X223767937Y-36851334D01*
X223762273Y-36873943D01*
X223754421Y-36895887D01*
X223744456Y-36916957D01*
X223732474Y-36936948D01*
X223718590Y-36955668D01*
X223702938Y-36972938D01*
X223685668Y-36988590D01*
X223666948Y-37002474D01*
X223646957Y-37014456D01*
X223625887Y-37024421D01*
X223603943Y-37032273D01*
X223581334Y-37037937D01*
X223558279Y-37041356D01*
X223535000Y-37042500D01*
X223060000Y-37042500D01*
X223036721Y-37041356D01*
X223013666Y-37037937D01*
X222991057Y-37032273D01*
X222969113Y-37024421D01*
X222948043Y-37014456D01*
X222928052Y-37002474D01*
X222909332Y-36988590D01*
X222892062Y-36972938D01*
X222876410Y-36955668D01*
X222862526Y-36936948D01*
X222850544Y-36916957D01*
X222840579Y-36895887D01*
X222832727Y-36873943D01*
X222827063Y-36851334D01*
X222823644Y-36828279D01*
X222822500Y-36805000D01*
X222822500Y-36230000D01*
X222823644Y-36206721D01*
X222827063Y-36183666D01*
X222832727Y-36161057D01*
X222840579Y-36139113D01*
X222850544Y-36118043D01*
X222862526Y-36098052D01*
X222876410Y-36079332D01*
X222892062Y-36062062D01*
X222909332Y-36046410D01*
X222928052Y-36032526D01*
X222948043Y-36020544D01*
X222969113Y-36010579D01*
X222991057Y-36002727D01*
X223013666Y-35997063D01*
X223036721Y-35993644D01*
X223060000Y-35992500D01*
X223535000Y-35992500D01*
X223558279Y-35993644D01*
G37*
G36*
X223558279Y-37743644D02*
G01*
X223581334Y-37747063D01*
X223603943Y-37752727D01*
X223625887Y-37760579D01*
X223646957Y-37770544D01*
X223666948Y-37782526D01*
X223685668Y-37796410D01*
X223702938Y-37812062D01*
X223718590Y-37829332D01*
X223732474Y-37848052D01*
X223744456Y-37868043D01*
X223754421Y-37889113D01*
X223762273Y-37911057D01*
X223767937Y-37933666D01*
X223771356Y-37956721D01*
X223772500Y-37980000D01*
X223772500Y-38555000D01*
X223771356Y-38578279D01*
X223767937Y-38601334D01*
X223762273Y-38623943D01*
X223754421Y-38645887D01*
X223744456Y-38666957D01*
X223732474Y-38686948D01*
X223718590Y-38705668D01*
X223702938Y-38722938D01*
X223685668Y-38738590D01*
X223666948Y-38752474D01*
X223646957Y-38764456D01*
X223625887Y-38774421D01*
X223603943Y-38782273D01*
X223581334Y-38787937D01*
X223558279Y-38791356D01*
X223535000Y-38792500D01*
X223060000Y-38792500D01*
X223036721Y-38791356D01*
X223013666Y-38787937D01*
X222991057Y-38782273D01*
X222969113Y-38774421D01*
X222948043Y-38764456D01*
X222928052Y-38752474D01*
X222909332Y-38738590D01*
X222892062Y-38722938D01*
X222876410Y-38705668D01*
X222862526Y-38686948D01*
X222850544Y-38666957D01*
X222840579Y-38645887D01*
X222832727Y-38623943D01*
X222827063Y-38601334D01*
X222823644Y-38578279D01*
X222822500Y-38555000D01*
X222822500Y-37980000D01*
X222823644Y-37956721D01*
X222827063Y-37933666D01*
X222832727Y-37911057D01*
X222840579Y-37889113D01*
X222850544Y-37868043D01*
X222862526Y-37848052D01*
X222876410Y-37829332D01*
X222892062Y-37812062D01*
X222909332Y-37796410D01*
X222928052Y-37782526D01*
X222948043Y-37770544D01*
X222969113Y-37760579D01*
X222991057Y-37752727D01*
X223013666Y-37747063D01*
X223036721Y-37743644D01*
X223060000Y-37742500D01*
X223535000Y-37742500D01*
X223558279Y-37743644D01*
G37*
G36*
X208308279Y-35993644D02*
G01*
X208331334Y-35997063D01*
X208353943Y-36002727D01*
X208375887Y-36010579D01*
X208396957Y-36020544D01*
X208416948Y-36032526D01*
X208435668Y-36046410D01*
X208452938Y-36062062D01*
X208468590Y-36079332D01*
X208482474Y-36098052D01*
X208494456Y-36118043D01*
X208504421Y-36139113D01*
X208512273Y-36161057D01*
X208517937Y-36183666D01*
X208521356Y-36206721D01*
X208522500Y-36230000D01*
X208522500Y-36805000D01*
X208521356Y-36828279D01*
X208517937Y-36851334D01*
X208512273Y-36873943D01*
X208504421Y-36895887D01*
X208494456Y-36916957D01*
X208482474Y-36936948D01*
X208468590Y-36955668D01*
X208452938Y-36972938D01*
X208435668Y-36988590D01*
X208416948Y-37002474D01*
X208396957Y-37014456D01*
X208375887Y-37024421D01*
X208353943Y-37032273D01*
X208331334Y-37037937D01*
X208308279Y-37041356D01*
X208285000Y-37042500D01*
X207810000Y-37042500D01*
X207786721Y-37041356D01*
X207763666Y-37037937D01*
X207741057Y-37032273D01*
X207719113Y-37024421D01*
X207698043Y-37014456D01*
X207678052Y-37002474D01*
X207659332Y-36988590D01*
X207642062Y-36972938D01*
X207626410Y-36955668D01*
X207612526Y-36936948D01*
X207600544Y-36916957D01*
X207590579Y-36895887D01*
X207582727Y-36873943D01*
X207577063Y-36851334D01*
X207573644Y-36828279D01*
X207572500Y-36805000D01*
X207572500Y-36230000D01*
X207573644Y-36206721D01*
X207577063Y-36183666D01*
X207582727Y-36161057D01*
X207590579Y-36139113D01*
X207600544Y-36118043D01*
X207612526Y-36098052D01*
X207626410Y-36079332D01*
X207642062Y-36062062D01*
X207659332Y-36046410D01*
X207678052Y-36032526D01*
X207698043Y-36020544D01*
X207719113Y-36010579D01*
X207741057Y-36002727D01*
X207763666Y-35997063D01*
X207786721Y-35993644D01*
X207810000Y-35992500D01*
X208285000Y-35992500D01*
X208308279Y-35993644D01*
G37*
G36*
X208308279Y-37743644D02*
G01*
X208331334Y-37747063D01*
X208353943Y-37752727D01*
X208375887Y-37760579D01*
X208396957Y-37770544D01*
X208416948Y-37782526D01*
X208435668Y-37796410D01*
X208452938Y-37812062D01*
X208468590Y-37829332D01*
X208482474Y-37848052D01*
X208494456Y-37868043D01*
X208504421Y-37889113D01*
X208512273Y-37911057D01*
X208517937Y-37933666D01*
X208521356Y-37956721D01*
X208522500Y-37980000D01*
X208522500Y-38555000D01*
X208521356Y-38578279D01*
X208517937Y-38601334D01*
X208512273Y-38623943D01*
X208504421Y-38645887D01*
X208494456Y-38666957D01*
X208482474Y-38686948D01*
X208468590Y-38705668D01*
X208452938Y-38722938D01*
X208435668Y-38738590D01*
X208416948Y-38752474D01*
X208396957Y-38764456D01*
X208375887Y-38774421D01*
X208353943Y-38782273D01*
X208331334Y-38787937D01*
X208308279Y-38791356D01*
X208285000Y-38792500D01*
X207810000Y-38792500D01*
X207786721Y-38791356D01*
X207763666Y-38787937D01*
X207741057Y-38782273D01*
X207719113Y-38774421D01*
X207698043Y-38764456D01*
X207678052Y-38752474D01*
X207659332Y-38738590D01*
X207642062Y-38722938D01*
X207626410Y-38705668D01*
X207612526Y-38686948D01*
X207600544Y-38666957D01*
X207590579Y-38645887D01*
X207582727Y-38623943D01*
X207577063Y-38601334D01*
X207573644Y-38578279D01*
X207572500Y-38555000D01*
X207572500Y-37980000D01*
X207573644Y-37956721D01*
X207577063Y-37933666D01*
X207582727Y-37911057D01*
X207590579Y-37889113D01*
X207600544Y-37868043D01*
X207612526Y-37848052D01*
X207626410Y-37829332D01*
X207642062Y-37812062D01*
X207659332Y-37796410D01*
X207678052Y-37782526D01*
X207698043Y-37770544D01*
X207719113Y-37760579D01*
X207741057Y-37752727D01*
X207763666Y-37747063D01*
X207786721Y-37743644D01*
X207810000Y-37742500D01*
X208285000Y-37742500D01*
X208308279Y-37743644D01*
G37*
G36*
X198033279Y-35468644D02*
G01*
X198056334Y-35472063D01*
X198078943Y-35477727D01*
X198100887Y-35485579D01*
X198121957Y-35495544D01*
X198141948Y-35507526D01*
X198160668Y-35521410D01*
X198177938Y-35537062D01*
X198193590Y-35554332D01*
X198207474Y-35573052D01*
X198219456Y-35593043D01*
X198229421Y-35614113D01*
X198237273Y-35636057D01*
X198242937Y-35658666D01*
X198246356Y-35681721D01*
X198247500Y-35705000D01*
X198247500Y-36180000D01*
X198246356Y-36203279D01*
X198242937Y-36226334D01*
X198237273Y-36248943D01*
X198229421Y-36270887D01*
X198219456Y-36291957D01*
X198207474Y-36311948D01*
X198193590Y-36330668D01*
X198177938Y-36347938D01*
X198160668Y-36363590D01*
X198141948Y-36377474D01*
X198121957Y-36389456D01*
X198100887Y-36399421D01*
X198078943Y-36407273D01*
X198056334Y-36412937D01*
X198033279Y-36416356D01*
X198010000Y-36417500D01*
X197435000Y-36417500D01*
X197411721Y-36416356D01*
X197388666Y-36412937D01*
X197366057Y-36407273D01*
X197344113Y-36399421D01*
X197323043Y-36389456D01*
X197303052Y-36377474D01*
X197284332Y-36363590D01*
X197267062Y-36347938D01*
X197251410Y-36330668D01*
X197237526Y-36311948D01*
X197225544Y-36291957D01*
X197215579Y-36270887D01*
X197207727Y-36248943D01*
X197202063Y-36226334D01*
X197198644Y-36203279D01*
X197197500Y-36180000D01*
X197197500Y-35705000D01*
X197198644Y-35681721D01*
X197202063Y-35658666D01*
X197207727Y-35636057D01*
X197215579Y-35614113D01*
X197225544Y-35593043D01*
X197237526Y-35573052D01*
X197251410Y-35554332D01*
X197267062Y-35537062D01*
X197284332Y-35521410D01*
X197303052Y-35507526D01*
X197323043Y-35495544D01*
X197344113Y-35485579D01*
X197366057Y-35477727D01*
X197388666Y-35472063D01*
X197411721Y-35468644D01*
X197435000Y-35467500D01*
X198010000Y-35467500D01*
X198033279Y-35468644D01*
G37*
G36*
X196283279Y-35468644D02*
G01*
X196306334Y-35472063D01*
X196328943Y-35477727D01*
X196350887Y-35485579D01*
X196371957Y-35495544D01*
X196391948Y-35507526D01*
X196410668Y-35521410D01*
X196427938Y-35537062D01*
X196443590Y-35554332D01*
X196457474Y-35573052D01*
X196469456Y-35593043D01*
X196479421Y-35614113D01*
X196487273Y-35636057D01*
X196492937Y-35658666D01*
X196496356Y-35681721D01*
X196497500Y-35705000D01*
X196497500Y-36180000D01*
X196496356Y-36203279D01*
X196492937Y-36226334D01*
X196487273Y-36248943D01*
X196479421Y-36270887D01*
X196469456Y-36291957D01*
X196457474Y-36311948D01*
X196443590Y-36330668D01*
X196427938Y-36347938D01*
X196410668Y-36363590D01*
X196391948Y-36377474D01*
X196371957Y-36389456D01*
X196350887Y-36399421D01*
X196328943Y-36407273D01*
X196306334Y-36412937D01*
X196283279Y-36416356D01*
X196260000Y-36417500D01*
X195685000Y-36417500D01*
X195661721Y-36416356D01*
X195638666Y-36412937D01*
X195616057Y-36407273D01*
X195594113Y-36399421D01*
X195573043Y-36389456D01*
X195553052Y-36377474D01*
X195534332Y-36363590D01*
X195517062Y-36347938D01*
X195501410Y-36330668D01*
X195487526Y-36311948D01*
X195475544Y-36291957D01*
X195465579Y-36270887D01*
X195457727Y-36248943D01*
X195452063Y-36226334D01*
X195448644Y-36203279D01*
X195447500Y-36180000D01*
X195447500Y-35705000D01*
X195448644Y-35681721D01*
X195452063Y-35658666D01*
X195457727Y-35636057D01*
X195465579Y-35614113D01*
X195475544Y-35593043D01*
X195487526Y-35573052D01*
X195501410Y-35554332D01*
X195517062Y-35537062D01*
X195534332Y-35521410D01*
X195553052Y-35507526D01*
X195573043Y-35495544D01*
X195594113Y-35485579D01*
X195616057Y-35477727D01*
X195638666Y-35472063D01*
X195661721Y-35468644D01*
X195685000Y-35467500D01*
X196260000Y-35467500D01*
X196283279Y-35468644D01*
G37*
G36*
X151118279Y-37453644D02*
G01*
X151141334Y-37457063D01*
X151163943Y-37462727D01*
X151185887Y-37470579D01*
X151206957Y-37480544D01*
X151226948Y-37492526D01*
X151245668Y-37506410D01*
X151262938Y-37522062D01*
X151278590Y-37539332D01*
X151292474Y-37558052D01*
X151304456Y-37578043D01*
X151314421Y-37599113D01*
X151322273Y-37621057D01*
X151327937Y-37643666D01*
X151331356Y-37666721D01*
X151332500Y-37690000D01*
X151332500Y-38265000D01*
X151331356Y-38288279D01*
X151327937Y-38311334D01*
X151322273Y-38333943D01*
X151314421Y-38355887D01*
X151304456Y-38376957D01*
X151292474Y-38396948D01*
X151278590Y-38415668D01*
X151262938Y-38432938D01*
X151245668Y-38448590D01*
X151226948Y-38462474D01*
X151206957Y-38474456D01*
X151185887Y-38484421D01*
X151163943Y-38492273D01*
X151141334Y-38497937D01*
X151118279Y-38501356D01*
X151095000Y-38502500D01*
X150620000Y-38502500D01*
X150596721Y-38501356D01*
X150573666Y-38497937D01*
X150551057Y-38492273D01*
X150529113Y-38484421D01*
X150508043Y-38474456D01*
X150488052Y-38462474D01*
X150469332Y-38448590D01*
X150452062Y-38432938D01*
X150436410Y-38415668D01*
X150422526Y-38396948D01*
X150410544Y-38376957D01*
X150400579Y-38355887D01*
X150392727Y-38333943D01*
X150387063Y-38311334D01*
X150383644Y-38288279D01*
X150382500Y-38265000D01*
X150382500Y-37690000D01*
X150383644Y-37666721D01*
X150387063Y-37643666D01*
X150392727Y-37621057D01*
X150400579Y-37599113D01*
X150410544Y-37578043D01*
X150422526Y-37558052D01*
X150436410Y-37539332D01*
X150452062Y-37522062D01*
X150469332Y-37506410D01*
X150488052Y-37492526D01*
X150508043Y-37480544D01*
X150529113Y-37470579D01*
X150551057Y-37462727D01*
X150573666Y-37457063D01*
X150596721Y-37453644D01*
X150620000Y-37452500D01*
X151095000Y-37452500D01*
X151118279Y-37453644D01*
G37*
G36*
X151118279Y-35703644D02*
G01*
X151141334Y-35707063D01*
X151163943Y-35712727D01*
X151185887Y-35720579D01*
X151206957Y-35730544D01*
X151226948Y-35742526D01*
X151245668Y-35756410D01*
X151262938Y-35772062D01*
X151278590Y-35789332D01*
X151292474Y-35808052D01*
X151304456Y-35828043D01*
X151314421Y-35849113D01*
X151322273Y-35871057D01*
X151327937Y-35893666D01*
X151331356Y-35916721D01*
X151332500Y-35940000D01*
X151332500Y-36515000D01*
X151331356Y-36538279D01*
X151327937Y-36561334D01*
X151322273Y-36583943D01*
X151314421Y-36605887D01*
X151304456Y-36626957D01*
X151292474Y-36646948D01*
X151278590Y-36665668D01*
X151262938Y-36682938D01*
X151245668Y-36698590D01*
X151226948Y-36712474D01*
X151206957Y-36724456D01*
X151185887Y-36734421D01*
X151163943Y-36742273D01*
X151141334Y-36747937D01*
X151118279Y-36751356D01*
X151095000Y-36752500D01*
X150620000Y-36752500D01*
X150596721Y-36751356D01*
X150573666Y-36747937D01*
X150551057Y-36742273D01*
X150529113Y-36734421D01*
X150508043Y-36724456D01*
X150488052Y-36712474D01*
X150469332Y-36698590D01*
X150452062Y-36682938D01*
X150436410Y-36665668D01*
X150422526Y-36646948D01*
X150410544Y-36626957D01*
X150400579Y-36605887D01*
X150392727Y-36583943D01*
X150387063Y-36561334D01*
X150383644Y-36538279D01*
X150382500Y-36515000D01*
X150382500Y-35940000D01*
X150383644Y-35916721D01*
X150387063Y-35893666D01*
X150392727Y-35871057D01*
X150400579Y-35849113D01*
X150410544Y-35828043D01*
X150422526Y-35808052D01*
X150436410Y-35789332D01*
X150452062Y-35772062D01*
X150469332Y-35756410D01*
X150488052Y-35742526D01*
X150508043Y-35730544D01*
X150529113Y-35720579D01*
X150551057Y-35712727D01*
X150573666Y-35707063D01*
X150596721Y-35703644D01*
X150620000Y-35702500D01*
X151095000Y-35702500D01*
X151118279Y-35703644D01*
G37*
G36*
X200208279Y-42468644D02*
G01*
X200231334Y-42472063D01*
X200253943Y-42477727D01*
X200275887Y-42485579D01*
X200296957Y-42495544D01*
X200316948Y-42507526D01*
X200335668Y-42521410D01*
X200352938Y-42537062D01*
X200368590Y-42554332D01*
X200382474Y-42573052D01*
X200394456Y-42593043D01*
X200404421Y-42614113D01*
X200412273Y-42636057D01*
X200417937Y-42658666D01*
X200421356Y-42681721D01*
X200422500Y-42705000D01*
X200422500Y-43180000D01*
X200421356Y-43203279D01*
X200417937Y-43226334D01*
X200412273Y-43248943D01*
X200404421Y-43270887D01*
X200394456Y-43291957D01*
X200382474Y-43311948D01*
X200368590Y-43330668D01*
X200352938Y-43347938D01*
X200335668Y-43363590D01*
X200316948Y-43377474D01*
X200296957Y-43389456D01*
X200275887Y-43399421D01*
X200253943Y-43407273D01*
X200231334Y-43412937D01*
X200208279Y-43416356D01*
X200185000Y-43417500D01*
X199610000Y-43417500D01*
X199586721Y-43416356D01*
X199563666Y-43412937D01*
X199541057Y-43407273D01*
X199519113Y-43399421D01*
X199498043Y-43389456D01*
X199478052Y-43377474D01*
X199459332Y-43363590D01*
X199442062Y-43347938D01*
X199426410Y-43330668D01*
X199412526Y-43311948D01*
X199400544Y-43291957D01*
X199390579Y-43270887D01*
X199382727Y-43248943D01*
X199377063Y-43226334D01*
X199373644Y-43203279D01*
X199372500Y-43180000D01*
X199372500Y-42705000D01*
X199373644Y-42681721D01*
X199377063Y-42658666D01*
X199382727Y-42636057D01*
X199390579Y-42614113D01*
X199400544Y-42593043D01*
X199412526Y-42573052D01*
X199426410Y-42554332D01*
X199442062Y-42537062D01*
X199459332Y-42521410D01*
X199478052Y-42507526D01*
X199498043Y-42495544D01*
X199519113Y-42485579D01*
X199541057Y-42477727D01*
X199563666Y-42472063D01*
X199586721Y-42468644D01*
X199610000Y-42467500D01*
X200185000Y-42467500D01*
X200208279Y-42468644D01*
G37*
G36*
X198458279Y-42468644D02*
G01*
X198481334Y-42472063D01*
X198503943Y-42477727D01*
X198525887Y-42485579D01*
X198546957Y-42495544D01*
X198566948Y-42507526D01*
X198585668Y-42521410D01*
X198602938Y-42537062D01*
X198618590Y-42554332D01*
X198632474Y-42573052D01*
X198644456Y-42593043D01*
X198654421Y-42614113D01*
X198662273Y-42636057D01*
X198667937Y-42658666D01*
X198671356Y-42681721D01*
X198672500Y-42705000D01*
X198672500Y-43180000D01*
X198671356Y-43203279D01*
X198667937Y-43226334D01*
X198662273Y-43248943D01*
X198654421Y-43270887D01*
X198644456Y-43291957D01*
X198632474Y-43311948D01*
X198618590Y-43330668D01*
X198602938Y-43347938D01*
X198585668Y-43363590D01*
X198566948Y-43377474D01*
X198546957Y-43389456D01*
X198525887Y-43399421D01*
X198503943Y-43407273D01*
X198481334Y-43412937D01*
X198458279Y-43416356D01*
X198435000Y-43417500D01*
X197860000Y-43417500D01*
X197836721Y-43416356D01*
X197813666Y-43412937D01*
X197791057Y-43407273D01*
X197769113Y-43399421D01*
X197748043Y-43389456D01*
X197728052Y-43377474D01*
X197709332Y-43363590D01*
X197692062Y-43347938D01*
X197676410Y-43330668D01*
X197662526Y-43311948D01*
X197650544Y-43291957D01*
X197640579Y-43270887D01*
X197632727Y-43248943D01*
X197627063Y-43226334D01*
X197623644Y-43203279D01*
X197622500Y-43180000D01*
X197622500Y-42705000D01*
X197623644Y-42681721D01*
X197627063Y-42658666D01*
X197632727Y-42636057D01*
X197640579Y-42614113D01*
X197650544Y-42593043D01*
X197662526Y-42573052D01*
X197676410Y-42554332D01*
X197692062Y-42537062D01*
X197709332Y-42521410D01*
X197728052Y-42507526D01*
X197748043Y-42495544D01*
X197769113Y-42485579D01*
X197791057Y-42477727D01*
X197813666Y-42472063D01*
X197836721Y-42468644D01*
X197860000Y-42467500D01*
X198435000Y-42467500D01*
X198458279Y-42468644D01*
G37*
G36*
X160733279Y-52568644D02*
G01*
X160756334Y-52572063D01*
X160778943Y-52577727D01*
X160800887Y-52585579D01*
X160821957Y-52595544D01*
X160841948Y-52607526D01*
X160860668Y-52621410D01*
X160877938Y-52637062D01*
X160893590Y-52654332D01*
X160907474Y-52673052D01*
X160919456Y-52693043D01*
X160929421Y-52714113D01*
X160937273Y-52736057D01*
X160942937Y-52758666D01*
X160946356Y-52781721D01*
X160947500Y-52805000D01*
X160947500Y-53280000D01*
X160946356Y-53303279D01*
X160942937Y-53326334D01*
X160937273Y-53348943D01*
X160929421Y-53370887D01*
X160919456Y-53391957D01*
X160907474Y-53411948D01*
X160893590Y-53430668D01*
X160877938Y-53447938D01*
X160860668Y-53463590D01*
X160841948Y-53477474D01*
X160821957Y-53489456D01*
X160800887Y-53499421D01*
X160778943Y-53507273D01*
X160756334Y-53512937D01*
X160733279Y-53516356D01*
X160710000Y-53517500D01*
X160135000Y-53517500D01*
X160111721Y-53516356D01*
X160088666Y-53512937D01*
X160066057Y-53507273D01*
X160044113Y-53499421D01*
X160023043Y-53489456D01*
X160003052Y-53477474D01*
X159984332Y-53463590D01*
X159967062Y-53447938D01*
X159951410Y-53430668D01*
X159937526Y-53411948D01*
X159925544Y-53391957D01*
X159915579Y-53370887D01*
X159907727Y-53348943D01*
X159902063Y-53326334D01*
X159898644Y-53303279D01*
X159897500Y-53280000D01*
X159897500Y-52805000D01*
X159898644Y-52781721D01*
X159902063Y-52758666D01*
X159907727Y-52736057D01*
X159915579Y-52714113D01*
X159925544Y-52693043D01*
X159937526Y-52673052D01*
X159951410Y-52654332D01*
X159967062Y-52637062D01*
X159984332Y-52621410D01*
X160003052Y-52607526D01*
X160023043Y-52595544D01*
X160044113Y-52585579D01*
X160066057Y-52577727D01*
X160088666Y-52572063D01*
X160111721Y-52568644D01*
X160135000Y-52567500D01*
X160710000Y-52567500D01*
X160733279Y-52568644D01*
G37*
G36*
X158983279Y-52568644D02*
G01*
X159006334Y-52572063D01*
X159028943Y-52577727D01*
X159050887Y-52585579D01*
X159071957Y-52595544D01*
X159091948Y-52607526D01*
X159110668Y-52621410D01*
X159127938Y-52637062D01*
X159143590Y-52654332D01*
X159157474Y-52673052D01*
X159169456Y-52693043D01*
X159179421Y-52714113D01*
X159187273Y-52736057D01*
X159192937Y-52758666D01*
X159196356Y-52781721D01*
X159197500Y-52805000D01*
X159197500Y-53280000D01*
X159196356Y-53303279D01*
X159192937Y-53326334D01*
X159187273Y-53348943D01*
X159179421Y-53370887D01*
X159169456Y-53391957D01*
X159157474Y-53411948D01*
X159143590Y-53430668D01*
X159127938Y-53447938D01*
X159110668Y-53463590D01*
X159091948Y-53477474D01*
X159071957Y-53489456D01*
X159050887Y-53499421D01*
X159028943Y-53507273D01*
X159006334Y-53512937D01*
X158983279Y-53516356D01*
X158960000Y-53517500D01*
X158385000Y-53517500D01*
X158361721Y-53516356D01*
X158338666Y-53512937D01*
X158316057Y-53507273D01*
X158294113Y-53499421D01*
X158273043Y-53489456D01*
X158253052Y-53477474D01*
X158234332Y-53463590D01*
X158217062Y-53447938D01*
X158201410Y-53430668D01*
X158187526Y-53411948D01*
X158175544Y-53391957D01*
X158165579Y-53370887D01*
X158157727Y-53348943D01*
X158152063Y-53326334D01*
X158148644Y-53303279D01*
X158147500Y-53280000D01*
X158147500Y-52805000D01*
X158148644Y-52781721D01*
X158152063Y-52758666D01*
X158157727Y-52736057D01*
X158165579Y-52714113D01*
X158175544Y-52693043D01*
X158187526Y-52673052D01*
X158201410Y-52654332D01*
X158217062Y-52637062D01*
X158234332Y-52621410D01*
X158253052Y-52607526D01*
X158273043Y-52595544D01*
X158294113Y-52585579D01*
X158316057Y-52577727D01*
X158338666Y-52572063D01*
X158361721Y-52568644D01*
X158385000Y-52567500D01*
X158960000Y-52567500D01*
X158983279Y-52568644D01*
G37*
D13*
X175147500Y-52092500D03*
X175147500Y-51292500D03*
X175147500Y-50492500D03*
X175147500Y-49692500D03*
X175147500Y-48892500D03*
X175147500Y-48092500D03*
X175147500Y-47292500D03*
X175147500Y-46492500D03*
X175147500Y-45692500D03*
X175147500Y-44892500D03*
X175147500Y-44092500D03*
D14*
X173447500Y-42392500D03*
X172647500Y-42392500D03*
X171847500Y-42392500D03*
X171047500Y-42392500D03*
X170247500Y-42392500D03*
X169447500Y-42392500D03*
X168647500Y-42392500D03*
X167847500Y-42392500D03*
X167047500Y-42392500D03*
X166247500Y-42392500D03*
X165447500Y-42392500D03*
D13*
X163747500Y-44092500D03*
X163747500Y-44892500D03*
X163747500Y-45692500D03*
X163747500Y-46492500D03*
X163747500Y-47292500D03*
X163747500Y-48092500D03*
X163747500Y-48892500D03*
X163747500Y-49692500D03*
X163747500Y-50492500D03*
X163747500Y-51292500D03*
X163747500Y-52092500D03*
D14*
X165447500Y-53792500D03*
X166247500Y-53792500D03*
X167047500Y-53792500D03*
X167847500Y-53792500D03*
X168647500Y-53792500D03*
X169447500Y-53792500D03*
X170247500Y-53792500D03*
X171047500Y-53792500D03*
X171847500Y-53792500D03*
X172647500Y-53792500D03*
X173447500Y-53792500D03*
D15*
X218312500Y-42873750D03*
X217812500Y-42873750D03*
X217312500Y-42873750D03*
X216812500Y-42873750D03*
X216312500Y-42873750D03*
X215812500Y-42873750D03*
X215312500Y-42873750D03*
X214812500Y-42873750D03*
X214312500Y-42873750D03*
X213812500Y-42873750D03*
X213312500Y-42873750D03*
X212812500Y-42873750D03*
D16*
X167897500Y-37892500D03*
X171197500Y-37892500D03*
X171197500Y-35892500D03*
X167897500Y-35892500D03*
M02*
